<?xml version="1.0" encoding="UTF-8"?>
<svg version="1.1" xmlns="http://www.w3.org/2000/svg" width="800" height="800">
<path d="M0 0 C264 0 528 0 800 0 C800 264 800 528 800 800 C536 800 272 800 0 800 C0 536 0 272 0 0 Z " fill="#BACED7" transform="translate(0,0)"/>
<path d="M0 0 C4.61978601 2.86948457 8.10319982 6.29464367 10.58203125 11.14453125 C11.80930458 18.09908011 12.07053143 24.22494196 8.484375 30.50390625 C6.18752614 33.63779916 3.52078275 36.37735933 0.14453125 38.33203125 C-1.17546875 38.33203125 -2.49546875 38.33203125 -3.85546875 38.33203125 C-3.85546875 53.84203125 -3.85546875 69.35203125 -3.85546875 85.33203125 C0.43453125 85.66203125 4.72453125 85.99203125 9.14453125 86.33203125 C12.18421209 87.18878517 14.83553098 88.01420946 17.70703125 89.20703125 C18.37798828 89.46355469 19.04894531 89.72007812 19.74023438 89.984375 C23.39647069 91.42657723 25.95142213 92.93719941 29.14453125 95.33203125 C29.47453125 81.80203125 29.80453125 68.27203125 30.14453125 54.33203125 C28.82453125 53.67203125 27.50453125 53.01203125 26.14453125 52.33203125 C24.51171875 50.74609375 24.51171875 50.74609375 23.01953125 48.95703125 C22.52195312 48.37179688 22.024375 47.7865625 21.51171875 47.18359375 C17.19251558 41.3341586 17.23002012 35.41533568 18.14453125 28.33203125 C20.6357529 21.7018508 25.43813509 17.66878555 31.5625 14.36328125 C37.07528791 12.16150212 41.8611043 12.72719338 47.39453125 14.58203125 C54.48404239 17.64245388 58.26917952 22.23792575 61.14453125 29.33203125 C62.13522326 36.15679844 60.32093109 42.2392877 57.14453125 48.33203125 C53.59618619 52.63713236 50.58885701 54.33566217 45.14453125 55.33203125 C45.14976807 56.4622168 45.15500488 57.59240234 45.16040039 58.75683594 C45.17851351 62.95376797 45.18998637 67.15069656 45.19946289 71.34765625 C45.20448866 73.16341737 45.21131028 74.97917445 45.2199707 76.79492188 C45.23211314 79.40626015 45.23777716 82.01754487 45.2421875 84.62890625 C45.24734879 85.43946472 45.25251007 86.25002319 45.25782776 87.08514404 C45.25818421 90.67407295 45.11499072 93.87943911 44.14453125 97.33203125 C52.98134823 89.91315625 61.11355655 81.82101709 68.58984375 73.0390625 C70.08057152 71.40225839 71.60840589 70.02943421 73.33203125 68.64453125 C76.0541172 66.40637169 77.98116603 64.09218687 80.14453125 61.33203125 C81.13453125 60.67203125 82.12453125 60.01203125 83.14453125 59.33203125 C83.00015625 58.76097656 82.85578125 58.18992188 82.70703125 57.6015625 C80.53898183 48.13140217 79.16513193 38.04598006 84.14453125 29.33203125 C84.70140625 28.32140625 85.25828125 27.31078125 85.83203125 26.26953125 C90.67564778 20.11682917 97.79268214 14.9122778 105.66015625 13.86328125 C116.58753284 13.77183877 123.44264027 15.67203952 131.51953125 23.08203125 C137.70603661 29.7945148 139.89009852 36.22243712 139.51953125 45.34765625 C138.38347545 54.38876699 134.01649439 61.41417195 127.14453125 67.33203125 C119.53729162 71.8539044 111.90614735 73.08905474 103.14453125 72.33203125 C101.01171875 71.625 101.01171875 71.625 99.20703125 70.76953125 C96.40755987 69.13428324 96.40755987 69.13428324 94.1809082 69.53491211 C91.69119815 70.5094839 90.37430078 71.74517457 88.5 73.6484375 C87.82259766 74.33099609 87.14519531 75.01355469 86.44726562 75.71679688 C85.74923828 76.43544922 85.05121094 77.15410156 84.33203125 77.89453125 C83.64560547 78.58611328 82.95917969 79.27769531 82.25195312 79.99023438 C78.27390145 84.02850253 74.48994772 88.18829103 70.78540039 92.47729492 C67.94451274 95.68845747 64.87233686 98.64685345 61.80078125 101.63671875 C59.1312844 104.22339698 59.1312844 104.22339698 57.14453125 107.33203125 C68.69453125 107.33203125 80.24453125 107.33203125 92.14453125 107.33203125 C92.47453125 105.68203125 92.80453125 104.03203125 93.14453125 102.33203125 C94.8515625 100.3828125 94.8515625 100.3828125 96.95703125 98.64453125 C97.64410156 98.06316406 98.33117187 97.48179687 99.0390625 96.8828125 C103.22508346 93.79960226 106.46051793 92.75786588 111.63671875 92.89453125 C117.29892184 93.88232992 122.2162594 96.98898238 125.8515625 101.40625 C129.31337261 106.80348133 131.08399774 111.84315803 130.14453125 118.33203125 C127.99494527 124.94150589 125.13372625 129.14533126 119.01171875 132.4921875 C113.74865719 134.85946414 108.97331868 135.31595731 103.5390625 133.42578125 C98.11358944 130.92541553 94.78853449 128.7402197 92.14453125 123.33203125 C92.14453125 122.67203125 92.14453125 122.01203125 92.14453125 121.33203125 C80.26453125 121.66203125 68.38453125 121.99203125 56.14453125 122.33203125 C58.12453125 125.63203125 60.10453125 128.93203125 62.14453125 132.33203125 C63.38671875 135.3984375 63.38671875 135.3984375 64.01953125 137.89453125 C64.35597656 139.13396484 64.35597656 139.13396484 64.69921875 140.3984375 C65.29662564 144.33398642 65.14453125 148.35139809 65.14453125 152.33203125 C85.60453125 152.33203125 106.06453125 152.33203125 127.14453125 152.33203125 C127.80453125 150.35203125 128.46453125 148.37203125 129.14453125 146.33203125 C133.18155863 141.66226889 137.9470695 137.84253336 144.16796875 137.0859375 C149.98488846 136.75836352 154.40745048 137.90138749 159.14453125 141.33203125 C164.10574011 146.17223502 167.44054251 150.42012567 167.58203125 157.51953125 C167.44972909 164.96152757 165.52011935 168.89616479 160.39453125 174.11328125 C155.05328352 178.99407659 150.82201959 179.66103398 143.66796875 179.53515625 C137.64488062 179.05032563 134.15053328 176.61527048 130.20703125 172.26953125 C127.14453125 168.65510817 127.14453125 168.65510817 127.14453125 166.33203125 C106.68453125 166.33203125 86.22453125 166.33203125 65.14453125 166.33203125 C65.14453125 169.30203125 65.14453125 172.27203125 65.14453125 175.33203125 C64.59375 177.91430664 64.59375 177.91430664 63.83203125 179.9296875 C63.56132812 180.66767578 63.290625 181.40566406 63.01171875 182.16601562 C62.72554687 182.90142578 62.439375 183.63683594 62.14453125 184.39453125 C61.85835937 185.16474609 61.5721875 185.93496094 61.27734375 186.72851562 C60.5794272 188.60125838 59.86383802 190.46739972 59.14453125 192.33203125 C63.85946544 192.33738522 68.5719453 192.30350016 73.28637695 192.234375 C74.88752929 192.21628836 76.48883677 192.20863315 78.09008789 192.21191406 C88.47470727 192.64527053 88.47470727 192.64527053 97.484375 188.40234375 C97.93031006 187.87656738 98.37624512 187.35079102 98.83569336 186.80908203 C101.05041209 184.30972588 103.39832047 183.43168052 106.66015625 182.99609375 C112.98922205 182.90567852 118.05452945 183.32004293 123.14453125 187.33203125 C128.44505229 193.0839067 130.51723914 197.80925677 130.42578125 205.62890625 C129.84509799 211.20991756 127.73121025 215.70246903 123.83203125 219.70703125 C118.13125713 223.15401095 112.90206233 225.4926759 106.14453125 224.33203125 C100.87671855 222.51756243 96.57425809 219.77050128 93.14453125 215.33203125 C92.48453125 212.69203125 91.82453125 210.05203125 91.14453125 207.33203125 C79.26453125 207.66203125 67.38453125 207.99203125 55.14453125 208.33203125 C59.10457355 212.25300817 59.10457355 212.25300817 63.07055664 216.16796875 C66.00860691 219.09164182 68.82111786 222.07121788 71.5234375 225.21484375 C75.4640645 229.77657474 79.72222064 233.9838122 84.01953125 238.20703125 C85.54003941 239.70211286 87.05838536 241.19939769 88.57421875 242.69921875 C89.23663574 243.35003418 89.89905273 244.00084961 90.58154297 244.67138672 C92.14453125 246.33203125 92.14453125 246.33203125 93.14453125 248.33203125 C95.75478883 247.88455852 98.02778981 247.38369722 100.45703125 246.30859375 C107.49102847 243.75263546 116.22803865 244.79598396 123.14453125 247.33203125 C129.62638507 250.96729147 133.50249747 255.95267272 137.14453125 262.33203125 C137.51707031 262.92757813 137.88960937 263.523125 138.2734375 264.13671875 C140.86442206 270.66646459 140.25775594 279.37441062 137.82421875 285.83984375 C133.54103377 293.50347965 128.15704384 300.10862298 119.5625 302.8515625 C110.14111765 304.72366271 102.15940062 303.92170722 93.77734375 299.171875 C86.65716742 294.19620282 82.84592524 288.20957413 80.45703125 279.95703125 C79.5347967 272.21026106 79.67558971 265.03544356 84.14453125 258.33203125 C83.55534912 258.07333252 82.96616699 257.81463379 82.35913086 257.5480957 C79.97220076 256.23740241 78.54467411 254.87821319 76.7109375 252.875 C76.06801758 252.18051758 75.42509766 251.48603516 74.76269531 250.77050781 C74.08432617 250.02768555 73.40595703 249.28486328 72.70703125 248.51953125 C67.03270138 242.38730039 61.28523429 236.36875639 55.30688477 230.53198242 C53.02345426 228.2867026 50.91084352 226.03951304 48.91015625 223.53515625 C47.33234688 221.25165854 47.33234688 221.25165854 45.14453125 220.33203125 C45.47453125 232.87203125 45.80453125 245.41203125 46.14453125 258.33203125 C48.12453125 259.32203125 50.10453125 260.31203125 52.14453125 261.33203125 C54.19140625 263.234375 54.19140625 263.234375 55.89453125 265.26953125 C56.466875 265.93855469 57.03921875 266.60757812 57.62890625 267.296875 C61.70498056 272.77016036 61.8774493 277.64299438 61.14453125 284.33203125 C59.14662982 291.33066801 54.35451457 295.67791133 48.34765625 299.46484375 C42.7336392 301.67461642 35.16443892 301.6055427 29.625 299.26953125 C24.194758 295.44863439 21.06506968 290.17310812 18.14453125 284.33203125 C17.20201539 276.45529156 18.31312084 270.67737135 23.14453125 264.33203125 C27.24209223 260.33203125 27.24209223 260.33203125 31.14453125 260.33203125 C31.14453125 247.79203125 31.14453125 235.25203125 31.14453125 222.33203125 C30.48453125 222.33203125 29.82453125 222.33203125 29.14453125 222.33203125 C28.81453125 223.32203125 28.48453125 224.31203125 28.14453125 225.33203125 C25.8376083 226.66855822 23.62743467 227.80539352 21.20703125 228.89453125 C20.52842041 229.20463135 19.84980957 229.51473145 19.15063477 229.83422852 C11.72563655 233.11966488 5.27703723 234.33203125 -2.85546875 234.33203125 C-2.85546875 248.85203125 -2.85546875 263.37203125 -2.85546875 278.33203125 C-0.87546875 278.99203125 1.10453125 279.65203125 3.14453125 280.33203125 C7.9812408 284.26888786 10.49408635 288.46838852 11.53515625 294.65234375 C12.03202243 301.85690337 9.49044446 306.70911985 5.14453125 312.33203125 C0.69355808 316.67444409 -3.89350537 318.61514035 -10.10546875 318.76953125 C-17.29210646 318.63375132 -22.32731465 315.92500982 -27.29296875 310.83203125 C-31.25438691 304.4937622 -31.61792052 298.67062951 -30.85546875 291.33203125 C-29.14771785 285.41312189 -25.88236707 281.75460032 -20.85546875 278.33203125 C-19.86546875 278.33203125 -18.87546875 278.33203125 -17.85546875 278.33203125 C-17.85546875 263.81203125 -17.85546875 249.29203125 -17.85546875 234.33203125 C-20.49546875 234.33203125 -23.13546875 234.33203125 -25.85546875 234.33203125 C-35.69704378 232.86352398 -44.61245811 228.82737168 -52.85546875 223.33203125 C-52.85546875 235.54203125 -52.85546875 247.75203125 -52.85546875 260.33203125 C-51.53546875 260.66203125 -50.21546875 260.99203125 -48.85546875 261.33203125 C-43.9697771 265.36272686 -40.57441257 270.24349215 -39.46875 276.53125 C-39.17139615 282.40655191 -40.62347521 287.42154383 -43.85546875 292.33203125 C-47.58665112 296.26968221 -51.25505995 300.12386204 -56.83203125 300.5703125 C-70.03771341 300.83895057 -70.03771341 300.83895057 -75.85546875 296.33203125 C-80.67320643 291.51429357 -82.99377665 286.12119495 -83.29296875 279.39453125 C-83.07365179 273.37245295 -81.30381285 268.9394325 -77.171875 264.5390625 C-73.96320415 261.63400782 -72.17552119 260.41204436 -67.85546875 259.33203125 C-68.18546875 246.79203125 -68.51546875 234.25203125 -68.85546875 221.33203125 C-72.50609375 224.96203125 -76.15671875 228.59203125 -79.91796875 232.33203125 C-81.05500244 233.45996094 -82.19203613 234.58789062 -83.36352539 235.75 C-88.21977948 240.59301946 -92.99537611 245.44209092 -97.39599609 250.7109375 C-98.85546875 252.33203125 -98.85546875 252.33203125 -100.67041016 253.859375 C-102.67042461 255.45156454 -102.67042461 255.45156454 -104.85546875 258.33203125 C-104.35642586 261.57222125 -104.35642586 261.57222125 -103.52734375 263.8046875 C-101.34791919 272.00287174 -101.89816567 281.50949983 -105.53125 289.18359375 C-110.15200683 296.68039687 -116.65864765 300.59975755 -124.85546875 303.33203125 C-133.80990724 304.21114863 -140.30021623 303.25877151 -147.85546875 298.33203125 C-148.92796875 297.65140625 -150.00046875 296.97078125 -151.10546875 296.26953125 C-156.41200191 291.37235922 -159.37641425 284.60726912 -160.40625 277.56640625 C-160.73448557 268.30078488 -159.2762223 261.31018416 -153.05859375 254.30859375 C-146.41696088 248.01232579 -140.02043522 245.13104651 -130.85546875 244.89453125 C-124.95192638 245.05460561 -120.29449788 246.08139851 -114.85546875 248.33203125 C-114.51257813 247.92855469 -114.1696875 247.52507812 -113.81640625 247.109375 C-102.13999379 233.56358616 -89.54625485 220.91879451 -76.85546875 208.33203125 C-94.18046875 207.83703125 -94.18046875 207.83703125 -111.85546875 207.33203125 C-112.51546875 209.64203125 -113.17546875 211.95203125 -113.85546875 214.33203125 C-117.56508997 218.7434727 -122.48363707 222.96891091 -128.39453125 223.60546875 C-134.42421147 223.80391392 -139.20100557 223.74856973 -144.1640625 220.0703125 C-148.77429194 215.33231689 -151.11462897 209.72748516 -151.35546875 203.14453125 C-150.96825683 196.80021291 -149.19954897 192.27780548 -144.41796875 188.01953125 C-137.93904229 182.72913269 -132.07849843 182.5372038 -123.85546875 183.33203125 C-120.80092612 184.20678417 -118.27238404 185.25443658 -115.85546875 187.33203125 C-115.26378906 188.62947266 -115.26378906 188.62947266 -114.66015625 189.953125 C-112.97150636 192.75897449 -112.97150636 192.75897449 -109.15234375 192.85546875 C-107.63608373 192.83260211 -106.1200739 192.78145282 -104.60546875 192.70703125 C-103.81221191 192.68705078 -103.01895508 192.66707031 -102.20166016 192.64648438 C-99.75033068 192.57411319 -97.30443122 192.46102766 -94.85546875 192.33203125 C-93.71126465 192.27257324 -93.71126465 192.27257324 -92.54394531 192.21191406 C-88.30918212 191.97820748 -84.08249603 191.68116625 -79.85546875 191.33203125 C-80.20480469 190.59597656 -80.55414063 189.85992187 -80.9140625 189.1015625 C-81.36910156 188.12574219 -81.82414062 187.14992188 -82.29296875 186.14453125 C-82.74542969 185.18160156 -83.19789063 184.21867188 -83.6640625 183.2265625 C-85.43815953 178.91637921 -85.89940051 175.29057602 -85.87670898 170.66333008 C-85.87364243 169.85237381 -85.87057587 169.04141754 -85.86741638 168.20588684 C-85.86347366 167.5875145 -85.85953094 166.96914215 -85.85546875 166.33203125 C-93.72292905 166.27732415 -101.58917854 166.26570239 -109.45664501 166.3086853 C-113.11027606 166.32730113 -116.76267845 166.33122195 -120.41625977 166.30126953 C-123.94421799 166.27289247 -127.47012681 166.28349554 -130.99798012 166.3208313 C-132.99487641 166.33187332 -134.99186416 166.30282213 -136.98857117 166.27319336 C-143.38564324 166.12396477 -143.38564324 166.12396477 -148.69570923 169.09179688 C-150.03465509 171.18325644 -150.03465509 171.18325644 -150.90010071 173.37304688 C-152.35837076 176.36323298 -154.49544776 177.43891151 -157.48046875 178.7109375 C-163.35442279 180.24705377 -169.96456228 180.31508565 -175.73046875 178.26953125 C-180.72392375 175.17358915 -184.67001297 170.84534016 -186.85546875 165.33203125 C-187.73667122 158.31951479 -187.80917509 151.87781523 -183.48828125 146.05078125 C-178.96914564 141.2937964 -174.3236995 137.53212149 -167.60546875 137.14453125 C-160.26194368 137.5117075 -155.85629305 139.52505699 -150.5234375 144.4453125 C-148.37388655 146.87677177 -147.47381695 149.16299671 -146.85546875 152.33203125 C-145.24260986 152.08864014 -145.24260986 152.08864014 -143.59716797 151.84033203 C-138.06461883 151.15272452 -132.55620358 151.18866559 -126.98828125 151.19921875 C-125.3143782 151.19778366 -125.3143782 151.19778366 -123.60665894 151.19631958 C-121.26186059 151.1956421 -118.91706032 151.19746611 -116.57226562 151.20166016 C-112.97131193 151.20704494 -109.37048125 151.201685 -105.76953125 151.1953125 C-103.48828097 151.19597276 -101.20703077 151.19725285 -98.92578125 151.19921875 C-97.84563751 151.19719452 -96.76549377 151.19517029 -95.65261841 151.19308472 C-94.65753265 151.19623688 -93.6624469 151.19938904 -92.63720703 151.20263672 C-91.75976837 151.20343231 -90.88232971 151.20422791 -89.978302 151.20504761 C-87.85546875 151.33203125 -87.85546875 151.33203125 -85.85546875 152.33203125 C-85.93796875 151.11515625 -86.02046875 149.89828125 -86.10546875 148.64453125 C-86.08938649 138.43229457 -81.72544708 130.09799225 -76.85546875 121.33203125 C-88.40546875 121.33203125 -99.95546875 121.33203125 -111.85546875 121.33203125 C-112.51546875 122.98203125 -113.17546875 124.63203125 -113.85546875 126.33203125 C-118.07706795 131.39795029 -122.28190197 133.9381704 -128.76171875 134.65234375 C-133.43167288 134.82573314 -136.92729084 134.74455476 -141.23046875 132.83203125 C-146.31157628 127.99288122 -150.37156024 123.3665409 -151.05859375 116.21875 C-151.172251 110.88633056 -150.64133001 107.03317213 -147.85546875 102.33203125 C-143.92522131 98.23489432 -139.57166235 93.93276931 -133.77734375 92.99609375 C-127.96277581 92.89151519 -123.60957566 93.8863025 -118.85546875 97.33203125 C-116.07311402 100.04785141 -113.60010262 102.84276352 -111.85546875 106.33203125 C-101.29546875 106.33203125 -90.73546875 106.33203125 -79.85546875 106.33203125 C-79.52546875 105.67203125 -79.19546875 105.01203125 -78.85546875 104.33203125 C-79.40944336 104.10257812 -79.96341797 103.873125 -80.53417969 103.63671875 C-83.50806706 101.96523641 -85.58025102 99.86676234 -87.99609375 97.45703125 C-88.4819696 96.97306885 -88.96784546 96.48910645 -89.46844482 95.99047852 C-90.49623522 94.96404671 -91.52151385 93.93509446 -92.54443359 92.90380859 C-94.07961965 91.35805823 -95.62498572 89.82308989 -97.171875 88.2890625 C-103.18012981 82.2880693 -108.71946223 76.11501138 -113.85546875 69.33203125 C-116.9783751 69.81781668 -119.85127234 70.33063245 -122.85546875 71.33203125 C-132.37178555 72.08815177 -140.91254566 72.36630369 -148.85546875 66.33203125 C-155.39591565 60.62653502 -159.14727294 53.76375951 -160.26953125 45.15625 C-160.69989936 35.5182695 -158.07468694 28.57467924 -151.60546875 21.45703125 C-144.25717318 14.82946403 -136.52149047 13.3540386 -126.80859375 13.8203125 C-119.29175764 14.79334168 -113.53952367 18.178802 -108.41796875 23.70703125 C-107.53258231 24.89267917 -106.67689767 26.10120849 -105.85546875 27.33203125 C-105.23865234 28.17121094 -105.23865234 28.17121094 -104.609375 29.02734375 C-100.58527362 35.46033626 -101.20551879 43.01631546 -101.85546875 50.33203125 C-102.33641982 51.6670766 -102.82217894 53.00039869 -103.3125 54.33203125 C-103.93778063 56.31798748 -103.93778063 56.31798748 -103.85546875 58.33203125 C-102.05212266 61.37761315 -99.5639086 63.51520796 -96.91796875 65.83203125 C-95.50753438 67.14674429 -94.09865711 68.46312994 -92.69140625 69.78125 C-92.0169043 70.39919434 -91.34240234 71.01713867 -90.64746094 71.65380859 C-88.63263514 73.54071766 -86.81184895 75.52618936 -85.04296875 77.64453125 C-81.6423896 81.70043034 -77.83065512 85.29889133 -73.9921875 88.9375 C-71.8396017 91.34981279 -70.83739617 93.27774871 -69.85546875 96.33203125 C-69.19546875 96.33203125 -68.53546875 96.33203125 -67.85546875 96.33203125 C-67.85546875 82.47203125 -67.85546875 68.61203125 -67.85546875 54.33203125 C-69.50546875 54.00203125 -71.15546875 53.67203125 -72.85546875 53.33203125 C-78.3733641 49.72850776 -81.05075692 45.67372811 -82.85546875 39.33203125 C-83.93907095 32.88105366 -82.92907236 27.93306974 -79.4921875 22.37890625 C-76.34577063 18.44400782 -72.34426813 15.57643094 -67.85546875 13.33203125 C-60.49442906 12.56446985 -54.08012092 13.12365059 -47.85546875 17.33203125 C-42.42003172 22.31018486 -38.96628427 27.08577641 -38.35546875 34.51953125 C-38.5088717 41.57606692 -42.64539392 47.17335351 -47.54296875 51.95703125 C-49.85546875 53.33203125 -49.85546875 53.33203125 -52.85546875 53.33203125 C-52.85546875 67.85203125 -52.85546875 82.37203125 -52.85546875 97.33203125 C-49.55546875 95.35203125 -46.25546875 93.37203125 -42.85546875 91.33203125 C-40.94815884 90.33454371 -39.01470415 89.38270678 -37.04296875 88.51953125 C-35.73392578 87.92205078 -35.73392578 87.92205078 -34.3984375 87.3125 C-29.04591505 85.8312617 -23.39280843 85.75798046 -17.85546875 85.33203125 C-18.18546875 69.82203125 -18.51546875 54.31203125 -18.85546875 38.33203125 C-20.83546875 37.34203125 -22.81546875 36.35203125 -24.85546875 35.33203125 C-26.71875 33.578125 -26.71875 33.578125 -28.16796875 31.76953125 C-28.65910156 31.17011719 -29.15023437 30.57070312 -29.65625 29.953125 C-33.23185128 25.11965747 -32.52689996 19.06502083 -31.85546875 13.33203125 C-29.25164611 6.41330253 -25.15958303 2.01934338 -18.85546875 -1.66796875 C-12.23205421 -3.8757736 -6.20674373 -3.07619698 0 0 Z " fill="#0A2634" transform="translate(401.85546875,126.66796875)"/>
<path d="M0 0 C0.6300293 0.34272949 1.26005859 0.68545898 1.90917969 1.03857422 C16.68898625 9.34238343 26.79932337 21.84273516 31.4375 38.30078125 C32.42748852 43.05135116 32.43268179 47.72684346 32.375 52.5625 C32.38660156 53.53896484 32.39820313 54.51542969 32.41015625 55.52148438 C32.38450244 61.91355944 31.37475934 67.08356111 29 73 C28.62359375 74.051875 28.2471875 75.10375 27.859375 76.1875 C25.14720807 83.06341617 21.92317895 88.49199417 17 94 C16.45472656 94.62648438 15.90945313 95.25296875 15.34765625 95.8984375 C5.22454973 106.80757347 -10.06176582 113.36392408 -24.76171875 114.21875 C-41.38938045 114.7441074 -56.41269051 110.1480663 -69.09765625 99.1875 C-82.02749677 86.83065819 -88.86673792 71.80433095 -89.35595703 53.91748047 C-89.48496086 37.11721229 -85.2472323 23.71818399 -73.46484375 11.34765625 C-54.22443575 -6.97799384 -23.87127957 -12.99773687 0 0 Z " fill="#F7F9FA" transform="translate(420,233)"/>
<path d="M0 0 C6.6 0 13.2 0 20 0 C20.11678841 29.23603165 19.96162288 58.45554333 19.5 87.6875 C19.48804218 88.44501682 19.47608437 89.20253365 19.46376419 89.98300552 C19.31574098 99.32211565 19.16112595 108.66110605 19 118 C17.23928619 118.09310473 15.47715256 118.15962369 13.71484375 118.21484375 C12.73378662 118.25472412 11.75272949 118.29460449 10.74194336 118.33569336 C7.44006829 117.93144813 6.58471411 117.13294533 4.5625 114.5625 C3.35254671 112.72290675 2.16909399 110.86582677 1 109 C-0.41671462 106.95299194 -1.85851253 104.9250728 -3.30249023 102.8972168 C-4.88968364 100.66686631 -6.46072424 98.42570182 -8.03125 96.18359375 C-10.4062518 92.81323111 -12.86128109 89.51877254 -15.375 86.25 C-20.1811273 79.92061924 -24.51623278 73.2918323 -28.89550781 66.6628418 C-32.58559861 61.08689492 -36.34638327 55.60924771 -40.3515625 50.25390625 C-42.31964951 47.56294368 -44.15070524 44.77394213 -46 42 C-46.33 67.08 -46.66 92.16 -47 118 C-53.6 118 -60.2 118 -67 118 C-67 79.39 -67 40.78 -67 1 C-62.71 1 -58.42 1 -54 1 C-51.18286721 4.13014755 -49.27217736 6.62443825 -47.18164062 10.14697266 C-44.83803142 13.822178 -42.02707724 17.1579876 -39.3125 20.5625 C-29.31015533 33.31942553 -19.89088798 46.44503964 -11 60 C-7.7 64.95 -4.4 69.9 -1 75 C-0.67 50.25 -0.34 25.5 0 0 Z " fill="#092432" transform="translate(469,494)"/>
<path d="M0 0 C6.27 0 12.54 0 19 0 C19 38.61 19 77.22 19 117 C7 117 7 117 4.10546875 114.76171875 C3.47253906 113.74722656 2.83960938 112.73273438 2.1875 111.6875 C1.46949219 110.58921875 0.75148438 109.4909375 0.01171875 108.359375 C-0.65214844 107.25078125 -1.31601562 106.1421875 -2 105 C-3.16378765 103.14402493 -4.33029705 101.28975272 -5.5 99.4375 C-6.06332031 98.53 -6.62664063 97.6225 -7.20703125 96.6875 C-9.0453498 93.9320247 -11.04426985 91.46166334 -13.1875 88.9375 C-17.66056082 83.6091839 -21.44952401 77.95271679 -25.25634766 72.13574219 C-29.5566664 65.59029358 -34.0883955 59.23733513 -38.72363281 52.92553711 C-46 42.98822201 -46 42.98822201 -46 40 C-46.66 40 -47.32 40 -48 40 C-48 65.74 -48 91.48 -48 118 C-54.6 118 -61.2 118 -68 118 C-68 79.39 -68 40.78 -68 1 C-65.36 1 -62.72 1 -60 1 C-58.989375 0.979375 -57.97875 0.95875 -56.9375 0.9375 C-52.01870214 2.71663965 -49.96565463 6.84274 -47 11 C-45.48761916 12.9916083 -43.95908445 14.97022 -42.42993164 16.94897461 C-36.31091416 24.87497414 -30.33185467 32.89835587 -24.45068359 41.00195312 C-22.8725994 43.17547063 -21.28966499 45.34541839 -19.70703125 47.515625 C-16.4478674 51.99375455 -13.21189655 56.48784791 -10 61 C-9.55366211 61.62696777 -9.10732422 62.25393555 -8.64746094 62.89990234 C-7.48196344 64.54973286 -6.33402602 66.21192957 -5.1875 67.875 C-4.24970703 69.23238281 -4.24970703 69.23238281 -3.29296875 70.6171875 C-2 73 -2 73 -2 77 C-1.34 77 -0.68 77 0 77 C0 51.59 0 26.18 0 0 Z " fill="#0A2331" transform="translate(571,494)"/>
<path d="M0 0 C0.66 0 1.32 0 2 0 C15.9453125 27.890625 15.9453125 27.890625 16.90771484 29.82275391 C17.71817087 31.43823151 18.5376148 33.04920666 19.36181641 34.65771484 C22.96496587 41.74065847 26.21216885 48.92859403 29.3223877 56.24032593 C36.42633108 72.9216275 43.93439028 89.40911767 51.75 105.76953125 C52.38566895 107.10141479 52.38566895 107.10141479 53.03417969 108.46020508 C53.82231396 110.10658275 54.61439238 111.75108043 55.41113281 113.39331055 C58 118.78274001 58 118.78274001 58 121 C50.74 121 43.48 121 36 121 C33.17715087 114.85615188 30.39389599 108.69600904 27.6875 102.5 C27.17574219 101.3346875 26.66398437 100.169375 26.13671875 98.96875 C25 96 25 96 25 93 C10.48 93 -4.04 93 -19 93 C-19.33 95.31 -19.66 97.62 -20 100 C-21.05078125 102.73828125 -21.05078125 102.73828125 -22.3125 105.3125 C-24.76929336 110.46890933 -26.91871793 115.68116804 -29 121 C-35.93 121 -42.86 121 -50 121 C-49.14765934 115.88595605 -47.87620762 112.01092529 -45.8125 107.375 C-42.03910119 98.67686139 -38.60364812 89.86794684 -35.20770264 81.01812744 C-28.59344818 63.798157 -21.50155472 46.85142806 -14 30 C-13.55221191 28.98873047 -13.10442383 27.97746094 -12.64306641 26.93554688 C-8.62321556 17.86212543 -4.60609157 8.79555173 0 0 Z " fill="#072230" transform="translate(243,491)"/>
<path d="M0 0 C10.13090059 6.23440037 15.90010621 14.68859988 19.59765625 25.78125 C20.82954243 37.73660436 16.6436335 48.22351235 9.59765625 57.78125 C2.7293487 65.508096 -6.35549924 69.3338313 -16.6015625 69.984375 C-28.83598493 70.14877933 -37.40468286 68.43417293 -46.40234375 59.78125 C-55.89377521 49.04639957 -57.12655848 38.59598767 -56.40234375 24.78125 C-55.03737151 16.02789589 -49.46586731 9.03052128 -42.71484375 3.53125 C-29.57646537 -5.51401819 -14.44581553 -7.32860885 0 0 Z " fill="#0B2735" transform="translate(410.40234375,254.21875)"/>
<path d="M0 0 C0 0.66 0 1.32 0 2 C-1.5390625 3.4453125 -1.5390625 3.4453125 -3.625 5.125 C-7.79504914 8.64950772 -10.92234927 12.51175935 -14 17 C-14.75925781 16.65066406 -15.51851563 16.30132813 -16.30078125 15.94140625 C-17.29464844 15.48636719 -18.28851563 15.03132812 -19.3125 14.5625 C-20.29863281 14.11003906 -21.28476562 13.65757812 -22.30078125 13.19140625 C-30.50417315 9.57051692 -42.61959533 9.52148718 -51.25 12.25 C-61.49441631 16.56343845 -66.63715671 23.45221807 -71.01953125 33.3515625 C-74.60992642 43.04992077 -74.06009905 55.19993596 -71 65 C-70.81695312 65.67289063 -70.63390625 66.34578125 -70.4453125 67.0390625 C-67.98963684 74.8911612 -62.22768983 81.17357597 -55 85 C-44.84430958 89.35243875 -34.21146271 89.57213477 -23.9375 85.5625 C-22.91527344 85.11003906 -21.89304687 84.65757812 -20.83984375 84.19140625 C-15.79443456 82.07469401 -15.79443456 82.07469401 -13 82 C-10.17578125 83.8359375 -10.17578125 83.8359375 -7.3125 86.375 C-3.88197262 89.52146863 -3.88197262 89.52146863 0 92 C-1.87203569 97.61610708 -8.89995445 100.31336886 -14 103 C-28.99515922 109.73252046 -44.66568834 109.79777861 -60 104 C-74.17696367 97.87093161 -84.94311029 87.0639655 -90.96484375 72.890625 C-96.71733603 56.82706166 -95.74566223 37.0074495 -88.6418457 21.64624023 C-80.70158208 5.32011922 -69.03684698 -4.10341464 -52 -10 C-32.99636644 -14.22302968 -16.85363374 -8.29860804 0 0 Z " fill="#082532" transform="translate(391,505)"/>
<path d="M0 0 C6.23041609 2.66762068 11.2263008 7.12774826 14.06640625 13.328125 C15.98116912 18.80803212 16.00176214 24.30705007 13.97265625 29.76171875 C11.169673 34.95616693 8.00497437 38.67416753 2.625 41.21875 C-3.30261419 42.98292089 -9.66333823 43.34100014 -15.46875 41.0078125 C-17.47706129 39.80132698 -19.22457398 38.52493274 -21 37 C-21.763125 36.360625 -22.52625 35.72125 -23.3125 35.0625 C-27.77456844 29.6088608 -28.61196216 24.89439273 -28.40625 17.96875 C-27.49993843 11.34570394 -23.96897291 7.53552011 -18.8125 3.5625 C-12.74596767 -0.69451217 -7.36277074 -0.89501571 0 0 Z " fill="#F2F6F8" transform="translate(398,266)"/>
<path d="M0 0 C4.57051085 3.01805705 8.8590789 7.59315781 11.3125 12.5 C11.93034095 18.47246251 11.16989485 21.80396505 7.7421875 26.7421875 C4.35146114 30.91111335 0.16856488 34.07868608 -5.203125 34.87109375 C-12.05817716 35.03757359 -16.45335822 34.03049536 -21.6875 29.5 C-26.28471314 24.54915508 -27.0506923 20.56827747 -26.96484375 13.99609375 C-26.27506096 7.78804861 -21.07319939 3.51244838 -16.6875 -0.5 C-10.98235614 -2.40171462 -5.56017789 -2.26176728 0 0 Z " fill="#C3E0EB" transform="translate(629.6875,487.5)"/>
<path d="M0 0 C4.31181954 2.05402368 7.24381057 4.49821865 9 9 C9.70439351 13.96351704 9.53310707 17.91404116 7.3125 22.4375 C3.68321659 26.45913837 1.5099642 27.8322262 -3.9375 28.4375 C-8.23424153 28.25138878 -10.71979455 26.83290471 -14 24 C-17.67199629 19.84484631 -18.65056281 16.58394168 -18.38671875 11.1796875 C-17.59047431 6.6917643 -15.17789571 4.0096249 -11.8125 1.125 C-7.77961221 -0.48815511 -4.27867968 -0.78991009 0 0 Z " fill="#F2F4F7" transform="translate(516,387)"/>
<path d="M0 0 C4.79765866 2.39882933 7.565249 5.22414226 10 10 C10.75171562 15.07408045 9.76186021 18.84843132 7.328125 23.26171875 C5.02046838 26.28203403 2.60794771 27.08272516 -1 28 C-5.18187845 27.78736211 -8.41566756 27.14489874 -12 25 C-15.14061623 21.47920391 -17.31518038 17.63819265 -17.5625 12.875 C-16.78223186 7.49981949 -14.89395426 4.57829521 -10.75 1.125 C-7.09955682 -0.36836312 -3.84957483 -0.67310837 0 0 Z " fill="#F1F4F6" transform="translate(274,387)"/>
<path d="M0 0 C4.28712087 2.26965223 7.52115655 4.80503416 10 9 C10.61951457 14.5756311 10.26278321 18.26370178 7 23 C3.89624784 25.97051027 1.19165002 27.78112551 -3.0625 28.5625 C-9.01485663 27.42268703 -12.58392612 23.80780768 -16 19 C-17.5547669 15.89046621 -17.28644437 13.43733239 -17 10 C-13.3405068 2.82176333 -8.21863374 -1.17409053 0 0 Z " fill="#F3F6F8" transform="translate(515,156)"/>
<path d="M0 0 C4.38410756 2.19205378 7.13092657 4.43115383 9 9 C9.72310712 15.40466307 8.78233196 18.7865154 5 24 C2.06595026 26.45825789 0.37969196 26.95857906 -3.4375 27.375 C-8.16210761 26.87767288 -11.31658483 25.96693773 -14.484375 22.265625 C-17.53238728 17.84771957 -18.91114497 14.4668698 -18 9 C-13.92717762 1.15604579 -8.57156372 -1.36056567 0 0 Z " fill="#F4F7FA" transform="translate(275,156)"/>
<path d="M0 0 C4.14399322 2.07199661 5.3677832 8.51645037 7.0625 12.625 C7.52205078 13.70652344 7.98160156 14.78804687 8.45507812 15.90234375 C8.89400391 16.95808594 9.33292969 18.01382813 9.78515625 19.1015625 C10.18613525 20.06400879 10.58711426 21.02645508 11.00024414 22.01806641 C12 25 12 25 13 32 C5.08 32 -2.84 32 -11 32 C-9.87527802 25.25166809 -9.87527802 25.25166809 -8.4765625 21.7578125 C-8.1775 21.00113281 -7.8784375 20.24445312 -7.5703125 19.46484375 C-7.25835937 18.69269531 -6.94640625 17.92054688 -6.625 17.125 C-6.01256209 15.58611999 -5.40057964 14.04705864 -4.7890625 12.5078125 C-4.49161133 11.76305664 -4.19416016 11.01830078 -3.88769531 10.25097656 C-2.54666553 6.85045551 -1.27234784 3.42675276 0 0 Z " fill="#BAD6E0" transform="translate(244,533)"/>
<path d="M0 0 C4.57051085 3.01805705 8.8590789 7.59315781 11.3125 12.5 C11.93034095 18.47246251 11.16989485 21.80396505 7.7421875 26.7421875 C4.35146114 30.91111335 0.16856488 34.07868608 -5.203125 34.87109375 C-12.05817716 35.03757359 -16.45335822 34.03049536 -21.6875 29.5 C-26.28471314 24.54915508 -27.0506923 20.56827747 -26.96484375 13.99609375 C-26.27506096 7.78804861 -21.07319939 3.51244838 -16.6875 -0.5 C-10.98235614 -2.40171462 -5.56017789 -2.26176728 0 0 Z M-21.54296875 9.48046875 C-23.62547038 13.15505354 -23.62009646 16.44250942 -22.6875 20.5 C-20.94131365 24.58153314 -18.72716571 27.60082966 -15.375 30.5 C-10.83009672 32.1911268 -6.96284872 32.50346595 -2.53515625 30.55078125 C1.50168166 28.16776893 5.07741081 25.69079224 7.3125 21.5 C8.22495193 16.32074904 8.01481888 12.68516311 5.3125 8.125 C1.19015369 4.51794698 -2.85775586 1.97162402 -8.3125 1.0625 C-14.02834383 2.1154186 -17.98183629 5.01730802 -21.54296875 9.48046875 Z " fill="#0F314C" transform="translate(629.6875,487.5)"/>
<path d="M0 0 C3.73716178 0.87853713 5.13010387 2.29902003 7.16015625 5.5078125 C7.90859858 8.69157104 7.96431706 11.33137731 7.16015625 14.5078125 C4.12393229 18.1364704 2.25291875 19.31609978 -2.40234375 20.1328125 C-6.69891582 19.35161758 -8.12986458 17.85543382 -10.83984375 14.5078125 C-12.29132278 11.60485445 -12.212234 9.73519471 -11.83984375 6.5078125 C-8.73817728 1.10490961 -6.27696217 -0.48203716 0 0 Z " fill="#072A42" transform="translate(393.83984375,276.4921875)"/>
<path d="M0 0 C4.29085983 0.87568568 6.18527073 2.33673797 9.0625 5.625 C9.9322759 8.74015481 9.64525601 10.2873974 9.0625 13.625 C6.34957652 16.9133921 4.71433071 17.53351499 0.5 18.125 C-3.44765385 17.5507958 -4.55390965 16.74200276 -6.9375 13.625 C-8.38180855 10.73638291 -8.31438506 8.82852299 -7.9375 5.625 C-5.50679333 2.33639686 -4.0299485 0.85743585 0 0 Z " fill="#F0F5F8" transform="translate(440.9375,396.375)"/>
<path d="M0 0 C0.90238747 2.70716242 1.11851302 4.23776768 1.09765625 7.01171875 C1.09443359 7.76904297 1.09121094 8.52636719 1.08789062 9.30664062 C1.07951172 10.09232422 1.07113281 10.87800781 1.0625 11.6875 C1.05798828 12.48478516 1.05347656 13.28207031 1.04882812 14.10351562 C1.0370585 16.06904257 1.01912348 18.03453085 1 20 C1.99 20 2.98 20 4 20 C4.66 16.7 5.32 13.4 6 10 C8 11 8 11 9.125 14.0625 C9.41375 15.031875 9.7025 16.00125 10 17 C10.66 17 11.32 17 12 17 C12 14.69 12 12.38 12 10 C12.66 9.67 13.32 9.34 14 9 C14 12.63 14 16.26 14 20 C14.99 20.33 15.98 20.66 17 21 C13.41757826 23.68681631 10.49682072 24.5475258 5.98828125 24.34375 C1.05945986 23.49161585 -1.4948104 20.67801763 -4.375 16.8125 C-6.51744277 12.6531132 -6.74280843 8.58065197 -6 4 C-4.2375464 0.55901916 -3.93090471 0 0 0 Z " fill="#D4E7F0" transform="translate(613,495)"/>
<path d="M0 0 C3.36552801 0.27050038 5.67144557 1.08463811 8.58984375 2.79296875 C10.52136557 6.15213714 10.26170471 8.47205649 9.625 12.23046875 C9.02734375 14.29296875 9.02734375 14.29296875 7.46484375 16.35546875 C3.91559797 17.72056328 0.76721671 18.1053182 -2.97265625 17.29296875 C-5.93606629 14.77407022 -6.80679635 13.15912601 -7.53515625 9.35546875 C-6.73118499 4.9782919 -4.8595416 0.7217141 0 0 Z " fill="#EFF3F6" transform="translate(338.97265625,396.70703125)"/>
<path d="M0 0 C3 2.0625 3 2.0625 5 5 C5.07003547 8.99202191 4.58571574 11.15396616 2.3125 14.4375 C-0.73568537 16.49708471 -2.38041003 16.51708428 -6 16 C-8.8125 15 -8.8125 15 -11 13 C-12.07211518 10.26344082 -12.37443417 7.91604795 -12 5 C-8.71914333 0.078715 -5.79090106 -1.03408947 0 0 Z " fill="#EEF2F6" transform="translate(552,277)"/>
<path d="M0 0 C4.4297642 0.79102932 5.89210172 1.98974785 8.5 5.625 C9.1875 8.625 9.1875 8.625 8.5 11.625 C5.61440429 14.78541435 3.65546616 16.38919058 -0.5625 17.25 C-4.5924485 16.39256415 -6.06929333 14.91360314 -8.5 11.625 C-9.125 8.625 -9.125 8.625 -8.5 5.625 C-5.89210172 1.98974785 -4.4297642 0.79102932 0 0 Z " fill="#F2F6F8" transform="translate(391.5,137.375)"/>
<path d="M0 0 C3 2.5625 3 2.5625 5 6 C5.06521697 9.84780142 4.86990359 11.96280725 2.375 14.9375 C-1.02619871 16.4590889 -3.31282731 16.51749792 -7 16 C-10 13.9375 -10 13.9375 -12 11 C-12.06944397 7.04169355 -11.5699479 4.85492184 -9.375 1.5625 C-5.97017246 -0.67751812 -3.993101 -0.70054403 0 0 Z " fill="#EAEFF3" transform="translate(445,154)"/>
<path d="M0 0 C3.28761385 0.43834851 4.91833762 1.44523253 7 4 C8.1875 6.1875 8.1875 6.1875 9 8 C9.99 5.69 10.98 3.38 12 1 C13.32 1 14.64 1 16 1 C15.67 7.27 15.34 13.54 15 20 C14.01 20 13.02 20 12 20 C11.67 17.03 11.34 14.06 11 11 C10.67 13.31 10.34 15.62 10 18 C9.34 18 8.68 18 8 18 C7.01 16.02 6.02 14.04 5 12 C4.01 14.97 3.02 17.94 2 21 C1.34 21 0.68 21 0 21 C-0.19592461 17.68794116 -0.38032746 14.37534146 -0.5625 11.0625 C-0.61857422 10.11697266 -0.67464844 9.17144531 -0.73242188 8.19726562 C-0.78076172 7.29814453 -0.82910156 6.39902344 -0.87890625 5.47265625 C-0.9260376 4.64000244 -0.97316895 3.80734863 -1.02172852 2.94946289 C-1 1 -1 1 0 0 Z " fill="#214863" transform="translate(615,494)"/>
<path d="M0 0 C3.5 0.625 3.5 0.625 6.5 2.6875 C8.5 5.625 8.5 5.625 8.625 9.1875 C7.28240253 13.28988116 6.32125828 14.63130003 2.5 16.625 C-1.82414626 16.70086222 -3.73982906 16.32669625 -6.9375 13.375 C-8.67712985 10.31325146 -9.27259539 9.05875729 -8.5 5.625 C-5.87468349 2.04502294 -4.40324127 0.78629308 0 0 Z " fill="#ECF0F4" transform="translate(340.5,153.375)"/>
<path d="M0 0 C2.9375 1.625 2.9375 1.625 5 4 C5.625 6.9375 5.625 6.9375 5 10 C2.9375 12.875 2.9375 12.875 0 15 C-3.99048721 15.63007693 -6.01685857 15.63021887 -9.4375 13.4375 C-11.60396028 10.05782196 -11.56288002 7.94016013 -11 4 C-8.10445004 -0.51705794 -5.12679803 -0.7195506 0 0 Z " fill="#F0F5F8" transform="translate(395,416)"/>
<path d="M0 0 C2.93307135 2.55703656 3.86097012 4.16582071 4.5 8 C3.86671285 11.79972291 2.86795763 13.43393265 0 16 C-2.9375 16.625 -2.9375 16.625 -6 16 C-8.875 13.9375 -8.875 13.9375 -11 11 C-11.63007693 7.00951279 -11.63021887 4.98314143 -9.4375 1.5625 C-6.03280512 -0.61999672 -3.96569988 -0.63734462 0 0 Z " fill="#EEF2F6" transform="translate(239,277)"/>
<path d="M0 0 C4.99268902 1.47931526 4.99268902 1.47931526 6.375 4 C7.13412409 10.83211679 7.13412409 10.83211679 4.75 14.5 C1.61186002 16.48198314 0.02626535 16.67064058 -3.625 16 C-6.94774404 13.54405875 -8.40118008 12.0743356 -9.25 8 C-8.11814245 2.56708374 -5.59993233 0 0 0 Z " fill="#EDF1F5" transform="translate(512.625,233)"/>
<path d="M0 0 C2.875 1.5 2.875 1.5 5 4 C5.69618391 7.00872525 5.45326577 8.82713964 5 12 C3.4375 14 3.4375 14 1 15 C-2.59034613 15.38467994 -5.08597404 15.37498501 -8.4375 14 C-10.46820653 11.40069564 -10.5621101 9.18669274 -10.3828125 5.94140625 C-10 4 -10 4 -8.375 1.5 C-5.25991849 -0.4674199 -3.62829011 -0.5923739 0 0 Z " fill="#EBF0F4" transform="translate(515,323)"/>
<path d="M0 0 C2.9375 0.6875 2.9375 0.6875 5.3125 2.8125 C7.23076913 6.20636077 7.57697837 7.85062978 6.9375 11.6875 C5.3125 14.5625 5.3125 14.5625 2.9375 16.6875 C0 17.3125 0 17.3125 -3.0625 16.6875 C-6.03936069 14.4224973 -7.74793738 12.91429424 -8.6875 9.25 C-7.49713281 4.36949451 -4.95249433 1.11178444 0 0 Z " fill="#EEF2F6" transform="translate(271.0625,321.3125)"/>
<path d="M0 0 C3.47412841 0.77990638 5.0990301 2.02746206 7.21484375 4.8984375 C8.71399627 8.06254742 8.0408495 10.44671729 7.0625 13.6875 C5.875 15.625 5.875 15.625 4.0625 16.6875 C1.1875 17.1875 1.1875 17.1875 -1.9375 16.6875 C-5.26628632 14.22709272 -6.73051948 12.79139613 -7.5 8.6875 C-6.59385038 3.85470203 -4.90697603 1.1484412 0 0 Z " fill="#E8EDF2" transform="translate(269.9375,232.3125)"/>
<path d="M0 0 C3.44065417 1.89906237 6.50925966 4.14794612 8.9296875 7.24609375 C8.9296875 8.56609375 8.9296875 9.88609375 8.9296875 11.24609375 C8.2696875 11.24609375 7.6096875 11.24609375 6.9296875 11.24609375 C5.8159375 10.10140625 5.8159375 10.10140625 4.6796875 8.93359375 C0.58180561 4.92884554 -2.21532062 3.27553807 -8.0078125 3.18359375 C-12.74400555 4.0017461 -15.97348336 6.67218552 -19.0703125 10.24609375 C-21.16776868 13.81035206 -21.59779833 17.15097094 -22.0703125 21.24609375 C-23.0603125 21.57609375 -24.0503125 21.90609375 -25.0703125 22.24609375 C-25.53817084 15.67008487 -25.57217073 11.4587717 -21.0703125 6.24609375 C-15.25129373 -0.21104196 -8.65925974 -3.1532776 0 0 Z " fill="#0C2436" transform="translate(628.0703125,486.75390625)"/>
<path d="M0 0 C3.7339564 2.32335065 6.67346164 4.23808271 9 8 C9.9309975 12.30856983 9.98709943 16.38344586 7.65234375 20.20703125 C6.17782154 21.91859249 4.67930429 23.49062531 3 25 C1.68 24.34 0.36 23.68 -1 23 C-0.01 23 0.98 23 2 23 C1.98839844 22.04738281 1.97679687 21.09476563 1.96484375 20.11328125 C1.95582031 18.85902344 1.94679688 17.60476563 1.9375 16.3125 C1.92589844 15.07113281 1.91429687 13.82976562 1.90234375 12.55078125 C1.98521327 9.53764546 2.29160551 6.91724661 3 4 C2.01 4 1.02 4 0 4 C0 2.68 0 1.36 0 0 Z " fill="#B6D3DD" transform="translate(628,491)"/>
<path d="M0 0 C0.33 0 0.66 0 1 0 C1 3.63 1 7.26 1 11 C1.99 11.33 2.98 11.66 4 12 C-0.49758072 15.37318554 -3.56051935 15.51804578 -9 15 C-11.5 13.5 -11.5 13.5 -13 12 C-11.68 11.67 -10.36 11.34 -9 11 C-8.34 7.7 -7.68 4.4 -7 1 C-5 2 -5 2 -3.875 5.0625 C-3.58625 6.031875 -3.2975 7.00125 -3 8 C-2.34 8 -1.68 8 -1 8 C-1.020625 6.865625 -1.04125 5.73125 -1.0625 4.5625 C-1 1 -1 1 0 0 Z " fill="#DAEDF3" transform="translate(626,504)"/>
<path d="M0 0 C0 4.29 0 8.58 0 13 C-0.99 13.495 -0.99 13.495 -2 14 C-2.33 11.36 -2.66 8.72 -3 6 C-10.26 13.26 -17.52 20.52 -25 28 C-25.33 27.34 -25.66 26.68 -26 26 C-20.81103918 19.88541797 -15.30790255 14.15527094 -9.625 8.5 C-8.80644531 7.67757813 -7.98789062 6.85515625 -7.14453125 6.0078125 C-6.36722656 5.23179687 -5.58992188 4.45578125 -4.7890625 3.65625 C-4.08475098 2.95306641 -3.38043945 2.24988281 -2.65478516 1.52539062 C-1 0 -1 0 0 0 Z " fill="#BDD3DF" transform="translate(334,347)"/>
<path d="M0 0 C0.66 0 1.32 0 2 0 C2 12.54 2 25.08 2 38 C3.32 38 4.64 38 6 38 C6 38.66 6 39.32 6 40 C2.53846154 43 2.53846154 43 0 43 C0 28.81 0 14.62 0 0 Z " fill="#CAE0EA" transform="translate(349,181)"/>
<path d="M0 0 C0.99 0 1.98 0 3 0 C3 13.53 3 27.06 3 41 C2.34 41 1.68 41 1 41 C-0.16661952 36.83595236 -0.12576063 32.8101932 -0.09765625 28.515625 C-0.0962413 27.70003113 -0.09482635 26.88443726 -0.09336853 26.04412842 C-0.08778303 23.44604788 -0.07523321 20.84805437 -0.0625 18.25 C-0.05748312 16.48567833 -0.05292054 14.72135531 -0.04882812 12.95703125 C-0.03781835 8.63798744 -0.02056369 4.31900846 0 0 Z " fill="#C6DCE9" transform="translate(331,182)"/>
<path d="M0 0 C0.99 0.33 1.98 0.66 3 1 C-2.1797626 6.83751024 -7.42190923 12.54059201 -13 18 C-9.7 18.33 -6.4 18.66 -3 19 C-3 19.33 -3 19.66 -3 20 C-7.62 20 -12.24 20 -17 20 C-15.31471507 16.62943015 -14.34869751 15.11253886 -11.77734375 12.6171875 C-11.15666016 12.00746094 -10.53597656 11.39773437 -9.89648438 10.76953125 C-9.25001953 10.14433594 -8.60355469 9.51914063 -7.9375 8.875 C-6.6527607 7.62463926 -5.37010319 6.37213484 -4.08984375 5.1171875 C-3.52128662 4.56659668 -2.95272949 4.01600586 -2.36694336 3.44873047 C-0.89270095 2.02585988 -0.89270095 2.02585988 0 0 Z " fill="#C2D7E1" transform="translate(477,213)"/>
<path d="M0 0 C0.33 0 0.66 0 1 0 C1.09796875 0.58007812 1.1959375 1.16015625 1.296875 1.7578125 C2.49280857 8.00553442 4.20168402 12.66807002 9.25 16.875 C9.8275 17.24625 10.405 17.6175 11 18 C8.9375 18.875 8.9375 18.875 6 19 C2.22715323 16.77600611 -0.52271426 14.34236615 -2 10.1875 C-2 8 -2 8 -1 7 C-0.63239269 4.67182036 -0.29758419 2.3381615 0 0 Z " fill="#1B3B4B" transform="translate(606,501)"/>
<path d="M0 0 C0.33 0.66 0.66 1.32 1 2 C-2.57452735 4.34897511 -4.63431305 5.12686261 -9 6 C-9 12.6 -9 19.2 -9 26 C-9.33 26 -9.66 26 -10 26 C-10.33 19.4 -10.66 12.8 -11 6 C-11.66 5.67 -12.32 5.34 -13 5 C-8.55011262 1.27171598 -5.82569178 -0.15745113 0 0 Z " fill="#B6D3E3" transform="translate(624,489)"/>
<path d="M0 0 C1.32 0 2.64 0 4 0 C3.67 6.27 3.34 12.54 3 19 C2.34 19 1.68 19 1 19 C1 15.37 1 11.74 1 8 C0.01 8 -0.98 8 -2 8 C-1.125 2.25 -1.125 2.25 0 0 Z " fill="#0E2338" transform="translate(627,495)"/>
<path d="M0 0 C11.88 0 23.76 0 36 0 C34.68 1.65 33.36 3.3 32 5 C31.34 5 30.68 5 30 5 C29.67 4.01 29.34 3.02 29 2 C24.54172074 1.9421696 20.0835372 1.90646145 15.625 1.875 C14.35398437 1.85824219 13.08296875 1.84148437 11.7734375 1.82421875 C9.95585937 1.81455078 9.95585937 1.81455078 8.1015625 1.8046875 C6.98088379 1.79421387 5.86020508 1.78374023 4.70556641 1.77294922 C1.85022157 1.71944677 1.85022157 1.71944677 0 4 C0 2.68 0 1.36 0 0 Z " fill="#D8E9F0" transform="translate(290,334)"/>
<path d="M0 0 C0.33 0 0.66 0 1 0 C1 13.53 1 27.06 1 41 C0.01 40.01 -0.98 39.02 -2 38 C-1.84769273 35.94277927 -1.66765081 33.88458403 -1.36376953 31.84423828 C-0.60538682 25.91460165 -0.61698952 19.90773323 -0.4375 13.9375 C-0.39420372 12.58136984 -0.35058634 11.22524989 -0.30664062 9.86914062 C-0.2012789 6.57951329 -0.09915048 3.28981941 0 0 Z " fill="#CCE4F0" transform="translate(431,182)"/>
<path d="M0 0 C0 4.29 0 8.58 0 13 C-0.99 13.495 -0.99 13.495 -2 14 C-2.33 11.36 -2.66 8.72 -3 6 C-5.97 8.475 -5.97 8.475 -9 11 C-9.66 10.67 -10.32 10.34 -11 10 C-9.35718838 8.33035479 -7.71067239 6.6643536 -6.0625 5 C-5.14597656 4.071875 -4.22945313 3.14375 -3.28515625 2.1875 C-1 0 -1 0 0 0 Z " fill="#D3E3EF" transform="translate(334,347)"/>
<path d="M0 0 C2.0625 0.4375 2.0625 0.4375 4 1 C4.33 2.32 4.66 3.64 5 5 C4.34 5 3.68 5 3 5 C3 7.97 3 10.94 3 14 C2.01 14.495 2.01 14.495 1 15 C0.63911385 12.68853911 0.28645809 10.37579171 -0.0625 8.0625 C-0.25972656 6.77472656 -0.45695313 5.48695313 -0.66015625 4.16015625 C-0.82837891 2.59587891 -0.82837891 2.59587891 -1 1 C-0.67 0.67 -0.34 0.34 0 0 Z " fill="#092643" transform="translate(615,494)"/>
<path d="M0 0 C0.66 0 1.32 0 2 0 C2.226875 1.051875 2.45375 2.10375 2.6875 3.1875 C3.82729173 7.19698013 5.86455166 9.23781932 9 12 C10.33333333 13.33333333 11.66666667 14.66666667 13 16 C12.67 16.66 12.34 17.32 12 18 C9.79340372 15.95508106 7.61114955 13.89193564 5.4375 11.8125 C4.49487305 10.9452832 4.49487305 10.9452832 3.53320312 10.06054688 C1.85413821 8.43653327 0.33556985 6.91755001 -1 5 C-0.90234375 2.07421875 -0.90234375 2.07421875 0 0 Z " fill="#C8DDEA" transform="translate(298,180)"/>
<path d="M0 0 C2.21368294 2.21368294 3.86552921 3.93016625 4.265625 7.11328125 C4.25166986 9.07746787 4.13286356 11.0402625 4 13 C3.34 12.34 2.68 11.68 2 11 C1.34 11.66 0.68 12.32 0 13 C-0.19551338 11.39679026 -0.38111983 9.79237014 -0.5625 8.1875 C-0.71912109 6.84751953 -0.71912109 6.84751953 -0.87890625 5.48046875 C-1 3 -1 3 0 0 Z " fill="#30536A" transform="translate(637,495)"/>
<path d="M0 0 C2 2 2 2 2 4.6875 C0.69373616 9.01449898 -1.64258597 11.98990466 -5 15 C-5.66 15 -6.32 15 -7 15 C-6.0379068 12.85379208 -5.3252933 11.27107775 -3.5 9.75 C-1.06496462 6.90912539 -0.77227165 3.62373619 0 0 Z " fill="#09213B" transform="translate(638,504)"/>
<path d="M0 0 C8.91 0 17.82 0 27 0 C27 0.33 27 0.66 27 1 C26.32420898 1.01458252 25.64841797 1.02916504 24.95214844 1.04418945 C21.88419478 1.11875411 18.81731924 1.21538655 15.75 1.3125 C14.15478516 1.34633789 14.15478516 1.34633789 12.52734375 1.38085938 C10.99013672 1.4340332 10.99013672 1.4340332 9.421875 1.48828125 C8.47924805 1.51446533 7.53662109 1.54064941 6.56542969 1.56762695 C3.6284586 2.06261894 2.20826197 3.04845984 0 5 C0 3.35 0 1.7 0 0 Z " fill="#D1E3F1" transform="translate(468,293)"/>
<path d="M0 0 C0.99 0.33 1.98 0.66 3 1 C2.195625 1.86625 1.39125 2.7325 0.5625 3.625 C-1.96924136 6.62876093 -2.71657376 9.03203262 -3 13 C-3.66 12.67 -4.32 12.34 -5 12 C-5.35338623 9.03155565 -5.5417682 6.84401782 -3.88671875 4.265625 C-2.64496832 2.79651181 -1.32662082 1.39295186 0 0 Z " fill="#1C3041" transform="translate(387,277)"/>
<path d="M0 0 C2 1 2 1 3.125 4.0625 C3.41375 5.031875 3.7025 6.00125 4 7 C3.01 7.33 2.02 7.66 1 8 C-0.69882448 10.49759982 -0.69882448 10.49759982 -2 13 C-3.32 12.34 -4.64 11.68 -6 11 C-4.68 10.67 -3.36 10.34 -2 10 C-1.34 6.7 -0.68 3.4 0 0 Z " fill="#B2D3E3" transform="translate(619,505)"/>
<path d="M0 0 C1.75 1.375 1.75 1.375 3 3 C3 4.32 3 5.64 3 7 C1 7 1 7 -1.375 4.6875 C-2.24125 3.800625 -3.1075 2.91375 -4 2 C-5.31175986 0.97186389 -6.6369893 -0.04084432 -8 -1 C-4.5869878 -2.21893293 -3.03675594 -1.95919738 0 0 Z " fill="#12344A" transform="translate(634,491)"/>
<path d="M0 0 C1.98 0 3.96 0 6 0 C4.515 1.485 4.515 1.485 3 3 C5.64 5.64 8.28 8.28 11 11 C10.67 11.66 10.34 12.32 10 13 C6.37 9.37 2.74 5.74 -1 2 C-0.67 1.34 -0.34 0.68 0 0 Z " fill="#C4DAE9" transform="translate(459,335)"/>
<path d="M0 0 C2.3125 -0.25 2.3125 -0.25 5 0 C6.97610386 2.04424538 8 3.1176825 8 6 C5.21788056 5.62403791 3.4120716 5.32681541 1.1875 3.5625 C0 2 0 2 0 0 Z " fill="#0E1A29" transform="translate(317,225)"/>
<path d="M0 0 C2.97 0.495 2.97 0.495 6 1 C6 4.63 6 8.26 6 12 C5.67 12 5.34 12 5 12 C4.67 9.03 4.34 6.06 4 3 C3.67 5.31 3.34 7.62 3 10 C2.34 9.67 1.68 9.34 1 9 C1.33 7.02 1.66 5.04 2 3 C1.34 3 0.68 3 0 3 C0 2.01 0 1.02 0 0 Z " fill="#2F546F" transform="translate(622,502)"/>
<path d="M0 0 C0.99 0.99 1.98 1.98 3 3 C-3.27 2.67 -9.54 2.34 -16 2 C-16 1.67 -16 1.34 -16 1 C-10.60677167 0.22953881 -5.44771574 -0.36933666 0 0 Z " fill="#A5C3D0" transform="translate(364,492)"/>
<path d="M0 0 C0.86625 0.37125 0.86625 0.37125 1.75 0.75 C0.76 1.41 -0.23 2.07 -1.25 2.75 C-1.559375 3.430625 -1.86875 4.11125 -2.1875 4.8125 C-3.25 6.75 -3.25 6.75 -5.375 7.5 C-6.303125 7.62375 -6.303125 7.62375 -7.25 7.75 C-6.66524269 3.65669884 -4.62230386 -0.51358932 0 0 Z " fill="#091C29" transform="translate(613.25,489.25)"/>
<path d="M0 0 C0 0.66 0 1.32 0 2 C-0.56847656 1.86722656 -1.13695312 1.73445312 -1.72265625 1.59765625 C-6.47151097 0.5115242 -11.16780324 -0.38312382 -16 -1 C-16 -1.33 -16 -1.66 -16 -2 C-10.70532818 -3.70795865 -4.90913529 -2.45456765 0 0 Z " fill="#AFC8D7" transform="translate(420,214)"/>
<path d="M0 0 C1.485 0.99 1.485 0.99 3 2 C3.99 1.67 4.98 1.34 6 1 C4.71480435 3.86697492 3.42870746 5.97607712 1 8 C0.34 8 -0.32 8 -1 8 C-0.67 5.36 -0.34 2.72 0 0 Z " fill="#C4D4DD" transform="translate(447,216)"/>
<path d="M0 0 C-1.38188453 3.21043882 -2.92421903 5.04936365 -5.625 7.25 C-6.57246094 8.03117187 -6.57246094 8.03117187 -7.5390625 8.828125 C-8.02117187 9.21484375 -8.50328125 9.6015625 -9 10 C-9 7 -9 7 -7.5390625 5.17578125 C-6.90742188 4.56089844 -6.27578125 3.94601562 -5.625 3.3125 C-4.68527344 2.37857422 -4.68527344 2.37857422 -3.7265625 1.42578125 C-2 0 -2 0 0 0 Z " fill="#142C36" transform="translate(309,353)"/>
<path d="M0 0 C1.70884005 1.62339805 3.37446717 3.29319053 5 5 C5 5.66 5 6.32 5 7 C5.66 7 6.32 7 7 7 C8.0625 8.8125 8.0625 8.8125 9 11 C8.67 11.99 8.34 12.98 8 14 C6.66101601 12.04532248 5.32870953 10.0866421 4 8.125 C3.2575 7.03445313 2.515 5.94390625 1.75 4.8203125 C0 2 0 2 0 0 Z " fill="#C1D7E7" transform="translate(447,537)"/>
<path d="M0 0 C1.69141656 0.08963062 3.37959602 0.24577676 5.0625 0.4375 C6.44115234 0.59025391 6.44115234 0.59025391 7.84765625 0.74609375 C8.55792969 0.82988281 9.26820313 0.91367187 10 1 C10 1.33 10 1.66 10 2 C7.03 2 4.06 2 1 2 C1 5.63 1 9.26 1 13 C0.67 13 0.34 13 0 13 C-0.19397476 11.02145742 -0.38001321 9.0421352 -0.5625 7.0625 C-0.66691406 5.96035156 -0.77132813 4.85820312 -0.87890625 3.72265625 C-0.91886719 2.82417969 -0.95882813 1.92570312 -1 1 C-0.67 0.67 -0.34 0.34 0 0 Z " fill="#A5CBDA" transform="translate(401,493)"/>
<path d="M0 0 C0.66 0.33 1.32 0.66 2 1 C1.57847656 1.47050781 1.15695312 1.94101562 0.72265625 2.42578125 C0.17480469 3.04839844 -0.37304688 3.67101562 -0.9375 4.3125 C-1.48277344 4.92738281 -2.02804687 5.54226563 -2.58984375 6.17578125 C-4.20081559 8.05241958 -4.20081559 8.05241958 -5 11 C-5.99 10.67 -6.98 10.34 -8 10 C-6.34908222 5.70761377 -3.26245434 3.1206085 0 0 Z " fill="#C9DFEB" transform="translate(304,377)"/>
<path d="M0 0 C0.99 0.495 0.99 0.495 2 1 C2.8125 4.3125 2.8125 4.3125 3 8 C2.01 9.32 1.02 10.64 0 12 C0 8.04 0 4.08 0 0 Z " fill="#C7D7E3" transform="translate(422,535)"/>
<path d="M0 0 C3 2 3 2 3.9375 4.375 C5.13726803 7.33913277 6.64439802 8.87995822 9 11 C5.58217544 10.74682781 4.72255923 9.71625376 2.25 7.1875 C0 4 0 4 0 0 Z " fill="#091826" transform="translate(530,292)"/>
<path d="M0 0 C0.33 0 0.66 0 1 0 C3.33846154 7.13846154 3.33846154 7.13846154 1.625 11.5 C1.08875 12.325 0.5525 13.15 0 14 C-0.66 14 -1.32 14 -2 14 C-1.34 9.38 -0.68 4.76 0 0 Z " fill="#A2B9C9" transform="translate(541,166)"/>
<path d="M0 0 C0.98484375 0.00902344 1.9696875 0.01804687 2.984375 0.02734375 C4.10585938 0.04474609 4.10585938 0.04474609 5.25 0.0625 C5.25 0.3925 5.25 0.7225 5.25 1.0625 C4.57453125 1.11148437 3.8990625 1.16046875 3.203125 1.2109375 C2.31109375 1.28570312 1.4190625 1.36046875 0.5 1.4375 C-0.38171875 1.50710938 -1.2634375 1.57671875 -2.171875 1.6484375 C-4.75919794 1.9269951 -4.75919794 1.9269951 -6.890625 3.1640625 C-8.75 4.0625 -8.75 4.0625 -11.75 3.0625 C-8.30305607 -0.38444393 -4.70567242 -0.05601991 0 0 Z " fill="#A4BDC6" transform="translate(269.75,308.9375)"/>
<path d="M0 0 C0 0.33 0 0.66 0 1 C-1.258125 1.103125 -2.51625 1.20625 -3.8125 1.3125 C-7.33449461 1.72721641 -8.60256201 2.36281821 -11 5 C-13.1875 4.6875 -13.1875 4.6875 -15 4 C-9.98010898 -0.11888494 -6.40141012 -0.51211281 0 0 Z " fill="#DAE2E5" transform="translate(275,156)"/>
<path d="M0 0 C3.89193339 0.57658272 6.04539841 2.4999525 9 5 C9.99 5.66 10.98 6.32 12 7 C12 7.66 12 8.32 12 9 C8.98472262 7.59422879 6.4052059 5.93873852 3.75 3.9375 C3.04359375 3.41027344 2.3371875 2.88304687 1.609375 2.33984375 C1.07828125 1.89769531 0.5471875 1.45554687 0 1 C0 0.67 0 0.34 0 0 Z " fill="#CAE0EA" transform="translate(375,585)"/>
<path d="M0 0 C0.66 0 1.32 0 2 0 C2 0.99 2 1.98 2 3 C2.66 3 3.32 3 4 3 C4 4.98 4 6.96 4 9 C3.01 8.34 2.02 7.68 1 7 C0.3125 3.375 0.3125 3.375 0 0 Z " fill="#041939" transform="translate(620,502)"/>
<path d="M0 0 C1.9375 0.6875 1.9375 0.6875 4 2 C4.75 4.625 4.75 4.625 5 7 C4.01 7 3.02 7 2 7 C0.5393715 4.35261084 0 3.10551666 0 0 Z " fill="#132030" transform="translate(357,301)"/>
<path d="M0 0 C0.33 0 0.66 0 1 0 C1.33 4.95 1.66 9.9 2 15 C1.01 15.495 1.01 15.495 0 16 C-0.99 15.34 -1.98 14.68 -3 14 C-2.01 14 -1.02 14 0 14 C0 9.38 0 4.76 0 0 Z " fill="#9EC1CB" transform="translate(630,500)"/>
<path d="M0 0 C0.33 0 0.66 0 1 0 C1 3.3 1 6.6 1 10 C0.01 9.67 -0.98 9.34 -2 9 C-1.125 1.125 -1.125 1.125 0 0 Z " fill="#AED8EB" transform="translate(626,504)"/>
<path d="M0 0 C3.73487777 0.4979837 5.81237635 0.87491756 9 3 C9 3.66 9 4.32 9 5 C5.22454612 3.90931332 2.52956528 3.0916909 0 0 Z " fill="#B2D1E2" transform="translate(375,497)"/>
<path d="M0 0 C0.33 0.99 0.66 1.98 1 3 C-1.97 5.475 -1.97 5.475 -5 8 C-5.66 7.67 -6.32 7.34 -7 7 C-4.69 4.69 -2.38 2.38 0 0 Z " fill="#C6DFE9" transform="translate(330,350)"/>
<path d="M0 0 C0.66 0 1.32 0 2 0 C2 0.66 2 1.32 2 2 C5.63 2 9.26 2 13 2 C13 2.33 13 2.66 13 3 C8.38 3 3.76 3 -1 3 C-0.67 2.01 -0.34 1.02 0 0 Z " fill="#D1E6F2" transform="translate(461,230)"/>
<path d="M0 0 C0.66 0.33 1.32 0.66 2 1 C2.625 3.5625 2.625 3.5625 3 6 C1.68 5.67 0.36 5.34 -1 5 C-1.33 5.99 -1.66 6.98 -2 8 C-1.125 2.25 -1.125 2.25 0 0 Z " fill="#B2C9D4" transform="translate(244,533)"/>
<path d="M0 0 C0.99 0 1.98 0 3 0 C3 2.64 3 5.28 3 8 C0.37613513 4.93882432 0 4.26826873 0 0 Z " fill="#193C59" transform="translate(638,500)"/>
<path d="M0 0 C0.66 0.66 1.32 1.32 2 2 C1.96712417 4.72869407 1.43602229 7.2966618 1 10 C0.34 9.34 -0.32 8.68 -1 8 C-0.96712417 5.27130593 -0.43602229 2.7033382 0 0 Z " fill="#182C3C" transform="translate(243,390)"/>
<path d="M0 0 C0.33 0.99 0.66 1.98 1 3 C-1.3125 4.5625 -1.3125 4.5625 -4 6 C-4.99 5.67 -5.98 5.34 -7 5 C-4.69 3.35 -2.38 1.7 0 0 Z " fill="#19343F" transform="translate(431,332)"/>
<path d="M0 0 C0.99 0.33 1.98 0.66 3 1 C-0.465 3.97 -0.465 3.97 -4 7 C-3.04065919 3.16263678 -2.76390737 2.40339772 0 0 Z " fill="#071D29" transform="translate(500,224)"/>
<path d="M0 0 C0 0.66 0 1.32 0 2 C-3.3 2 -6.6 2 -10 2 C-3.6 -1.2 -3.6 -1.2 0 0 Z " fill="#C7E2E9" transform="translate(384,210)"/>
<path d="M0 0 C3.34373475 0.55728913 6.03312999 1.35173889 9 3 C9 3.66 9 4.32 9 5 C5.22454612 3.90931332 2.52956528 3.0916909 0 0 Z " fill="#1E313F" transform="translate(396,265)"/>
</svg>
