<?xml version="1.0" encoding="UTF-8"?>
<svg version="1.1" xmlns="http://www.w3.org/2000/svg" width="1078" height="296">
<path d="M0 0 C355.74 0 711.48 0 1078 0 C1078 97.68 1078 195.36 1078 296 C722.26 296 366.52 296 0 296 C0 198.32 0 100.64 0 0 Z " fill="#C1D1DA" transform="translate(0,0)"/>
<path d="M0 0 C4.42162726 2.29056881 7.97026599 4.92053715 10.20703125 9.4375 C11.53494779 13.72869829 11.89157327 17.57565144 11 22 C9.10380567 25.17937241 6.92265998 27.72483989 4 30 C2.02 30.495 2.02 30.495 0 31 C0 42.88 0 54.76 0 67 C3.3 67.33 6.6 67.66 10 68 C13.01392231 69.09668901 15.75806335 70.18887286 18.625 71.5625 C19.34300781 71.89185547 20.06101563 72.22121094 20.80078125 72.56054688 C22.5399548 73.36056671 24.27093062 74.17837026 26 75 C25.98056597 70.6574463 25.92881355 66.31682902 25.84741211 61.97509766 C25.82425149 60.49897288 25.80984085 59.02268331 25.80444336 57.54638672 C25.79513816 55.42050737 25.7541254 53.29721232 25.70703125 51.171875 C25.68346558 49.2552002 25.68346558 49.2552002 25.65942383 47.29980469 C25.29760723 43.84512834 25.29760723 43.84512834 22.6003418 41.71191406 C21.742229 41.14698242 20.88411621 40.58205078 20 40 C15.86501781 35.4179927 15.36654431 31.57782192 15.625 25.6171875 C16.28965958 20.97841751 18.22183242 18.50923478 21.73046875 15.53125 C26.74269442 11.92965072 30.9311498 11.16977194 37 12 C41.7047546 12.89614373 44.60809327 16.00841002 47.61328125 19.57421875 C50.40882641 24.46445408 49.68510458 29.99762991 48.46875 35.328125 C48.3140625 35.87984375 48.159375 36.4315625 48 37 C47.34 37 46.68 37 46 37 C45.62875 37.8971875 45.62875 37.8971875 45.25 38.8125 C43.80807503 41.33586869 42.47450374 42.50030076 40 44 C39.01 44 38.02 44 37 44 C37.33 54.23 37.66 64.46 38 75 C45.4416279 68.40773234 45.4416279 68.40773234 51.95703125 61.27734375 C53.62708658 59.41569507 55.31958936 57.7156948 57.13671875 56.00390625 C57.68996826 55.47700195 58.24321777 54.95009766 58.81323242 54.40722656 C59.92244893 53.35853612 61.0435264 52.32222637 62.17700195 51.29980469 C63.93516421 49.69041375 63.93516421 49.69041375 66 47 C65.96606263 44.47943263 65.96606263 44.47943263 65 42 C64.08209735 28.05494046 64.08209735 28.05494046 68 22 C74.22081501 15.48463882 78.20210408 12.91676292 87.1875 12.5625 C94.07965185 12.63203965 97.99978529 14.34116541 103 19 C103.62132812 19.556875 104.24265625 20.11375 104.8828125 20.6875 C108.65558656 24.75858643 109.4813084 28.36980764 109.75 33.875 C109.42849419 40.85092836 107.57395017 45.72697447 103 51 C97.84443454 55.6987432 93.39446531 57.14867981 86.5 57.1875 C85.3553125 57.20167969 84.210625 57.21585938 83.03125 57.23046875 C80 57 80 57 77 55 C73.83476127 55.3302354 72.20518366 56.42390641 70.01171875 58.66015625 C69.47361572 59.20269043 68.9355127 59.74522461 68.38110352 60.30419922 C67.82221436 60.88443848 67.2633252 61.46467773 66.6875 62.0625 C66.10863037 62.65305176 65.52976074 63.24360352 64.93334961 63.85205078 C60.79505136 68.10137796 56.81505843 72.45783631 53 77 C51.02 79.31 49.04 81.62 47 84 C55.58 84 64.16 84 73 84 C73.66 82.35 74.32 80.7 75 79 C78.39639794 75.17905231 80.67095911 73.64833937 85.8125 73.3125 C91.52183868 73.60617249 95.96526898 75.9913556 100 80 C102.34196317 84.64663394 102.70112207 88.89057294 102 94 C100.64554911 97.93252504 98.42380673 100.60646518 95.375 103.4375 C90.80452212 105.55346198 86.95623503 105.81262944 82 105 C78.14455202 103.00342873 76.40194908 101.60292362 74 98 C74 97.01 74 96.02 74 95 C64.76 95.33 55.52 95.66 46 96 C46.99 97.32 47.98 98.64 49 100 C52.15976447 106.68411715 53.04283819 111.66610257 53 119 C59.63912536 118.98374861 66.2771301 118.92904861 72.91577148 118.84741211 C75.17481215 118.82419333 77.43396166 118.80982735 79.69311523 118.80444336 C82.93803039 118.79518235 86.18122428 118.754253 89.42578125 118.70703125 C90.43836502 118.7109639 91.45094879 118.71489655 92.49421692 118.71894836 C95.09341991 118.66467628 97.46561231 118.57962663 100 118 C102.16414189 115.73935181 102.16414189 115.73935181 103 113 C105.17832979 110.31897872 106.38159568 109.16961947 109.734375 108.25 C116.45906601 107.69251266 121.55920594 107.68398548 127 112 C130.08921079 115.3209016 131.25478108 117.9227439 131.5 122.375 C131.20449644 128.03722957 129.37506931 132.46495193 125.4921875 136.609375 C121.57987851 139.84840291 118.17857147 140.67248239 113.140625 140.35546875 C108.51710867 139.58769505 105.77511424 137.83630747 102.625 134.4375 C101 132 101 132 101 130 C84.83 130 68.66 130 52 130 C52 132.97 52 135.94 52 139 C51.34375 142.06640625 51.34375 142.06640625 50.5 144.5625 C50.08234375 145.83287109 50.08234375 145.83287109 49.65625 147.12890625 C49.4396875 147.74636719 49.223125 148.36382812 49 149 C53.20952387 148.97712703 57.4163562 148.89971419 61.625 148.8125 C62.81480469 148.80669922 64.00460938 148.80089844 65.23046875 148.79492188 C72.49839783 148.79304939 72.49839783 148.79304939 78.7109375 145.51171875 C79.46632812 144.68285156 80.22171875 143.85398438 81 143 C84.29345645 141.35327178 87.45501559 141.36202318 91 142 C95.26956349 144.02278207 99.05246207 146.13780401 101.23828125 150.43359375 C102.78426617 155.64237371 102.69666923 160.84211989 100.75 165.9375 C99.01858135 168.96748264 98.2710303 169.98485266 95 171 C95 171.66 95 172.32 95 173 C91.04626902 174.97686549 86.30934862 174.42666818 82 174 C76.55459318 171.52481508 74.50871831 168.21041495 72 163 C72 162.34 72 161.68 72 161 C58.635 161.495 58.635 161.495 45 162 C47.2584375 164.2275 47.2584375 164.2275 49.5625 166.5 C52.68961516 169.61833113 55.71317391 172.75150543 58.5625 176.125 C61.73141189 179.84339068 65.2587917 182.98820836 68.984375 186.140625 C70.95287359 187.9565268 72.46884466 189.80986641 74 192 C74.66257813 191.84144531 75.32515625 191.68289062 76.0078125 191.51953125 C82.86857762 190.3283018 92.86799998 189.24806097 99.1875 192.625 C104.41703934 197.04105544 107.91865767 201.42734 110 208 C110.22570623 211.35124679 110.1821168 214.64770179 110 218 C109.34 218 108.68 218 108 218 C107.9175 218.70125 107.835 219.4025 107.75 220.125 C106.608693 224.50001015 104.6619726 227.98435008 100.75 230.375 C100.1725 230.58125 99.595 230.7875 99 231 C99 231.66 99 232.32 99 233 C92.18048436 235.54963873 84.49976122 236.71486963 77.51953125 234.0546875 C73.55961029 231.69210801 70.52847645 228.89806785 68 225 C68 224.34 68 223.68 68 223 C67.34 223 66.68 223 66 223 C63.27900516 216.87776161 62.84522058 209.01921136 64.70117188 202.55957031 C65.26754116 199.98557452 65.26754116 199.98557452 63.8034668 198.03051758 C62.88561401 197.09695435 62.88561401 197.09695435 61.94921875 196.14453125 C61.27439453 195.44400635 60.59957031 194.74348145 59.90429688 194.02172852 C59.17275391 193.29268311 58.44121094 192.5636377 57.6875 191.8125 C56.95724609 191.060896 56.22699219 190.30929199 55.47460938 189.53491211 C50.60470507 184.54089617 45.65980274 179.61293585 40.625 174.78515625 C39 173 39 173 39 171 C38.34 171 37.68 171 37 171 C37 180.9 37 190.8 37 201 C38.32 201.33 39.64 201.66 41 202 C44.00097357 203.51601977 46.06918707 205.23737471 48 208 C49.4381062 213.6946115 49.64738592 218.94994459 47.875 224.5625 C44.47156554 228.9869648 40.25693148 232.43262835 34.66796875 233.40625 C29.91664345 233.58582765 26.81153909 233.4154281 23.0625 230.3125 C22.00916686 229.23929265 20.98402352 228.13709385 20 227 C19.360625 226.278125 18.72125 225.55625 18.0625 224.8125 C15.92920185 219.16553431 16.23460583 213.21561469 18.1875 207.5625 C20 205 20 205 22.5690918 203.23339844 C25.24821125 201.19784576 25.24821125 201.19784576 25.65942383 198.06738281 C25.67513428 196.95717773 25.69084473 195.84697266 25.70703125 194.703125 C25.73603516 193.49785156 25.76503906 192.29257813 25.79492188 191.05078125 C25.80072266 189.79652344 25.80652344 188.54226562 25.8125 187.25 C25.83763672 185.98027344 25.86277344 184.71054688 25.88867188 183.40234375 C25.94758965 180.26791799 25.9838375 177.13489042 26 174 C25.13117188 174.40992188 24.26234375 174.81984375 23.3671875 175.2421875 C22.21476563 175.78101563 21.06234375 176.31984375 19.875 176.875 C18.73804688 177.40867188 17.60109375 177.94234375 16.4296875 178.4921875 C10.31659863 181.1797186 6.91421949 182 0 182 C0 193.22 0 204.44 0 216 C2.97 216.99 2.97 216.99 6 218 C10.28839103 222.52019595 11.47976221 226.4865379 11.41015625 232.58203125 C10.47428889 238.09919218 6.65120787 241.77119415 2.3125 245 C-2.5432328 246.4658816 -6.98566574 246.91566104 -12 246 C-16.0177096 243.72663407 -18.46295067 240.80557399 -21 237 C-21.63364079 231.48143077 -22.3331707 225.12475605 -19.125 220.3125 C-17.77903748 218.84777608 -16.40659718 217.40659718 -15 216 C-13.68 216 -12.36 216 -11 216 C-11 204.78 -11 193.56 -11 182 C-14.3 182 -17.6 182 -21 182 C-21 181.34 -21 180.68 -21 180 C-23.97 179.67 -26.94 179.34 -30 179 C-30 178.34 -30 177.68 -30 177 C-31.1446875 176.814375 -31.1446875 176.814375 -32.3125 176.625 C-35 176 -35 176 -38 174 C-38.17411103 178.4161699 -38.28079762 182.83146003 -38.375 187.25 C-38.42527344 188.50425781 -38.47554688 189.75851563 -38.52734375 191.05078125 C-38.58213915 194.46636098 -38.57605999 197.6318213 -38 201 C-35.30015454 203.8631741 -35.30015454 203.8631741 -32 205 C-28.7277794 208.61072618 -28.1832843 211.44208348 -27.625 216.1875 C-28.27146646 222.75990905 -31.02358569 227.34626558 -36.0625 231.5625 C-41.11591581 233.91266936 -46.60894041 234.20514427 -52 233 C-56.26447905 230.1327338 -59.3661724 226.90148279 -61 222 C-61.51255795 216.64755061 -61.69236411 212.33697897 -59.1875 207.5 C-58.465625 206.675 -57.74375 205.85 -57 205 C-56.2575 204.071875 -56.2575 204.071875 -55.5 203.125 C-54 202 -54 202 -50 202 C-50 192.1 -50 182.2 -50 172 C-57.69138607 178.72996281 -64.77619834 185.41813184 -71.38671875 193.18359375 C-72.84774885 194.82857921 -74.36765415 196.27953968 -76 197.75 C-76.66 198.4925 -77.32 199.235 -78 200 C-77.99530794 202.10231241 -77.99530794 202.10231241 -77 204 C-75.23459245 210.0178491 -74.95595389 216.45767531 -77.5625 222.25 C-81.24560007 228.66948779 -86.95982017 232.85214853 -94 235 C-100.27316879 235.72967391 -105.49510335 235.32371119 -111 232 C-112.93899966 230.06503153 -114.69720804 228.06512653 -116.421875 225.9375 C-117.89425545 223.98200998 -117.89425545 223.98200998 -119.671875 222.69921875 C-122.95666897 218.49661469 -121.55677877 211.07994346 -121 206 C-118.96921913 200.09719694 -114.19269986 195.3572489 -109 192 C-105.42908766 190.69223167 -101.83108155 190.86695607 -98.0625 190.875 C-96.25458984 190.87113281 -96.25458984 190.87113281 -94.41015625 190.8671875 C-91 191 -91 191 -88.30078125 191.72265625 C-85.91799676 192.26721263 -85.91799676 192.26721263 -84.0078125 190.62890625 C-83.38648438 189.94699219 -82.76515625 189.26507813 -82.125 188.5625 C-81.08279297 187.44101562 -81.08279297 187.44101562 -80.01953125 186.296875 C-77.70614933 183.6657946 -75.41541971 181.01660903 -73.13671875 178.35546875 C-69.6901177 174.5560164 -66.01956209 170.97984709 -62.35473633 167.3918457 C-59.29824107 164.4876065 -59.29824107 164.4876065 -57 161 C-65.91 161 -74.82 161 -84 161 C-84.495 163.97 -84.495 163.97 -85 167 C-86.4375 168.875 -86.4375 168.875 -88 170 C-88.66 170 -89.32 170 -90 170 C-90 170.66 -90 171.32 -90 172 C-94.56707132 174.60375561 -98.85269831 174.92509109 -104 174 C-107.96524671 171.70204167 -110.47810189 168.78284717 -113 165 C-113.62181048 159.73097437 -114.26894994 153.72824236 -111.984375 148.81640625 C-109.35070203 145.63537353 -106.44520975 143.16057886 -102.29296875 142.69921875 C-91.82485405 142.65971643 -91.82485405 142.65971643 -87 146 C-86.57356201 146.52376221 -86.14712402 147.04752441 -85.70776367 147.5871582 C-83.23605896 149.63201241 -81.4078574 149.34123641 -78.23828125 149.29296875 C-77.12001953 149.28330078 -76.00175781 149.27363281 -74.84960938 149.26367188 C-73.68236328 149.23853516 -72.51511719 149.21339844 -71.3125 149.1875 C-70.13365234 149.17396484 -68.95480469 149.16042969 -67.74023438 149.14648438 C-64.82636589 149.11109326 -61.91341055 149.06171809 -59 149 C-59.66 147.9275 -60.32 146.855 -61 145.75 C-63.7739477 140.31931366 -63.35732583 134.95543054 -63 129 C-69.62087483 128.99091708 -76.24032649 129.02815968 -82.86083984 129.09765625 C-85.11305763 129.11582715 -87.36538706 129.12338279 -89.61767578 129.12011719 C-92.85537265 129.11726333 -96.09074915 129.15254593 -99.328125 129.1953125 C-100.83925873 129.1816716 -100.83925873 129.1816716 -102.38092041 129.16775513 C-105.05559068 129.22339271 -107.41154368 129.32229019 -110 130 C-112.63977489 132.79579906 -112.63977489 132.79579906 -114 136 C-118.38477611 139.51157659 -123.3504799 140.66908021 -128.89453125 140.3828125 C-133.54362703 139.53752236 -136.18622333 136.83519184 -139.375 133.5625 C-141.88237476 128.06556302 -142.08980333 122.9253545 -141 117 C-138.39833822 112.37088518 -134.94988439 108.99917661 -130 107 C-124.54555732 106.56710772 -121.47710758 106.61191859 -117 110 C-116.0925 110.639375 -115.185 111.27875 -114.25 111.9375 C-112 114 -112 114 -111 118 C-95.49 118 -79.98 118 -64 118 C-63.67 115.03 -63.34 112.06 -63 109 C-62.09765625 105.8203125 -62.09765625 105.8203125 -61.0625 103.125 C-60.55396484 101.76761719 -60.55396484 101.76761719 -60.03515625 100.3828125 C-59 98 -59 98 -57 95 C-65.91 95 -74.82 95 -84 95 C-84.66 96.65 -85.32 98.3 -86 100 C-88.89217788 103.61522235 -91.47189081 105.06020375 -96 106 C-100.77783311 106.15194522 -103.98339236 105.79069483 -107.8125 102.8125 C-108.534375 101.884375 -109.25625 100.95625 -110 100 C-110.763125 99.071875 -111.52625 98.14375 -112.3125 97.1875 C-114.41898364 93.20858645 -114.7074195 90.40368637 -114 86 C-112.19705637 80.69722461 -108.9604282 76.63298091 -104 74 C-98.55043942 72.87001759 -93.66237285 73.09019295 -88.9375 76.1875 C-85.80478478 78.60022688 -85.64318744 79.89203141 -84 84 C-75.75 84 -67.5 84 -59 84 C-63.25573916 79.1362981 -67.38529678 74.52190071 -72 70.0625 C-76.29283092 65.86802415 -80.07320807 61.59731646 -83.5 56.64453125 C-85.26381324 54.71076725 -86.44703602 54.3686392 -89 54 C-89 54.66 -89 55.32 -89 56 C-95.00143949 57.72487928 -101.69393537 58.31439899 -107.57421875 55.9765625 C-114.03552719 52.00543575 -118.60070855 46.19787435 -121 39 C-121.78500299 31.21035499 -120.10968334 25.42533763 -115.1875 19.25 C-111.80149852 15.19059207 -107.86321788 13.23992713 -102.6328125 12.56640625 C-94.16317908 12.55697459 -88.16571 12.88310691 -82 18.9765625 C-77.34336353 24.14017149 -75.86010191 26.68830458 -75.875 33.75 C-75.87113281 35.56757812 -75.87113281 35.56757812 -75.8671875 37.421875 C-76 41 -76 41 -76.8828125 44.0546875 C-77.28232483 46.89984929 -77.28232483 46.89984929 -75.97607422 48.55664062 C-74.39250251 50.26436268 -72.73442684 51.82083074 -71 53.375 C-69.78864358 54.51901377 -68.57899501 55.66483872 -67.37109375 56.8125 C-66.78569824 57.36035156 -66.20030273 57.90820312 -65.59716797 58.47265625 C-62.49278805 61.44132038 -59.75886998 64.71532186 -57 68 C-55.02 70.31 -53.04 72.62 -51 75 C-50.67 64.77 -50.34 54.54 -50 44 C-51.65 43.34 -53.3 42.68 -55 42 C-60.01190367 36.55850459 -61.62164616 32.16821778 -61.5234375 24.83203125 C-60.62966458 19.99631955 -57.64621909 17.11529211 -54 14 C-49.71525493 11.14350329 -46.02877493 11.39654701 -41 12 C-35.66946023 13.67998272 -32.0509265 16.24055466 -29 21 C-27.64317551 25.07047347 -27.47527746 28.74391717 -28 33 C-29.81570849 36.56416851 -31.24849844 38.51089956 -34.6003418 40.69238281 C-37.32374107 43.31132369 -37.60844024 44.76937737 -37.71894836 48.48455811 C-37.71501572 49.18574768 -37.71108307 49.88693726 -37.70703125 50.609375 C-37.72971321 51.69958954 -37.72971321 51.69958954 -37.75285339 52.81182861 C-37.79571568 55.12486833 -37.80456588 57.43660281 -37.8125 59.75 C-37.83564581 61.32164925 -37.86101135 62.89326748 -37.88867188 64.46484375 C-37.95150834 68.3100111 -37.98385517 72.15436458 -38 76 C-37.34555908 75.58862793 -36.69111816 75.17725586 -36.0168457 74.75341797 C-27.26854948 69.35907798 -27.26854948 69.35907798 -22.1875 68.125 C-21.31480469 67.90070313 -20.44210938 67.67640625 -19.54296875 67.4453125 C-17 67 -17 67 -12 67 C-12 55.12 -12 43.24 -12 31 C-13.65 30.34 -15.3 29.68 -17 29 C-20.40477725 26.12485477 -21.75117411 24.56588707 -22.453125 20.1484375 C-22.66775721 13.97009604 -22.35859722 9.70269701 -18 5 C-16.7625 3.576875 -16.7625 3.576875 -15.5 2.125 C-10.96129142 -1.39106285 -5.39670085 -1.09868814 0 0 Z " fill="#172A37" transform="translate(154,30)"/>
<path d="M0 0 C5.42577894 0.01656726 10.62801602 0.33754172 15.99609375 1.1328125 C16.33640625 2.215625 16.33640625 2.215625 16.68359375 3.3203125 C18.26655301 6.71236806 20.3396818 8.48756195 22.99609375 11.1328125 C25.03922253 13.49903425 26.98949366 15.93491541 28.93359375 18.3828125 C29.46355957 19.04667969 29.99352539 19.71054688 30.53955078 20.39453125 C33.81443411 24.53377399 36.85602642 28.74297415 39.68359375 33.203125 C41.51670031 35.8982281 43.66246693 38.25557788 45.89453125 40.625 C46.99609375 42.1328125 46.99609375 42.1328125 46.99609375 45.1328125 C47.65609375 45.1328125 48.31609375 45.1328125 48.99609375 45.1328125 C48.99609375 45.7928125 48.99609375 46.4528125 48.99609375 47.1328125 C49.98609375 47.4628125 50.97609375 47.7928125 51.99609375 48.1328125 C53.23876953 49.55981445 53.23876953 49.55981445 54.44140625 51.37109375 C54.87839844 52.02658203 55.31539062 52.68207031 55.765625 53.35742188 C56.21292969 54.04642578 56.66023437 54.73542969 57.12109375 55.4453125 C57.57613281 56.12271484 58.03117188 56.80011719 58.5 57.49804688 C60.61961993 60.71521481 62.21354609 63.31933695 62.99609375 67.1328125 C63.65609375 67.1328125 64.31609375 67.1328125 64.99609375 67.1328125 C66.77014262 69.49517843 68.42684722 71.86197767 70.05859375 74.3203125 C71.04806529 75.78392975 72.03765039 77.24747023 73.02734375 78.7109375 C73.52363281 79.45021484 74.01992188 80.18949219 74.53125 80.95117188 C76.69140131 84.16835723 78.86914518 87.37301528 81.05859375 90.5703125 C81.77144531 91.62089844 82.48429688 92.67148438 83.21875 93.75390625 C84.77647877 96.21003002 84.77647877 96.21003002 86.99609375 97.1328125 C88.28515625 99.3125 88.28515625 99.3125 89.62109375 102.0078125 C90.06710937 102.89210938 90.513125 103.77640625 90.97265625 104.6875 C91.99609375 107.1328125 91.99609375 107.1328125 91.99609375 110.1328125 C92.65609375 110.1328125 93.31609375 110.1328125 93.99609375 110.1328125 C93.99609375 73.8328125 93.99609375 37.5328125 93.99609375 0.1328125 C103.23609375 0.1328125 112.47609375 0.1328125 121.99609375 0.1328125 C122.02457635 9.92449678 122.04763869 19.71610307 122.05859375 29.5078125 C122.05944977 30.26720753 122.06030579 31.02660255 122.06118774 31.80900955 C122.09176975 62.73165099 121.82899312 93.64965945 121.49609375 124.5703125 C121.48413593 125.68140129 121.47217812 126.79249008 121.45985794 127.93724823 C121.31150048 141.66917513 121.15685891 155.40102544 120.99609375 169.1328125 C118.41163602 169.2409991 115.83172023 169.32018487 113.24609375 169.3828125 C112.51648438 169.41632813 111.786875 169.44984375 111.03515625 169.484375 C107.44923318 169.5495736 105.45022033 169.48326388 102.56640625 167.2578125 C100.86861482 164.9603037 99.44972676 162.59280683 97.99609375 160.1328125 C96.42380662 158.03508237 94.82294087 155.96356929 93.203125 153.90234375 C91.99609375 152.1328125 91.99609375 152.1328125 91.99609375 150.1328125 C91.00609375 149.8028125 90.01609375 149.4728125 88.99609375 149.1328125 C88.50109375 146.6578125 88.50109375 146.6578125 87.99609375 144.1328125 C87.33609375 144.1328125 86.67609375 144.1328125 85.99609375 144.1328125 C84.76953125 142.26171875 84.76953125 142.26171875 83.37109375 139.6953125 C80.59648428 134.86721731 77.36928255 130.9661191 73.53515625 126.9453125 C71.99609375 125.1328125 71.99609375 125.1328125 71.99609375 123.1328125 C70.51109375 122.6378125 70.51109375 122.6378125 68.99609375 122.1328125 C67.94144726 120.1610821 66.95004211 118.15518302 65.99609375 116.1328125 C65.27421875 115.0603125 64.55234375 113.9878125 63.80859375 112.8828125 C61.99609375 110.1328125 61.99609375 110.1328125 61.99609375 108.1328125 C60.51109375 107.6378125 60.51109375 107.6378125 58.99609375 107.1328125 C58.34385878 105.5537173 57.69916117 103.97114673 57.08984375 102.375 C55.15757138 98.41384165 52.33176067 95.05774496 49.640625 91.5859375 C47.99609375 89.1328125 47.99609375 89.1328125 47.99609375 86.1328125 C47.33609375 86.1328125 46.67609375 86.1328125 45.99609375 86.1328125 C45.99609375 85.4728125 45.99609375 84.8128125 45.99609375 84.1328125 C45.00609375 83.8028125 44.01609375 83.4728125 42.99609375 83.1328125 C41.32630556 80.17857185 40.06894405 77.3513634 38.99609375 74.1328125 C38.33609375 74.1328125 37.67609375 74.1328125 36.99609375 74.1328125 C36.43921875 73.1015625 35.88234375 72.0703125 35.30859375 71.0078125 C33.8212796 68.37969109 32.22321669 66.1016082 30.24609375 63.8203125 C27.99609375 61.1328125 27.99609375 61.1328125 27.99609375 59.1328125 C27.33609375 59.1328125 26.67609375 59.1328125 25.99609375 59.1328125 C25.99609375 95.4328125 25.99609375 131.7328125 25.99609375 169.1328125 C16.42609375 169.1328125 6.85609375 169.1328125 -3.00390625 169.1328125 C-3.02702305 147.24560551 -3.04488435 125.35840145 -3.05571842 103.47118473 C-3.06088185 93.3093175 -3.06792542 83.14745798 -3.0793457 72.9855957 C-3.08929113 64.13187624 -3.09575934 55.27816236 -3.09799474 46.42443746 C-3.09930209 41.73343715 -3.10238946 37.04245281 -3.10963631 32.3514576 C-3.1163943 27.94141998 -3.11852367 23.53140499 -3.11701393 19.12136269 C-3.11729036 17.49793627 -3.11929679 15.87450914 -3.12311172 14.25108719 C-3.12804553 12.044362 -3.12690572 9.83772367 -3.12416077 7.6309967 C-3.12508256 6.39302873 -3.12600435 5.15506075 -3.12695408 3.87957859 C-2.96195337 0.1963088 -2.96195337 0.1963088 0 0 Z " fill="#102330" transform="translate(723.00390625,61.8671875)"/>
<path d="M0 0 C9.24 0 18.48 0 28 0 C28.33 55.77 28.66 111.54 29 169 C23.06 169 17.12 169 11 169 C10.34 167.68 9.68 166.36 9 165 C8.360625 164.360625 7.72125 163.72125 7.0625 163.0625 C4.86469267 160.86469267 3.56555694 158.67449311 2 156 C1.278125 155.13375 0.55625 154.2675 -0.1875 153.375 C-2 151 -2 151 -2 148 C-2.66 148 -3.32 148 -4 148 C-4.495 145.525 -4.495 145.525 -5 143 C-5.66 143 -6.32 143 -7 143 C-8.3671875 141.20703125 -8.3671875 141.20703125 -9.875 138.8125 C-12.60656223 134.58255655 -15.3081935 130.5860686 -19 127.125 C-21.0918348 124.90242553 -22.42312586 122.57814287 -23.87890625 119.91015625 C-25.48978765 117.16548376 -27.41523487 114.7047513 -29.3515625 112.18359375 C-31.79034747 108.95307053 -34.08218297 105.62388298 -36.38671875 102.296875 C-37.44375803 100.79193772 -38.5501219 99.3202155 -39.70703125 97.890625 C-41 96 -41 96 -41 93 C-41.66 93 -42.32 93 -43 93 C-44.2890625 91.3203125 -44.2890625 91.3203125 -45.625 89.125 C-46.07101562 88.40570313 -46.51703125 87.68640625 -46.9765625 86.9453125 C-48 85 -48 85 -48 83 C-48.66 83 -49.32 83 -50 83 C-50 82.34 -50 81.68 -50 81 C-50.66 81 -51.32 81 -52 81 C-53.4375 78.953125 -53.4375 78.953125 -55 76.25 C-55.515625 75.36828125 -56.03125 74.4865625 -56.5625 73.578125 C-58 71 -58 71 -59 68.734375 C-59.94671208 66.648927 -59.94671208 66.648927 -63 66 C-63 64.68 -63 63.36 -63 62 C-63.66 62 -64.32 62 -65 62 C-65.495 59.525 -65.495 59.525 -66 57 C-66.99 57 -67.98 57 -69 57 C-69 93.96 -69 130.92 -69 169 C-78.24 169 -87.48 169 -97 169 C-97 113.56 -97 58.12 -97 1 C-90.73 1 -84.46 1 -78 1 C-74.66033454 4.45098764 -73.73915804 5.86263456 -72 10 C-70.85425102 11.77761512 -69.66551754 13.52819015 -68.4375 15.25 C-67.84839844 16.08917969 -67.25929688 16.92835937 -66.65234375 17.79296875 C-64.65812265 20.45664468 -62.38060479 22.67891033 -60 25 C-56.29166205 29.47472779 -52.96731884 34.00241037 -50 39 C-49.01 39.495 -49.01 39.495 -48 40 C-47.71125 40.969375 -47.4225 41.93875 -47.125 42.9375 C-46.3694174 46.08575661 -46.3694174 46.08575661 -44.13671875 46.91015625 C-41.38565389 48.31335021 -40.38715621 49.93631808 -38.6875 52.5 C-38.08679688 53.39074219 -37.48609375 54.28148437 -36.8671875 55.19921875 C-36.25101563 56.12347656 -35.63484375 57.04773438 -35 58 C-33.77606332 59.77445214 -32.54706666 61.54542712 -31.3125 63.3125 C-30.44625 64.55386719 -30.44625 64.55386719 -29.5625 65.8203125 C-28.36925233 67.484893 -27.10539996 69.09908005 -25.8125 70.6875 C-24.2970307 72.62102979 -23.13281681 74.43249936 -21.9375 76.5625 C-20.16442998 79.88222946 -20.16442998 79.88222946 -18.3125 82.25 C-17 84 -17 84 -16 87 C-15.484375 87.515625 -14.96875 88.03125 -14.4375 88.5625 C-13.963125 89.036875 -13.48875 89.51125 -13 90 C-13 90.66 -13 91.32 -13 92 C-12.34 92 -11.68 92 -11 92 C-9.2734375 94.3359375 -9.2734375 94.3359375 -7.375 97.375 C-6.74335937 98.37273437 -6.11171875 99.37046875 -5.4609375 100.3984375 C-4 103 -4 103 -4 105 C-3.34 105 -2.68 105 -2 105 C-1.98969254 104.27449951 -1.97938507 103.54899902 -1.96876526 102.80151367 C-1.83658914 93.53429379 -1.70096485 84.26712784 -1.5625 75 C-1.55147877 74.26221943 -1.54045753 73.52443886 -1.52910233 72.7643013 C-1.16545004 48.50513287 -0.68873885 24.25239982 0 0 Z " fill="#0F212F" transform="translate(963,62)"/>
<path d="M0 0 C1.828125 0.1953125 1.828125 0.1953125 4 1 C5.484375 3.1796875 5.484375 3.1796875 6.75 5.875 C7.17796875 6.75929688 7.6059375 7.64359375 8.046875 8.5546875 C9 11 9 11 9 14 C9.66 14 10.32 14 11 14 C12.27339482 16.51956743 13.54376642 19.04058649 14.8125 21.5625 C15.16892578 22.26697266 15.52535156 22.97144531 15.89257812 23.69726562 C22 35.85607798 22 35.85607798 22 40 C22.66 40 23.32 40 24 40 C25.974208 44.3292277 27.90782873 48.63877157 29.5 53.125 C30.66998187 56.32043435 32.16457814 59.17565664 33.90234375 62.109375 C37.95434048 69.08861492 41.01205221 76.35498791 43.7890625 83.921875 C44.95710187 87.02535142 44.95710187 87.02535142 46.49609375 89.98828125 C48.04179655 93.08370167 49.24839613 96.1898819 50.4375 99.4375 C51.83910767 103.16662586 53.23595489 106.66050056 55.3125 110.0625 C57 113 57 113 57 117 C57.66 117 58.32 117 59 117 C59.18175781 117.59167969 59.36351562 118.18335938 59.55078125 118.79296875 C60.69035456 122.37531972 61.74522808 125.57538013 63.6875 128.8125 C65 131 65 131 65 135 C65.66 135 66.32 135 67 135 C67.67595315 136.41225926 68.34040059 137.83002905 69 139.25 C69.37125 140.03890625 69.7425 140.8278125 70.125 141.640625 C71 144 71 144 71 148 C71.66 148 72.32 148 73 148 C73.39832031 148.86882812 73.79664063 149.73765625 74.20703125 150.6328125 C74.73683594 151.78523437 75.26664063 152.93765625 75.8125 154.125 C76.33457031 155.26195312 76.85664062 156.39890625 77.39453125 157.5703125 C78.43881156 159.8011595 79.5382802 162.00726457 80.69921875 164.1796875 C82 167 82 167 82 171 C82.66 171 83.32 171 84 171 C84 171.99 84 172.98 84 174 C73.77 174 63.54 174 53 174 C49.14872056 166.51963032 45.62042244 159.36211814 42.90234375 151.39453125 C42.06467364 149.17162313 41.1020914 147.27717297 39.875 145.25 C38 142 38 142 36 135 C15.21 134.67 -5.58 134.34 -27 134 C-27.33 136.97 -27.66 139.94 -28 143 C-28.90164216 145.46765223 -29.85035005 147.65631208 -31 150 C-31.96080079 152.08219653 -32.91885817 154.16565997 -33.875 156.25 C-34.34679687 157.26578125 -34.81859375 158.2815625 -35.3046875 159.328125 C-37.5581107 164.2088112 -39.77548628 169.10606982 -42 174 C-51.57 174 -61.14 174 -71 174 C-70.21849226 169.31095357 -69.48928882 166.43052645 -67.625 162.25 C-65.58455315 157.54759088 -64.01214563 152.93185714 -62.7734375 147.9609375 C-62 146 -62 146 -59 144 C-58.34427282 141.88442748 -58.34427282 141.88442748 -58.0625 139.4375 C-57.16701052 134.17936949 -55.36651242 129.75600069 -53 125 C-52.34 125 -51.68 125 -51 125 C-50.91363281 124.24976563 -50.82726562 123.49953125 -50.73828125 122.7265625 C-49.83952253 116.17964115 -48.3998875 111.00395702 -45.12109375 105.25390625 C-43.9179812 102.83510507 -43.4173261 100.65869551 -43 98 C-42.34 98 -41.68 98 -41 98 C-40.9175 96.989375 -40.835 95.97875 -40.75 94.9375 C-40.25740417 91.49617079 -39.01692935 89.10597718 -37.171875 86.14453125 C-35.08949285 82.33377191 -33.74285768 78.2148531 -32.23046875 74.15234375 C-31.21104303 71.54067214 -30.11213861 69.10349297 -28.8125 66.625 C-27.5600596 64.23442923 -26.81173101 62.33478289 -26.0625 59.6875 C-24.85224894 55.4872169 -23.089682 51.75267037 -21.2421875 47.80078125 C-19.5306466 43.94174092 -18.25480062 40.02857042 -17 36 C-16.34 36 -15.68 36 -15 36 C-14.76216797 35.12601563 -14.76216797 35.12601563 -14.51953125 34.234375 C-11.50117294 23.62843087 -7.04906586 13.77924335 -2 4 C-1.33150873 2.66758053 -0.66423912 1.33454435 0 0 Z " fill="#102330" transform="translate(491,57)"/>
<path d="M0 0 C0.99 0.99 0.99 0.99 2 2 C4.06874034 2.6425235 4.06874034 2.6425235 6 3 C6 3.66 6 4.32 6 5 C6.71542969 5.28617188 7.43085937 5.57234375 8.16796875 5.8671875 C12.4453125 7.578125 16.72265625 9.2890625 21 11 C21 11.66 21 12.32 21 13 C19.53125 14.41015625 19.53125 14.41015625 17.5 16.0625 C11.51794513 21.16108413 5.6265159 26.43881785 3 34 C-1.730455 34 -3.93454576 32.62258515 -7.9765625 30.38671875 C-16.39736506 26.52446435 -24.15474577 25.47843751 -33.375 25.5625 C-34.47537598 25.56572266 -35.57575195 25.56894531 -36.70947266 25.57226562 C-43.702809 25.69264358 -49.50648051 26.31701871 -55.9609375 29.125 C-58 30 -58 30 -61 30 C-61 30.66 -61 31.32 -61 32 C-65.47058824 36 -65.47058824 36 -68 36 C-68.33 36.99 -68.66 37.98 -69 39 C-69.66 39 -70.32 39 -71 39 C-71.2475 39.53625 -71.495 40.0725 -71.75 40.625 C-73 43 -73 43 -75 45.875 C-76.93362349 48.89628671 -78.01939272 51.56787452 -79 55 C-79.66 55 -80.32 55 -81 55 C-81.144375 56.134375 -81.28875 57.26875 -81.4375 58.4375 C-81.51871094 59.07558594 -81.59992187 59.71367188 -81.68359375 60.37109375 C-81.78800781 61.23863281 -81.89242187 62.10617188 -82 63 C-82.08233887 63.60674561 -82.16467773 64.21349121 -82.24951172 64.83862305 C-83.09545196 71.53654226 -83.21893242 78.1919523 -83.25 84.9375 C-83.270625 86.05318359 -83.29125 87.16886719 -83.3125 88.31835938 C-83.37127165 100.8587609 -79.92450661 112.35299259 -71.4375 121.875 C-70.633125 122.57625 -69.82875 123.2775 -69 124 C-67.7315625 125.3303125 -67.7315625 125.3303125 -66.4375 126.6875 C-64.30387276 128.71171046 -62.69176935 129.90335323 -60 131 C-60 131.66 -60 132.32 -60 133 C-58.63875 133.1546875 -58.63875 133.1546875 -57.25 133.3125 C-53.94097424 133.75984344 -50.88743543 134.61898635 -47.6875 135.5625 C-34.87384468 138.80199734 -21.22458313 138.09493278 -9 133 C-6.4925389 131.48176026 -4.31420246 129.81111497 -2 128 C2 128 2 128 4.26171875 130.14453125 C5.16535156 131.08683594 6.06898438 132.02914062 7 133 C10.21027732 135.51310905 13.57352822 137.81964349 16.91210938 140.15820312 C18.64140807 141.39341648 20.32524096 142.691792 22 144 C22 144.66 22 145.32 22 146 C20.35 146.33 18.7 146.66 17 147 C17 147.66 17 148.32 17 149 C16.04738281 149.54269531 15.09476563 150.08539063 14.11328125 150.64453125 C12.84633756 151.36715839 11.57941141 152.08981627 10.3125 152.8125 C9.68666016 153.16892578 9.06082031 153.52535156 8.41601562 153.89257812 C7.80048828 154.24384766 7.18496094 154.59511719 6.55078125 154.95703125 C5.93807373 155.30540039 5.32536621 155.65376953 4.6940918 156.01269531 C3.28479457 156.83402374 1.90719827 157.70945382 0.5390625 158.59765625 C-2.82382002 160.45500213 -6.26948803 161.52153122 -9.9375 162.625 C-10.62779297 162.8415625 -11.31808594 163.058125 -12.02929688 163.28125 C-28.50324977 168.34054928 -45.09445032 167.1979372 -61 161 C-61.83015625 160.71640625 -62.6603125 160.4328125 -63.515625 160.140625 C-68.01738976 158.59421726 -71.94929584 156.44313771 -76 154 C-77.3107567 153.24695742 -78.62321724 152.49687153 -79.9375 151.75 C-80.948125 151.1725 -81.95875 150.595 -83 150 C-83 149.34 -83 148.68 -83 148 C-83.71929688 147.79246094 -84.43859375 147.58492187 -85.1796875 147.37109375 C-88.75250222 145.63417136 -90.73901039 143.13072211 -93.125 140.0625 C-96.1752363 136.1265275 -96.1752363 136.1265275 -99.58984375 132.51953125 C-106.27566239 125.31514496 -109.63646995 113.26369363 -112 104 C-112.17805176 103.38664795 -112.35610352 102.7732959 -112.53955078 102.14135742 C-114.4733508 94.8085319 -114.2941935 87.47617458 -114.25 79.9375 C-114.25713974 78.6009077 -114.26494814 77.26431879 -114.2734375 75.92773438 C-114.25401745 66.23227315 -113.09351232 59.02844991 -109.125 50.125 C-107.3266277 46.08445223 -105.64909876 42.05099644 -104.1875 37.875 C-101.68834966 31.46228657 -97.21950812 26.35176995 -93 21 C-92.34 20.01 -91.68 19.02 -91 18 C-90.34 18 -89.68 18 -89 18 C-89 17.34 -89 16.68 -89 16 C-79.72303219 6.87176113 -68.427934 0.66725921 -56 -3 C-55.34 -3.33 -54.68 -3.66 -54 -4 C-35.43506188 -7.6282404 -17.47826957 -7.76365023 0 0 Z " fill="#132633" transform="translate(683,67)"/>
<path d="M0 0 C0.33 0 0.66 0 1 0 C1 95.37 1 190.74 1 289 C355.75 289 710.5 289 1076 289 C1076 193.63 1076 98.26 1076 0 C1076.66 0 1077.32 0 1078 0 C1078 97.68 1078 195.36 1078 296 C722.26 296 366.52 296 0 296 C0 198.32 0 100.64 0 0 Z " fill="#FFFFFF" transform="translate(0,0)"/>
<path d="M0 0 C6.88327546 4.38963375 11.94244988 9.34326181 15.609375 16.6640625 C16.00253906 17.41816406 16.39570313 18.17226562 16.80078125 18.94921875 C21.39708884 29.31092958 21.5442597 42.28484761 17.76000977 52.9362793 C13.44546813 63.59022301 6.59282944 72.96967169 -3.4765625 78.890625 C-5.390625 79.6640625 -5.390625 79.6640625 -8.390625 79.6640625 C-8.885625 81.1490625 -8.885625 81.1490625 -9.390625 82.6640625 C-14.61807461 85.18504223 -19.96444454 84.99674806 -25.640625 84.9765625 C-26.53136719 84.99267578 -27.42210937 85.00878906 -28.33984375 85.02539062 C-40.62303609 85.03430441 -51.01561298 80.84862604 -59.875 72.25390625 C-69.5091683 61.27806687 -74.28689901 48.30320462 -73.390625 33.6640625 C-71.90603116 20.69487482 -71.90603116 20.69487482 -70.390625 17.6640625 C-69.730625 17.6640625 -69.070625 17.6640625 -68.390625 17.6640625 C-68.2875 16.91898438 -68.184375 16.17390625 -68.078125 15.40625 C-66.17341347 7.80904834 -57.73911364 1.6818464 -51.390625 -2.3359375 C-35.10160658 -11.45963098 -15.65780632 -8.97891154 0 0 Z " fill="#F4F5F7" transform="translate(175.390625,116.3359375)"/>
<path d="M0 0 C6.68507794 4.58438504 10.38111211 9.73861435 12.75 17.4375 C12.8325 18.283125 12.915 19.12875 13 20 C13.08636719 20.62132812 13.17273438 21.24265625 13.26171875 21.8828125 C13.94478038 30.35277668 9.53971481 37.79851451 4.6875 44.5 C1.16044206 47.78098413 -2.54845916 49.29459634 -7 51 C-7.99 51.495 -7.99 51.495 -9 52 C-11.92957281 52.15173086 -14.81945745 52.23145226 -17.75 52.25 C-18.94882813 52.2809375 -18.94882813 52.2809375 -20.171875 52.3125 C-26.17313436 52.35198197 -30.14673305 51.22735266 -34.9765625 47.45703125 C-39.08919367 43.35414565 -41.78135437 39.36260318 -44 34 C-44.35835938 33.20464844 -44.71671875 32.40929687 -45.0859375 31.58984375 C-47.2913037 25.34130617 -46.73479627 17.97195707 -44.1171875 11.9140625 C-40.07671225 4.99156993 -34.1593761 -0.74633824 -26.53125 -3.421875 C-17.41613196 -5.50372295 -8.094023 -4.76366979 0 0 Z " fill="#172A38" transform="translate(165,131)"/>
<path d="M0 0 C1.92005859 0.00580078 1.92005859 0.00580078 3.87890625 0.01171875 C11.6073164 0.66494332 17.41113224 4.90856236 22.47265625 10.6015625 C26.82694036 16.09135808 28.58392802 19.50311914 28.625 26.625 C28.63917969 27.73488281 28.65335938 28.84476563 28.66796875 29.98828125 C28.43083157 33.4086836 27.65858501 36.12223443 26.4375 39.3125 C25.7775 39.3125 25.1175 39.3125 24.4375 39.3125 C24.1075 40.3025 23.7775 41.2925 23.4375 42.3125 C22.4475 42.9725 21.4575 43.6325 20.4375 44.3125 C20.1075 45.3025 19.7775 46.2925 19.4375 47.3125 C17.6953125 48.26171875 17.6953125 48.26171875 15.5625 49 C14.51449219 49.37705078 14.51449219 49.37705078 13.4453125 49.76171875 C11.4375 50.3125 11.4375 50.3125 8.4375 50.3125 C8.4375 50.9725 8.4375 51.6325 8.4375 52.3125 C5.85353321 52.39362454 3.27212432 52.45304748 0.6875 52.5 C-0.04210938 52.52513672 -0.77171875 52.55027344 -1.5234375 52.57617188 C-5.91450009 52.63605 -8.33822258 52.34347542 -11.5625 49.3125 C-12.325625 49.085625 -13.08875 48.85875 -13.875 48.625 C-18.92704882 46.15772035 -22.58802552 41.62567877 -24.75390625 36.484375 C-25.64678678 32.98186779 -25.82834174 29.924416 -25.8125 26.3125 C-25.81765625 25.136875 -25.8228125 23.96125 -25.828125 22.75 C-25.56100304 19.29312755 -24.80130483 16.53732527 -23.5625 13.3125 C-22.9025 13.3125 -22.2425 13.3125 -21.5625 13.3125 C-21.294375 12.714375 -21.02625 12.11625 -20.75 11.5 C-19.56332594 9.31402146 -18.46650887 7.89917406 -16.5625 6.3125 C-15.9025 6.3125 -15.2425 6.3125 -14.5625 6.3125 C-14.2325 5.3225 -13.9025 4.3325 -13.5625 3.3125 C-8.99766382 0.37255272 -5.36746725 -0.07041077 0 0 Z " fill="#C4D7E0" transform="translate(1035.5625,49.6875)"/>
<path d="M0 0 C0.99 0.33 1.98 0.66 3 1 C4.2109375 3.58984375 4.2109375 3.58984375 5.375 6.9375 C6.93039111 11.24546203 8.57739283 15.28124624 10.75 19.3125 C13.00231789 23.62650072 13.73087519 27.15575335 14 32 C14.66 32 15.32 32 16 32 C16 32.66 16 33.32 16 34 C16.66 34 17.32 34 18 34 C18.495 39.94 18.495 39.94 19 46 C7.45 46 -4.1 46 -16 46 C-15 39 -15 39 -14 37 C-13.34 37 -12.68 37 -12 37 C-11.91363281 36.46375 -11.82726562 35.9275 -11.73828125 35.375 C-9.52901527 23.05175491 -5.57597001 11.19939509 0 0 Z " fill="#BED3DD" transform="translate(493,118)"/>
<path d="M0 0 C4.88697218 3.45972338 7.96172272 6.91800686 9.0546875 12.96875 C9.51725372 18.70653949 7.87368862 21.85142919 4.28125 26.2421875 C2.67578125 27.87109375 2.67578125 27.87109375 -0.32421875 29.87109375 C-1.31421875 29.87109375 -2.30421875 29.87109375 -3.32421875 29.87109375 C-3.32421875 30.53109375 -3.32421875 31.19109375 -3.32421875 31.87109375 C-8.01143694 32.24607121 -11.37297677 32.35568872 -15.63671875 30.18359375 C-19.50582342 26.85436415 -23.9535458 22.61665966 -24.66015625 17.3828125 C-24.74359581 11.35013252 -24.54244348 7.55801011 -20.32421875 2.87109375 C-15.06069001 -1.89897917 -6.44049824 -3.128242 0 0 Z " fill="#EBEEF1" transform="translate(156.32421875,140.12890625)"/>
<path d="M0 0 C1.92005859 0.00580078 1.92005859 0.00580078 3.87890625 0.01171875 C11.6073164 0.66494332 17.41113224 4.90856236 22.47265625 10.6015625 C26.82694036 16.09135808 28.58392802 19.50311914 28.625 26.625 C28.63917969 27.73488281 28.65335938 28.84476563 28.66796875 29.98828125 C28.43083157 33.4086836 27.65858501 36.12223443 26.4375 39.3125 C25.7775 39.3125 25.1175 39.3125 24.4375 39.3125 C24.1075 40.3025 23.7775 41.2925 23.4375 42.3125 C22.4475 42.9725 21.4575 43.6325 20.4375 44.3125 C20.1075 45.3025 19.7775 46.2925 19.4375 47.3125 C17.6953125 48.26171875 17.6953125 48.26171875 15.5625 49 C14.51449219 49.37705078 14.51449219 49.37705078 13.4453125 49.76171875 C11.4375 50.3125 11.4375 50.3125 8.4375 50.3125 C8.4375 50.9725 8.4375 51.6325 8.4375 52.3125 C5.85353321 52.39362454 3.27212432 52.45304748 0.6875 52.5 C-0.04210938 52.52513672 -0.77171875 52.55027344 -1.5234375 52.57617188 C-5.91450009 52.63605 -8.33822258 52.34347542 -11.5625 49.3125 C-12.325625 49.085625 -13.08875 48.85875 -13.875 48.625 C-18.92704882 46.15772035 -22.58802552 41.62567877 -24.75390625 36.484375 C-25.64678678 32.98186779 -25.82834174 29.924416 -25.8125 26.3125 C-25.81765625 25.136875 -25.8228125 23.96125 -25.828125 22.75 C-25.56100304 19.29312755 -24.80130483 16.53732527 -23.5625 13.3125 C-22.9025 13.3125 -22.2425 13.3125 -21.5625 13.3125 C-21.294375 12.714375 -21.02625 12.11625 -20.75 11.5 C-19.56332594 9.31402146 -18.46650887 7.89917406 -16.5625 6.3125 C-15.9025 6.3125 -15.2425 6.3125 -14.5625 6.3125 C-14.2325 5.3225 -13.9025 4.3325 -13.5625 3.3125 C-8.99766382 0.37255272 -5.36746725 -0.07041077 0 0 Z M-14.5625 11.3125 C-14.5625 11.9725 -14.5625 12.6325 -14.5625 13.3125 C-15.5525 13.6425 -16.5425 13.9725 -17.5625 14.3125 C-21.52825201 19.74704905 -21.04547635 25.8759114 -20.5625 32.3125 C-20.2325 33.3025 -19.9025 34.2925 -19.5625 35.3125 C-18.9025 35.3125 -18.2425 35.3125 -17.5625 35.3125 C-17.19125 36.3953125 -17.19125 36.3953125 -16.8125 37.5 C-14.96175974 41.66416559 -13.12057073 44.51446377 -9 46.625 C-0.4010471 48.34479058 6.84228968 47.89828736 14.4375 43.3125 C19.30026435 39.53034995 23.06584634 33.91407562 23.9375 27.8125 C22.6959148 19.12140358 19.08443033 13.15933687 12.4375 7.3125 C3.50957818 3.32682062 -7.40970613 4.37645746 -14.5625 11.3125 Z " fill="#405970" transform="translate(1035.5625,49.6875)"/>
<path d="M0 0 C0.66 0 1.32 0 2 0 C2.85214779 7.06888778 3.12746455 14.0088832 3.0625 21.125 C3.05798828 22.08148438 3.05347656 23.03796875 3.04882812 24.0234375 C3.03720017 26.34902758 3.02086102 28.6744776 3 31 C4.32 30.67 5.64 30.34 7 30 C7.99 25.71 8.98 21.42 10 17 C10.66 17.99 11.32 18.98 12 20 C12.53625 20.680625 13.0725 21.36125 13.625 22.0625 C15 24 15 24 15 26 C15.99 26 16.98 26 18 26 C17.96519531 25.30132812 17.93039062 24.60265625 17.89453125 23.8828125 C17.86746094 22.97273438 17.84039063 22.06265625 17.8125 21.125 C17.76029297 19.76761719 17.76029297 19.76761719 17.70703125 18.3828125 C17.80371094 17.59648438 17.90039062 16.81015625 18 16 C18.99 15.34 19.98 14.68 21 14 C21 19.61 21 25.22 21 31 C22.32 31.33 23.64 31.66 25 32 C18.05159518 36.94108787 11.93685079 36.74518502 3.6875 35.5 C-0.3059752 33.27108361 -2.70088868 29.91338096 -5 26 C-5 25.34 -5 24.68 -5 24 C-5.66 24 -6.32 24 -7 24 C-8.06385483 20.80843552 -8.16677982 18.41502524 -8.1875 15.0625 C-8.20167969 14.02222656 -8.21585938 12.98195313 -8.23046875 11.91015625 C-8.00101729 9.01284544 -7.62455828 7.38710604 -6 5 C-4.34183216 4.31246699 -2.67540664 3.64438717 -1 3 C-0.67 2.01 -0.34 1.02 0 0 Z " fill="#D3E3EC" transform="translate(1023,61)"/>
<path d="M0 0 C8 1 8 1 9.9375 2.75 C11.08174212 5.17310095 11.63210249 7.35113796 12 10 C12.66 10 13.32 10 14 10 C14.391875 8.865625 14.78375 7.73125 15.1875 6.5625 C17 3 17 3 19.625 2 C20.40875 2 21.1925 2 22 2 C23 3 23 3 23.11352539 5.40844727 C23.10828857 6.45057373 23.10305176 7.4927002 23.09765625 8.56640625 C23.09443359 9.69111328 23.09121094 10.81582031 23.08789062 11.97460938 C23.07951172 13.15861328 23.07113281 14.34261719 23.0625 15.5625 C23.05798828 16.75037109 23.05347656 17.93824219 23.04882812 19.16210938 C23.03699675 22.10812226 23.02051287 25.05403681 23 28 C21.35 28.33 19.7 28.66 18 29 C17.67 24.05 17.34 19.1 17 14 C15.33657163 15.66342837 15.63951903 17.7825709 15.4375 20.0625 C15.35371094 20.98160156 15.26992187 21.90070313 15.18359375 22.84765625 C15.12300781 23.55792969 15.06242187 24.26820312 15 25 C14.01 25 13.02 25 12 25 C9.8125 22 9.8125 22 8 19 C7.74605469 19.63808594 7.49210937 20.27617188 7.23046875 20.93359375 C6.88628906 21.75988281 6.54210938 22.58617188 6.1875 23.4375 C5.85105469 24.26121094 5.51460937 25.08492187 5.16796875 25.93359375 C4 28 4 28 1 29 C0.67 19.43 0.34 9.86 0 0 Z " fill="#405D77" transform="translate(1026,62)"/>
<path d="M0 0 C9.24 0 18.48 0 28 0 C28 50.16 28 100.32 28 152 C27.67 152 27.34 152 27 152 C27 102.17 27 52.34 27 1 C18.42 1 9.84 1 1 1 C1 36.64 1 72.28 1 109 C-0.32 109 -1.64 109 -3 109 C-2.75836121 108.18900848 -2.75836121 108.18900848 -2.51184082 107.3616333 C-1.91251764 104.59635645 -1.84513655 102.0443815 -1.81054688 99.21386719 C-1.7937941 98.04064407 -1.77704132 96.86742096 -1.75978088 95.65864563 C-1.74624069 94.38426132 -1.7327005 93.10987701 -1.71875 91.796875 C-1.70093965 90.45276781 -1.68265489 89.10866684 -1.66392517 87.76457214 C-1.62484612 84.90792385 -1.58842556 82.05125972 -1.5541687 79.19454956 C-1.47396289 72.53070448 -1.37984259 65.86705266 -1.28530693 59.20339775 C-1.26434614 57.72474825 -1.2435399 56.24609654 -1.22288704 54.7674427 C-1.04145711 41.82199689 -0.78109268 28.87969693 -0.4375 15.9375 C-0.41526367 15.09562134 -0.39302734 14.25374268 -0.37011719 13.38635254 C-0.25141271 8.92408299 -0.12671711 4.46206008 0 0 Z " fill="#526978" transform="translate(963,62)"/>
<path d="M0 0 C3.1293173 0.74342897 4.94179824 2.18840477 7.12109375 4.50390625 C8.72650214 7.71472303 8.60572684 11.0210098 8.12109375 14.50390625 C5.12109375 20.00390625 5.12109375 20.00390625 2.12109375 21.50390625 C-1.83251254 22.19974096 -5.38948193 22.52203201 -8.8046875 20.1875 C-11.5887355 17.21740583 -12.76933481 15.01523965 -13.62890625 11.00390625 C-12.01329665 3.4643948 -7.86009828 -0.62297575 0 0 Z " fill="#EDEFF1" transform="translate(242.87890625,231.49609375)"/>
<path d="M0 0 C0 0.66 0 1.32 0 2 C0.61875 2.28875 1.2375 2.5775 1.875 2.875 C4 4 4 4 6 6 C6.71176996 12.05004468 5.23130844 15.10407811 2 20 C0.45016739 21.54983261 -1.03668378 21.28132961 -3.1875 21.375 C-6.72776423 21.34676823 -8.73443967 20.92820947 -11.5 18.6875 C-14.44216618 15.52467136 -14.90273872 13.87535155 -15.375 9.625 C-15 6 -15 6 -12.625 3.125 C-8.17031648 -0.48117237 -5.59277391 -0.09020603 0 0 Z " fill="#E9ECEF" transform="translate(60,54)"/>
<path d="M0 0 C4.37220315 2.34225169 4.37220315 2.34225169 6 5 C6.96568142 9.17535636 6.90984168 13.01271422 5.109375 16.9453125 C2.974025 19.89209551 0.96555061 21.0119007 -2.4375 22.1875 C-7.16158927 21.93886372 -8.77781052 20.37205876 -12 17 C-14.54123555 13.5346788 -14.44202495 10.19923705 -14 6 C-10.28246938 0.29978638 -6.72847175 -1.04665116 0 0 Z " fill="#EAEDF0" transform="translate(59,232)"/>
<path d="M0 0 C6.27 0 12.54 0 19 0 C19.33 0.99 19.66 1.98 20 3 C14.06 2.34 8.12 1.68 2 1 C2.00261841 2.25971619 2.00523682 3.51943237 2.00793457 4.81732178 C2.07328242 39.68649758 1.87074032 74.54917366 1.53643799 109.41662598 C1.47433897 115.94960934 1.41504855 122.48261826 1.35546875 129.015625 C1.23961096 141.67710905 1.12057293 154.33855997 1 167 C9.58 167 18.16 167 27 167 C27 143.24 27 119.48 27 95 C27.33 95 27.66 95 28 95 C28 119.09 28 143.18 28 168 C18.76 168 9.52 168 0 168 C0 112.56 0 57.12 0 0 Z " fill="#314553" transform="translate(866,63)"/>
<path d="M0 0 C4.14840212 0.39135869 6.11083557 1.69295638 9.3125 4.3125 C11.58226346 7.0756903 11.3082169 8.58233516 11.25 12.25 C10.60118638 16.54338395 8.66027501 18.55058562 5.3125 21.3125 C4.9825 21.6425 4.6525 21.9725 4.3125 22.3125 C-0.01601085 22.14601881 -2.14975725 21.76659388 -5.5 18.9375 C-9.69836957 13.89945652 -9.69836957 13.89945652 -9.625 9.9375 C-8.52708035 5.69221067 -6.98364002 4.11421902 -3.6875 1.3125 C-2.6875 0.3125 -2.6875 0.3125 0 0 Z " fill="#F0F2F4" transform="translate(239.6875,53.6875)"/>
<path d="M0 0 C5.42577894 0.01656726 10.62801602 0.33754172 15.99609375 1.1328125 C15.99609375 2.1228125 15.99609375 3.1128125 15.99609375 4.1328125 C15.66609375 3.8028125 15.33609375 3.4728125 14.99609375 3.1328125 C12.30373599 2.89602534 9.63111219 2.71083225 6.93359375 2.5703125 C6.17498047 2.52712891 5.41636719 2.48394531 4.63476562 2.43945312 C2.75543937 2.33307617 0.87579131 2.23241316 -1.00390625 2.1328125 C-1.00128784 3.29477646 -0.99866943 4.45674042 -0.99597168 5.65391541 C-0.92630353 40.0164888 -1.14889487 74.37317959 -1.46746826 108.73413086 C-1.52325922 114.79917856 -1.57695612 120.86424448 -1.63066387 126.92931092 C-1.75234067 140.66383714 -1.87735528 154.39833037 -2.00390625 168.1328125 C6.90609375 168.1328125 15.81609375 168.1328125 24.99609375 168.1328125 C24.99609375 146.6828125 24.99609375 125.2328125 24.99609375 103.1328125 C25.32609375 103.1328125 25.65609375 103.1328125 25.99609375 103.1328125 C25.99609375 124.9128125 25.99609375 146.6928125 25.99609375 169.1328125 C16.42609375 169.1328125 6.85609375 169.1328125 -3.00390625 169.1328125 C-3.02702305 147.24560551 -3.04488435 125.35840145 -3.05571842 103.47118473 C-3.06088185 93.3093175 -3.06792542 83.14745798 -3.0793457 72.9855957 C-3.08929113 64.13187624 -3.09575934 55.27816236 -3.09799474 46.42443746 C-3.09930209 41.73343715 -3.10238946 37.04245281 -3.10963631 32.3514576 C-3.1163943 27.94141998 -3.11852367 23.53140499 -3.11701393 19.12136269 C-3.11729036 17.49793627 -3.11929679 15.87450914 -3.12311172 14.25108719 C-3.12804553 12.044362 -3.12690572 9.83772367 -3.12416077 7.6309967 C-3.12508256 6.39302873 -3.12600435 5.15506075 -3.12695408 3.87957859 C-2.96195337 0.1963088 -2.96195337 0.1963088 0 0 Z " fill="#576E7D" transform="translate(723.00390625,61.8671875)"/>
<path d="M0 0 C0.68835937 0.01353516 1.37671875 0.02707031 2.0859375 0.04101562 C3.76597001 0.0760163 5.4455935 0.12981046 7.125 0.1875 C7.125 0.8475 7.125 1.5075 7.125 2.1875 C7.785 2.1875 8.445 2.1875 9.125 2.1875 C9.125 2.8475 9.125 3.5075 9.125 4.1875 C9.785 4.5175 10.445 4.8475 11.125 5.1875 C10.15820312 5.11789063 9.19140625 5.04828125 8.1953125 4.9765625 C-0.7559297 4.60433263 -6.75265183 5.13556253 -13.875 11.1875 C-17.81243859 14.99704036 -19.81947905 18.15543308 -19.97265625 23.76171875 C-19.96603244 25.13284658 -19.95414198 26.50395717 -19.9375 27.875 C-19.93298828 28.57689453 -19.92847656 29.27878906 -19.92382812 30.00195312 C-19.91206927 31.73050538 -19.89413454 33.45901365 -19.875 35.1875 C-19.215 35.1875 -18.555 35.1875 -17.875 35.1875 C-17.76542969 35.75339844 -17.65585937 36.31929687 -17.54296875 36.90234375 C-17.38441406 37.63582031 -17.22585938 38.36929688 -17.0625 39.125 C-16.91167969 39.85589844 -16.76085937 40.58679688 -16.60546875 41.33984375 C-16.36441406 41.94957031 -16.12335937 42.55929688 -15.875 43.1875 C-14.885 43.5175 -13.895 43.8475 -12.875 44.1875 C-12.875 44.8475 -12.875 45.5075 -12.875 46.1875 C-12.215 46.5175 -11.555 46.8475 -10.875 47.1875 C-14.86342143 46.61772551 -17.66603726 45.65593288 -20.875 43.1875 C-24.74370393 37.72732255 -26.02724017 32.99679633 -26.0625 26.375 C-26.07667969 25.17230469 -26.09085938 23.96960938 -26.10546875 22.73046875 C-25.87624672 19.20666575 -25.14530979 16.46620472 -23.875 13.1875 C-23.215 13.1875 -22.555 13.1875 -21.875 13.1875 C-21.606875 12.589375 -21.33875 11.99125 -21.0625 11.375 C-19.87582594 9.18902146 -18.77900887 7.77417406 -16.875 6.1875 C-16.215 6.1875 -15.555 6.1875 -14.875 6.1875 C-14.545 5.1975 -14.215 4.2075 -13.875 3.1875 C-9.29911023 0.20413114 -5.32100011 -0.20108431 0 0 Z " fill="#263947" transform="translate(1035.875,49.8125)"/>
<path d="M0 0 C0.33 0.99 0.66 1.98 1 3 C2.65 3 4.3 3 6 3 C6.33 3.99 6.66 4.98 7 6 C6.236875 6.680625 5.47375 7.36125 4.6875 8.0625 C1.67156669 11.35898525 0.54120983 13.86306835 -1 18 C-1.99 17.67 -2.98 17.34 -4 17 C-5.125 14.0625 -5.125 14.0625 -6 11 C-6.79299706 8.82961523 -6.79299706 8.82961523 -8.84765625 8.3671875 C-9.57855469 8.20476563 -10.30945312 8.04234375 -11.0625 7.875 C-11.79597656 7.70742188 -12.52945312 7.53984375 -13.28515625 7.3671875 C-13.85105469 7.24601562 -14.41695312 7.12484375 -15 7 C-14.83701416 7.70664795 -14.67402832 8.4132959 -14.50610352 9.14135742 C-13.98646586 12.07644539 -13.88641651 14.75988693 -13.90234375 17.73828125 C-13.90556641 18.80498047 -13.90878906 19.87167969 -13.91210938 20.97070312 C-13.92048828 22.07349609 -13.92886719 23.17628906 -13.9375 24.3125 C-13.94201172 25.43462891 -13.94652344 26.55675781 -13.95117188 27.71289062 C-13.96292687 30.4753151 -13.97935923 33.23762998 -14 36 C-12.68 35.34 -11.36 34.68 -10 34 C-10.33 34.99 -10.66 35.98 -11 37 C-12.32 37 -13.64 37 -15 37 C-15.33 26.77 -15.66 16.54 -16 6 C-16.66 6 -17.32 6 -18 6 C-18.33 7.32 -18.66 8.64 -19 10 C-20.32 10.33 -21.64 10.66 -23 11 C-22.67 10.01 -22.34 9.02 -22 8 C-21.34 8 -20.68 8 -20 8 C-19.67 7.01 -19.34 6.02 -19 5 C-12.63821221 0.08407307 -7.72209288 -0.13088293 0 0 Z " fill="#B6CCDA" transform="translate(1041,55)"/>
<path d="M0 0 C1.32 0.33 2.64 0.66 4 1 C4 9.25 4 17.5 4 26 C2.35 26.33 0.7 26.66 -1 27 C-1.33 22.05 -1.66 17.1 -2 12 C-3.66342837 13.66342837 -3.36048097 15.7825709 -3.5625 18.0625 C-3.68818359 19.44115234 -3.68818359 19.44115234 -3.81640625 20.84765625 C-3.87699219 21.55792969 -3.93757813 22.26820312 -4 23 C-4.99 23 -5.98 23 -7 23 C-9.18994248 19.71508627 -9.35277339 18.16904361 -9.625 14.3125 C-9.69976563 13.31863281 -9.77453125 12.32476562 -9.8515625 11.30078125 C-9.90054687 10.54152344 -9.94953125 9.78226563 -10 9 C-7.525 9.495 -7.525 9.495 -5 10 C-3.35 6.7 -1.7 3.4 0 0 Z " fill="#263A54" transform="translate(1045,64)"/>
<path d="M0 0 C2.875 1.5625 2.875 1.5625 5 4 C5.52306944 7.66148608 5.40358168 10.01626965 4 13.4375 C1.3906306 15.47606984 -0.80838838 15.50612004 -4.05859375 15.30859375 C-6.95219734 14.84864469 -8.21908768 14.37454976 -10 12 C-10.5659239 7.54334931 -10.82483134 5.26897129 -8.375 1.5 C-5.25991849 -0.4674199 -3.62829011 -0.5923739 0 0 Z " fill="#21374C" transform="translate(151,147)"/>
<path d="M0 0 C6.34180016 0.39636251 10.99182958 4.73743563 15.03515625 9.29296875 C19.42462981 14.81811719 21.15911351 18.33119966 21.3125 25.5 C21.36857422 27.21703125 21.36857422 27.21703125 21.42578125 28.96875 C21 32 21 32 18.98046875 33.90625 C18.32691406 34.2671875 17.67335938 34.628125 17 35 C16.97421875 34.14277344 16.9484375 33.28554687 16.921875 32.40234375 C16.5744017 25.39759781 16.21442849 20.65620666 12 15 C11.22076172 13.948125 11.22076172 13.948125 10.42578125 12.875 C6.74165429 8.23879528 4.07639727 5.82391827 -2 5 C-5.3416885 4.87260425 -8.658435 4.87897753 -12 5 C-11.67 4.34 -11.34 3.68 -11 3 C-6.71 3 -2.42 3 2 3 C2 2.34 2 1.68 2 1 C1.34 0.67 0.68 0.34 0 0 Z " fill="#233A51" transform="translate(1043,51)"/>
<path d="M0 0 C6.27 0 12.54 0 19 0 C19.33 0.99 19.66 1.98 20 3 C14.06 2.34 8.12 1.68 2 1 C2.00523682 2.50715576 2.01047363 4.01431152 2.01586914 5.56713867 C2.03410609 11.21231481 2.04549971 16.8574884 2.05493164 22.50268555 C2.05992942 24.93595825 2.06672986 27.36922799 2.07543945 29.80249023 C2.08770619 33.32015721 2.09327402 36.83778413 2.09765625 40.35546875 C2.10281754 41.42580856 2.10797882 42.49614838 2.11329651 43.59892273 C2.11384173 51.10690252 1.67102773 58.52292213 1 66 C0.67 66 0.34 66 0 66 C0 44.22 0 22.44 0 0 Z " fill="#3A4C58" transform="translate(866,63)"/>
<path d="M0 0 C1.9375 1.0625 1.9375 1.0625 3 3 C3.3125 6.5625 3.3125 6.5625 3 10 C1 12 1 12 -0.875 12.23046875 C-1.57625 12.21628906 -2.2775 12.20210937 -3 12.1875 C-3.70125 12.18105469 -4.4025 12.17460937 -5.125 12.16796875 C-7 12 -7 12 -9 11 C-10.47727273 3.95454545 -10.47727273 3.95454545 -9 1 C-5.89077804 -0.55461098 -3.41180361 -0.36555039 0 0 Z " fill="#E7EBEE" transform="translate(190,240)"/>
<path d="M0 0 C2.4375 1.625 2.4375 1.625 4 4 C3.93498241 7.18586196 3.51914046 9.18030454 1.8125 11.875 C-0.93063634 13.57763635 -2.84768868 13.45971207 -6 13 C-8.59814888 10.74827097 -8.95716454 9.34982295 -9.375 5.9375 C-9 3 -9 3 -7.875 1.125 C-5.07553259 -0.55468045 -3.20195936 -0.45742277 0 0 Z " fill="#E7EAED" transform="translate(112,240)"/>
<path d="M0 0 C2.78506308 1.97886061 3.81084752 3.15932233 4.5625 6.5 C4 9 4 9 1.875 11.375 C-1 13 -1 13 -4.1875 12.9375 C-7 12 -7 12 -9 9 C-9.32502803 5.87973093 -9.51151479 3.85252465 -7.875 1.125 C-5.07553259 -0.55468045 -3.20195936 -0.45742277 0 0 Z " fill="#E4E8EB" transform="translate(151,40)"/>
<path d="M0 0 C2.4375 1.625 2.4375 1.625 4 4 C3.93521587 7.17442218 3.46700625 9.19571146 1.875 11.9375 C-1.22905831 13.69646638 -3.66320548 12.84936588 -7 12 C-9.31282587 8.53076119 -9.42478586 7.07794425 -9 3 C-6.79244709 -0.67925486 -4.01747809 -0.57392544 0 0 Z " fill="#E1E4E8" transform="translate(272,147)"/>
<path d="M0 0 C3.35784867 0.47969267 4.80170102 0.9158396 7.0625 3.4375 C7.5625 5.875 7.5625 5.875 7.0625 8.4375 C5.4375 10.75 5.4375 10.75 3.0625 12.4375 C-0.08272722 12.75202272 -2.09666359 12.85791821 -4.9375 11.4375 C-5.82063532 7.83702525 -6.38090212 5.45471663 -4.875 2 C-2.9375 0.4375 -2.9375 0.4375 0 0 Z " fill="#DDE1E5" transform="translate(147.9375,253.5625)"/>
<path d="M0 0 C3.0996593 -0.39570119 5.12198451 -0.49754211 7.875 1.0625 C9.64273274 4.1069286 9.36823916 6.5631012 9 10 C7.8125 11.9375 7.8125 11.9375 6 13 C3.5625 13.5 3.5625 13.5 1 13 C-1.375 10.8125 -1.375 10.8125 -3 8 C-2.83083157 4.44746291 -2.00047767 3.0007165 0 0 Z " fill="#DCE0E4" transform="translate(25,147)"/>
<path d="M0 0 C1.9375 1.1875 1.9375 1.1875 3 3 C3.5 5.4375 3.5 5.4375 3 8 C0.8125 10.375 0.8125 10.375 -2 12 C-4.92738742 11.9303003 -6.41595862 11.40278716 -8.8125 9.75 C-10.45364719 7.3314673 -10.42967368 5.86449123 -10 3 C-7.66004009 -0.99169632 -4.2277022 -0.45296809 0 0 Z " fill="#E4E8EC" transform="translate(113,53)"/>
<path d="M0 0 C0 0.66 0 1.32 0 2 C1.32 2.66 2.64 3.32 4 4 C4.26218749 7.14624993 4.24754367 8.61837017 2.5 11.3125 C2.005 11.869375 1.51 12.42625 1 13 C-2.375 12.6875 -2.375 12.6875 -6 12 C-8.31361802 8.52957297 -8.51020728 7.08165827 -8 3 C-5.22094435 0.02244037 -4.2016934 0 0 0 Z " fill="#DDE1E5" transform="translate(243,113)"/>
<path d="M0 0 C1.875 1.125 1.875 1.125 3 3 C3.39365568 6.14924548 3.52854531 8.11909116 1.875 10.875 C-0.88090884 12.52854531 -2.85075452 12.39365568 -6 12 C-7.875 10.875 -7.875 10.875 -9 9 C-9.39365568 5.85075452 -9.52854531 3.88090884 -7.875 1.125 C-5.11909116 -0.52854531 -3.14924548 -0.39365568 0 0 Z " fill="#E8EBEF" transform="translate(190,53)"/>
<path d="M0 0 C0 1.32 0 2.64 0 4 C-0.66 4 -1.32 4 -2 4 C-2 10.93 -2 17.86 -2 25 C-3.98 25.99 -3.98 25.99 -6 27 C-6 18.42 -6 9.84 -6 1 C-4 0 -4 0 0 0 Z " fill="#081B36" transform="translate(1033,64)"/>
<path d="M0 0 C1.8125 1.125 1.8125 1.125 3 3 C3.39769128 6.18153026 3.55198782 8.12844028 1.8125 10.875 C-0.65507108 12.40659584 -2.14519831 12.42822025 -5 12 C-6.8125 10.875 -6.8125 10.875 -8 9 C-8.39769128 5.81846974 -8.55198782 3.87155972 -6.8125 1.125 C-4.34492892 -0.40659584 -2.85480169 -0.42822025 0 0 Z " fill="#E7EAEE" transform="translate(58,182)"/>
<path d="M0 0 C3.125 0.25 3.125 0.25 5 1.375 C6.65354531 4.13090884 6.51865568 6.10075452 6.125 9.25 C4.9375 11.125 4.9375 11.125 3.125 12.25 C0.625 12.6875 0.625 12.6875 -1.875 12.25 C-3.75 10.6875 -3.75 10.6875 -4.875 8.25 C-4.34127131 0.37750185 -4.34127131 0.37750185 0 0 Z " fill="#E6EAED" transform="translate(54.875,113.75)"/>
<path d="M0 0 C2.375 0.875 2.375 0.875 4.375 2.875 C4.625 5.875 4.625 5.875 4.375 8.875 C2.375 10.875 2.375 10.875 -1.125 11.125 C-4.625 10.875 -4.625 10.875 -6.625 8.875 C-7.15088107 5.54441989 -6.90906594 4.27479651 -4.9375 1.5 C-2.625 -0.125 -2.625 -0.125 0 0 Z " fill="#EDF0F3" transform="translate(242.625,183.125)"/>
<path d="M0 0 C2.0625 0.4375 2.0625 0.4375 4 1 C3.85873374 4.06277267 3.71215604 7.12513542 3.5625 10.1875 C3.50352539 11.48397461 3.50352539 11.48397461 3.44335938 12.80664062 C3.23652984 16.95914122 2.99896469 20.94537862 2 25 C1.67 25 1.34 25 1 25 C1 19.72 1 14.44 1 9 C-0.65 9.33 -2.3 9.66 -4 10 C-3.52449439 8.51965236 -3.04448784 7.04074979 -2.5625 5.5625 C-2.29566406 4.73878906 -2.02882813 3.91507812 -1.75390625 3.06640625 C-1 1 -1 1 0 0 Z " fill="#0B192E" transform="translate(1045,64)"/>
<path d="M0 0 C1.06347656 -0.00257812 2.12695312 -0.00515625 3.22265625 -0.0078125 C5.9375 0.125 5.9375 0.125 7.9375 1.125 C7.9375 1.785 7.9375 2.445 7.9375 3.125 C8.5975 3.455 9.2575 3.785 9.9375 4.125 C8.9475 4.07859375 7.9575 4.0321875 6.9375 3.984375 C-0.6744038 3.73780441 -6.48666502 3.83057716 -13.0625 8.125 C-12.7325 6.475 -12.4025 4.825 -12.0625 3.125 C-11.0725 3.125 -10.0825 3.125 -9.0625 3.125 C-9.0625 2.465 -9.0625 1.805 -9.0625 1.125 C-5.82377868 0.04542623 -3.40221795 -0.00826784 0 0 Z " fill="#061429" transform="translate(1037.0625,50.875)"/>
<path d="M0 0 C0.33 0.66 0.66 1.32 1 2 C1.66 2 2.32 2 3 2 C3.495 7.94 3.495 7.94 4 14 C-7.55 14 -19.1 14 -31 14 C-30 7 -30 7 -28 5 C-28.875 10.75 -28.875 10.75 -30 13 C-19.11 13 -8.22 13 3 13 C2.01 10.03 1.02 7.06 0 4 C0 2.68 0 1.36 0 0 Z " fill="#8199A2" transform="translate(508,150)"/>
<path d="M0 0 C0.33 0 0.66 0 1 0 C1 6.6 1 13.2 1 20 C-0.65 20.33 -2.3 20.66 -4 21 C-4.33 15.06 -4.66 9.12 -5 3 C-4.01 3 -3.02 3 -2 3 C-1.67 6.63 -1.34 10.26 -1 14 C-0.67 9.38 -0.34 4.76 0 0 Z " fill="#465D71" transform="translate(1048,70)"/>
<path d="M0 0 C0.33 0 0.66 0 1 0 C1.33 9.9 1.66 19.8 2 30 C8.1093463 24.61596745 8.1093463 24.61596745 14 19 C13.45747899 23.00913833 11.49208544 24.9408244 8.6875 27.75 C7.90761719 28.54921875 7.12773437 29.3484375 6.32421875 30.171875 C4 32 4 32 0 32 C0 21.44 0 10.88 0 0 Z " fill="#2D3F4A" transform="translate(190,75)"/>
<path d="M0 0 C14.85 0.33 29.7 0.66 45 1 C45 1.33 45 1.66 45 2 C30.81 2.33 16.62 2.66 2 3 C1.34 4.65 0.68 6.3 0 8 C-0.99 8.33 -1.98 8.66 -3 9 C-3 8.34 -3 7.68 -3 7 C-2.34 7 -1.68 7 -1 7 C-0.67 4.69 -0.34 2.38 0 0 Z " fill="#CCDEE7" transform="translate(466,192)"/>
<path d="M0 0 C0.33 0.99 0.66 1.98 1 3 C-5.93 9.93 -12.86 16.86 -20 24 C-20.66 23.67 -21.32 23.34 -22 23 C-21.35933594 22.3709375 -20.71867187 21.741875 -20.05859375 21.09375 C-15.36982546 16.45389584 -10.82855301 11.77290079 -6.5390625 6.76171875 C-4.46575944 4.38847084 -2.26166261 2.19312738 0 0 Z " fill="#A9BBC6" transform="translate(98,206)"/>
<path d="M0 0 C2.59875 -0.020625 5.1975 -0.04125 7.875 -0.0625 C8.69210449 -0.071604 9.50920898 -0.08070801 10.35107422 -0.09008789 C15.77777778 -0.11111111 15.77777778 -0.11111111 18 1 C18 1.66 18 2.32 18 3 C12.72 3 7.44 3 2 3 C1.67 7.62 1.34 12.24 1 17 C0.67 17 0.34 17 0 17 C0 11.39 0 5.78 0 0 Z " fill="#C3DDEA" transform="translate(719,60)"/>
<path d="M0 0 C0.70640625 0.05220703 1.4128125 0.10441406 2.140625 0.15820312 C3.88579987 0.28791207 5.63045725 0.42454954 7.375 0.5625 C6.07780625 3.15688751 5.05464831 3.51836118 2.375 4.5625 C-0.203125 4.7578125 -0.203125 4.7578125 -2.875 4.6875 C-3.76703125 4.66945313 -4.6590625 4.65140625 -5.578125 4.6328125 C-6.59132813 4.59800781 -6.59132813 4.59800781 -7.625 4.5625 C-8.285 3.2425 -8.945 1.9225 -9.625 0.5625 C-6.5270403 -0.98647985 -3.36283448 -0.26989539 0 0 Z " fill="#173049" transform="translate(1035.625,97.4375)"/>
<path d="M0 0 C0.66 0.33 1.32 0.66 2 1 C3.0541518 4.16245541 3.31275672 6.86948218 3.5625 10.1875 C3.64628906 11.27417969 3.73007813 12.36085938 3.81640625 13.48046875 C3.87699219 14.31191406 3.93757813 15.14335938 4 16 C4.66 15.67 5.32 15.34 6 15 C5.67 16.65 5.34 18.3 5 20 C4.34 20 3.68 20 3 20 C2.67 20.99 2.34 21.98 2 23 C1.67 21.68 1.34 20.36 1 19 C-0.32 19.33 -1.64 19.66 -3 20 C-1 16 -1 16 0.125 14.1875 C1.95920356 9.60199109 1.13728806 4.69131324 0 0 Z " fill="#4C6679" transform="translate(1057,69)"/>
<path d="M0 0 C0.33 0.99 0.66 1.98 1 3 C-2.74040219 8.66727605 -2.74040219 8.66727605 -7.3125 9.875 C-8.6428125 9.936875 -8.6428125 9.936875 -10 10 C-8.64844718 5.57673622 -6.80109562 3.59587018 -3 1 C-2.01 0.67 -1.02 0.34 0 0 Z " fill="#11233E" transform="translate(1058,87)"/>
<path d="M0 0 C0.33 0.99 0.66 1.98 1 3 C1.66 3 2.32 3 3 3 C3.16435547 3.84884766 3.16435547 3.84884766 3.33203125 4.71484375 C3.49058594 5.44832031 3.64914062 6.18179688 3.8125 6.9375 C3.96332031 7.66839844 4.11414063 8.39929688 4.26953125 9.15234375 C4.63111328 10.06693359 4.63111328 10.06693359 5 11 C5.99 11.33 6.98 11.66 8 12 C8 12.66 8 13.32 8 14 C8.66 14.33 9.32 14.66 10 15 C5.75617868 14.39373981 2.09595976 13.09595976 -1 10 C-1.125 7.5 -1.125 7.5 -1 5 C-0.67 4.67 -0.34 4.34 0 4 C0 2.68 0 1.36 0 0 Z " fill="#1E3442" transform="translate(1015,82)"/>
<path d="M0 0 C0.33 0 0.66 0 1 0 C1 5.28 1 10.56 1 16 C-0.98 15.01 -2.96 14.02 -5 13 C-4.01 12.67 -3.02 12.34 -2 12 C-2.02320313 11.30132812 -2.04640625 10.60265625 -2.0703125 9.8828125 C-2.08835937 8.97273438 -2.10640625 8.06265625 -2.125 7.125 C-2.14820313 6.22007813 -2.17140625 5.31515625 -2.1953125 4.3828125 C-2 2 -2 2 0 0 Z " fill="#A3C2D5" transform="translate(1043,75)"/>
<path d="M0 0 C6.14830711 1.20555041 8.35248219 2.91558124 12 8 C11.01 7.67 10.02 7.34 9 7 C8.67 9.31 8.34 11.62 8 14 C7.67 14 7.34 14 7 14 C6.67 12.35 6.34 10.7 6 9 C4.68 9 3.36 9 2 9 C2.66 7.68 3.32 6.36 4 5 C4.66 5 5.32 5 6 5 C5.67 4.34 5.34 3.68 5 3 C2.47266765 2.34444881 2.47266765 2.34444881 0 2 C0 1.34 0 0.68 0 0 Z " fill="#6D8B98" transform="translate(1042,56)"/>
<path d="M0 0 C4.875 4.625 4.875 4.625 6 8 C8.01508358 8.73323796 8.01508358 8.73323796 10 9 C9.67 10.32 9.34 11.64 9 13 C2.25 11.375 2.25 11.375 0 8 C2.475 8.495 2.475 8.495 5 9 C5 8.34 5 7.68 5 7 C3.68 6.67 2.36 6.34 1 6 C0.67 4.02 0.34 2.04 0 0 Z " fill="#2B4156" transform="translate(1018,87)"/>
<path d="M0 0 C0.33 0.66 0.66 1.32 1 2 C0.34 2 -0.32 2 -1 2 C-0.67 3.65 -0.34 5.3 0 7 C-0.66 7 -1.32 7 -2 7 C-1.67 10.63 -1.34 14.26 -1 18 C-1.66 18.33 -2.32 18.66 -3 19 C-4.50156874 15.99686252 -4.09281204 13.20932478 -4.0625 9.875 C-4.05347656 8.59367187 -4.04445313 7.31234375 -4.03515625 5.9921875 C-4.02355469 5.00476563 -4.01195312 4.01734375 -4 3 C-3.34 3 -2.68 3 -2 3 C-2 2.34 -2 1.68 -2 1 C-1.34 0.67 -0.68 0.34 0 0 Z " fill="#0C1F2D" transform="translate(1015,64)"/>
<path d="M0 0 C2.1953125 0.359375 2.1953125 0.359375 4 1 C-0.625 4 -0.625 4 -4 4 C-4.185625 4.639375 -4.37125 5.27875 -4.5625 5.9375 C-6 8 -6 8 -9.375 8.8125 C-12.42209276 8.97010825 -14.16678538 8.81751347 -17 8 C-16.03900391 7.76216797 -16.03900391 7.76216797 -15.05859375 7.51953125 C-10.5460176 6.30227896 -6.83731891 5.15353483 -3.125 2.25 C-2.09375 1.5075 -1.0625 0.765 0 0 Z " fill="#41535C" transform="translate(681,195)"/>
<path d="M0 0 C0.99 0.495 0.99 0.495 2 1 C2 4.96 2 8.92 2 13 C2.66 13 3.32 13 4 13 C3.34 14.32 2.68 15.64 2 17 C1.34 17 0.68 17 0 17 C0 11.39 0 5.78 0 0 Z " fill="#263D58" transform="translate(1027,74)"/>
<path d="M0 0 C0.33 0 0.66 0 1 0 C1 6.6 1 13.2 1 20 C1.99 20.33 2.98 20.66 4 21 C2.3125 22.625 2.3125 22.625 0 24 C-2.75 23.1875 -2.75 23.1875 -5 22 C-3.68 21.34 -2.36 20.68 -1 20 C-0.67 13.4 -0.34 6.8 0 0 Z " fill="#A3BDC8" transform="translate(1049,70)"/>
<path d="M0 0 C-0.33 0.99 -0.66 1.98 -1 3 C-9.25 3 -17.5 3 -26 3 C-26 2.34 -26 1.68 -26 1 C-22.7917943 0.83081552 -19.58341796 0.66510635 -16.375 0.5 C-15.47136719 0.45230469 -14.56773438 0.40460938 -13.63671875 0.35546875 C-9.08545547 0.12292245 -4.55915017 -0.06058671 0 0 Z " fill="#D2E0E6" transform="translate(97,191)"/>
<path d="M0 0 C0.66 0.33 1.32 0.66 2 1 C0.04761147 3.00612399 -1.91137822 5.00492433 -3.875 7 C-4.43058594 7.57234375 -4.98617187 8.1446875 -5.55859375 8.734375 C-7.00134404 10.19450782 -8.4974374 11.60149298 -10 13 C-10.66 13 -11.32 13 -12 13 C-10.61536056 9.87250593 -9.00477577 7.7595015 -6.5625 5.375 C-5.96566406 4.78460938 -5.36882812 4.19421875 -4.75390625 3.5859375 C-3 2 -3 2 0 0 Z " fill="#D0D5D9" transform="translate(121,116)"/>
<path d="M0 0 C0.66 0 1.32 0 2 0 C4.27477677 3.53854164 3.99082706 5.70947373 3.125 9.75 C2.92132812 10.73484375 2.71765625 11.7196875 2.5078125 12.734375 C2.34023438 13.48203125 2.17265625 14.2296875 2 15 C1.67 15 1.34 15 1 15 C-0.03590199 9.94997778 -0.10251672 5.12583611 0 0 Z " fill="#CDDAE4" transform="translate(895,120)"/>
<path d="M0 0 C0.99386719 0.00902344 1.98773437 0.01804688 3.01171875 0.02734375 C4.15060547 0.04474609 4.15060547 0.04474609 5.3125 0.0625 C5.3125 0.3925 5.3125 0.7225 5.3125 1.0625 C4.178125 1.18625 3.04375 1.31 1.875 1.4375 C0.1115625 1.746875 0.1115625 1.746875 -1.6875 2.0625 C-2.0175 2.7225 -2.3475 3.3825 -2.6875 4.0625 C-4.9975 4.0625 -7.3075 4.0625 -9.6875 4.0625 C-9.3575 3.0725 -9.0275 2.0825 -8.6875 1.0625 C-5.53819107 0.01273036 -3.29935544 -0.03881595 0 0 Z " fill="#DCEDF5" transform="translate(1035.6875,56.9375)"/>
<path d="M0 0 C0.66 0.33 1.32 0.66 2 1 C0.90344712 2.31886772 -0.20253423 3.62990057 -1.3125 4.9375 C-1.92738281 5.66839844 -2.54226562 6.39929688 -3.17578125 7.15234375 C-5 9 -5 9 -8 10 C-6.5682479 4.98886765 -4.01554307 3.05530451 0 0 Z " fill="#2E3F4A" transform="translate(49,173)"/>
<path d="M0 0 C1.45428437 0.0396623 2.90799128 0.11093049 4.359375 0.2109375 C5.10445312 0.23800781 5.84953125 0.26507813 6.6171875 0.29296875 C8.44916493 0.36342942 10.27964651 0.47104757 12.109375 0.5859375 C12.109375 0.9159375 12.109375 1.2459375 12.109375 1.5859375 C10.66304687 1.60720703 10.66304687 1.60720703 9.1875 1.62890625 C7.92421875 1.67660156 6.6609375 1.72429687 5.359375 1.7734375 C4.10640625 1.80824219 2.8534375 1.84304687 1.5625 1.87890625 C-2.0612522 2.28082718 -2.0612522 2.28082718 -4.34375 5.13671875 C-5.10945313 6.34908203 -5.10945313 6.34908203 -5.890625 7.5859375 C-6.550625 7.2559375 -7.210625 6.9259375 -7.890625 6.5859375 C-5.71766897 2.22858884 -4.9524278 0.74584756 0 0 Z " fill="#A6B5BE" transform="translate(73.890625,124.4140625)"/>
<path d="M0 0 C5.78898419 -0.20674944 10.42932723 0.40837921 16 2 C16 2.33 16 2.66 16 3 C10.22192976 3.2358396 5.48675196 2.86783046 0 1 C0 0.67 0 0.34 0 0 Z " fill="#CEE1EB" transform="translate(866,60)"/>
<path d="M0 0 C0.99 0 1.98 0 3 0 C3.33 0.99 3.66 1.98 4 3 C0.04 4.98 0.04 4.98 -4 7 C-3.67 5.35 -3.34 3.7 -3 2 C-2.01 2 -1.02 2 0 2 C0 1.34 0 0.68 0 0 Z " fill="#0F1A2E" transform="translate(1028,52)"/>
<path d="M0 0 C0.66 0 1.32 0 2 0 C2 1.65 2 3.3 2 5 C2.66 5 3.32 5 4 5 C4 6.98 4 8.96 4 11 C3.01 10.67 2.02 10.34 1 10 C0.67 6.7 0.34 3.4 0 0 Z " fill="#091836" transform="translate(1035,73)"/>
<path d="M0 0 C3.93774177 -0.36630156 5.56539771 -0.30233203 8.875 2 C9.926875 2.99 9.926875 2.99 11 4 C10.67 4.66 10.34 5.32 10 6 C8.68 5.67 7.36 5.34 6 5 C6 4.34 6 3.68 6 3 C5.195625 2.87625 4.39125 2.7525 3.5625 2.625 C2.716875 2.41875 1.87125 2.2125 1 2 C0.67 1.34 0.34 0.68 0 0 Z " fill="#A6BFCF" transform="translate(683,67)"/>
<path d="M0 0 C0.53625 0.226875 1.0725 0.45375 1.625 0.6875 C0.635 0.6875 -0.355 0.6875 -1.375 0.6875 C-1.54 1.326875 -1.705 1.96625 -1.875 2.625 C-3.375 4.6875 -3.375 4.6875 -5.2890625 5.17578125 C-7.31075155 5.4150978 -9.34341939 5.55643028 -11.375 5.6875 C-8.45877964 2.28524292 -4.62034368 -0.60793996 0 0 Z " fill="#4B6068" transform="translate(620.375,67.3125)"/>
<path d="M0 0 C4.95 0 9.9 0 15 0 C15.33 0.99 15.66 1.98 16 3 C10.72 2.34 5.44 1.68 0 1 C0 0.67 0 0.34 0 0 Z " fill="#637989" transform="translate(870,63)"/>
<path d="M0 0 C0.66 0.33 1.32 0.66 2 1 C1.01 1.33 0.02 1.66 -1 2 C-1.33 2.99 -1.66 3.98 -2 5 C-8.93 4.505 -8.93 4.505 -16 4 C-16 3.67 -16 3.34 -16 3 C-11.71 3 -7.42 3 -3 3 C-3 2.34 -3 1.68 -3 1 C-2.01 0.67 -1.02 0.34 0 0 Z " fill="#8AA5B5" transform="translate(1047,99)"/>
<path d="M0 0 C0.66 0.99 1.32 1.98 2 3 C-0.97 5.475 -0.97 5.475 -4 8 C-4.25 5.6875 -4.25 5.6875 -4 3 C-2 1.1875 -2 1.1875 0 0 Z " fill="#081220" transform="translate(493,60)"/>
<path d="M0 0 C0 2.66666667 0 5.33333333 0 8 C2.31 8.66 4.62 9.32 7 10 C7 10.33 7 10.66 7 11 C0.84765625 11.09765625 0.84765625 11.09765625 -1 11 C-2.89488952 9.10511048 -2.18019112 6.42860854 -2.23046875 3.91015625 C-2 2 -2 2 0 0 Z " fill="#5B6870" transform="translate(237,184)"/>
<path d="M0 0 C1.32 0.33 2.64 0.66 4 1 C4.33 2.32 4.66 3.64 5 5 C4.01 4.67 3.02 4.34 2 4 C-0.16715557 4.87483915 -0.16715557 4.87483915 -2 6 C-1.34 4.02 -0.68 2.04 0 0 Z " fill="#3D4854" transform="translate(491,57)"/>
<path d="M0 0 C0.66 0.33 1.32 0.66 2 1 C0.8803014 2.00593243 -0.2459412 3.0045849 -1.375 4 C-2.00148438 4.556875 -2.62796875 5.11375 -3.2734375 5.6875 C-5 7 -5 7 -7 7 C-7 6.01 -7 5.02 -7 4 C-5.68 3.67 -4.36 3.34 -3 3 C-3 2.34 -3 1.68 -3 1 C-2.01 0.67 -1.02 0.34 0 0 Z " fill="#A4B6BE" transform="translate(703,213)"/>
<path d="M0 0 C1.32 0.33 2.64 0.66 4 1 C4 3.31 4 5.62 4 8 C3.67 7.34 3.34 6.68 3 6 C2.34 6 1.68 6 1 6 C0.67 4.02 0.34 2.04 0 0 Z " fill="#CBDEE9" transform="translate(958,161)"/>
<path d="M0 0 C3 1.8125 3 1.8125 6 4 C6 4.99 6 5.98 6 7 C5.34 6.67 4.68 6.34 4 6 C3.67 6.66 3.34 7.32 3 8 C3 6.35 3 4.7 3 3 C2.34 3 1.68 3 1 3 C0.67 3.99 0.34 4.98 0 6 C0 4.02 0 2.04 0 0 Z " fill="#A3C0CA" transform="translate(1050,62)"/>
<path d="M0 0 C2.64 0.33 5.28 0.66 8 1 C8 1.99 8 2.98 8 4 C7.21625 3.835 6.4325 3.67 5.625 3.5 C3.11791961 2.9376293 3.11791961 2.9376293 1 3 C0.67 3.66 0.34 4.32 0 5 C0 3.35 0 1.7 0 0 Z " fill="#455F73" transform="translate(1026,62)"/>
<path d="M0 0 C0.66 0.66 1.32 1.32 2 2 C-0.64 4.64 -3.28 7.28 -6 10 C-6.66 9.67 -7.32 9.34 -8 9 C-5.36 6.03 -2.72 3.06 0 0 Z " fill="#253742" transform="translate(78,211)"/>
<path d="M0 0 C0.66 0 1.32 0 2 0 C2.125 6.75 2.125 6.75 1 9 C0.34 9 -0.32 9 -1 9 C-1.33 9.99 -1.66 10.98 -2 12 C-1.44687265 7.97007218 -0.8441938 3.97977076 0 0 Z " fill="#98ABBB" transform="translate(602,122)"/>
<path d="M0 0 C0.99 0.33 1.98 0.66 3 1 C3.33 2.65 3.66 4.3 4 6 C2.35 6 0.7 6 -1 6 C-0.67 4.02 -0.34 2.04 0 0 Z " fill="#A5B7C2" transform="translate(493,118)"/>
<path d="M0 0 C-0.9590625 0.556875 -0.9590625 0.556875 -1.9375 1.125 C-4.63858072 3.58052793 -4.68407005 5.44578805 -5 9 C-5.33 9 -5.66 9 -6 9 C-6 6.03 -6 3.06 -6 0 C-3.50907189 -1.24546405 -2.58919267 -0.7767578 0 0 Z " fill="#122948" transform="translate(1033,65)"/>
<path d="M0 0 C0.66 0 1.32 0 2 0 C2.66 1.32 3.32 2.64 4 4 C3.01 4.495 3.01 4.495 2 5 C1.67 5.99 1.34 6.98 1 8 C0.01 6.35 -0.98 4.7 -2 3 C-1.34 3 -0.68 3 0 3 C0 2.01 0 1.02 0 0 Z " fill="#2D485C" transform="translate(1054,58)"/>
<path d="M0 0 C0 1.32 0 2.64 0 4 C-2.97 3.505 -2.97 3.505 -6 3 C-6 2.34 -6 1.68 -6 1 C-4 0 -4 0 0 0 Z " fill="#AFCCD9" transform="translate(1030,92)"/>
<path d="M0 0 C3.3 0.33 6.6 0.66 10 1 C10 1.33 10 1.66 10 2 C6.7 2.33 3.4 2.66 0 3 C0 2.01 0 1.02 0 0 Z " fill="#B5CBCF" transform="translate(657,92)"/>
<path d="M0 0 C4.875 4.75 4.875 4.75 6 7 C4.35 6.67 2.7 6.34 1 6 C0.67 4.02 0.34 2.04 0 0 Z " fill="#4A626F" transform="translate(1018,87)"/>
<path d="M0 0 C1 2 1 2 0.25 5 C-1 8 -1 8 -4 10 C-3.52449439 8.51965236 -3.04448784 7.04074979 -2.5625 5.5625 C-2.29566406 4.73878906 -2.02882813 3.91507813 -1.75390625 3.06640625 C-1 1 -1 1 0 0 Z " fill="#61747E" transform="translate(445,165)"/>
<path d="M0 0 C0.33 0.66 0.66 1.32 1 2 C1.66 2 2.32 2 3 2 C3.33 4.64 3.66 7.28 4 10 C1.2027092 7.93243723 0.97307727 6.85559629 0.3125 3.3125 C0.209375 2.219375 0.10625 1.12625 0 0 Z " fill="#536874" transform="translate(508,150)"/>
<path d="M0 0 C1.4540625 0.0309375 1.4540625 0.0309375 2.9375 0.0625 C1.9475 0.7225 0.9575 1.3825 -0.0625 2.0625 C-2.14844862 3.98157273 -3.46115709 5.66048564 -5.0625 8.0625 C-4.046875 0.08258929 -4.046875 0.08258929 0 0 Z " fill="#D3DAE1" transform="translate(55.0625,113.9375)"/>
<path d="M0 0 C0.66 0.33 1.32 0.66 2 1 C0.35 2.98 -1.3 4.96 -3 7 C-3.99 6.67 -4.98 6.34 -6 6 C-4.02 4.02 -2.04 2.04 0 0 Z " fill="#2D3C47" transform="translate(48,105)"/>
<path d="M0 0 C0.99 0 1.98 0 3 0 C1.54744301 3.82946843 -0.42895561 5.12050295 -4 7 C-2.79618552 4.50638429 -1.54571278 2.31856917 0 0 Z " fill="#364952" transform="translate(592,85)"/>
<path d="M0 0 C0 0.33 0 0.66 0 1 C-0.928125 1.268125 -1.85625 1.53625 -2.8125 1.8125 C-5.8311641 2.93710035 -6.9155143 3.70706573 -9 6 C-9.66 6 -10.32 6 -11 6 C-9.08100535 0.24301605 -5.72528715 -0.39036049 0 0 Z " fill="#B1BAC1" transform="translate(243,54)"/>
<path d="M0 0 C3.875 1.875 3.875 1.875 5 3 C5.04092937 5.33297433 5.04241723 7.66705225 5 10 C4.67 10 4.34 10 4 10 C4 8.02 4 6.04 4 4 C2.68 3.34 1.36 2.68 0 2 C0 1.34 0 0.68 0 0 Z " fill="#384858" transform="translate(151,148)"/>
<path d="M0 0 C2.0343459 1.41519715 2.90410393 2.54982123 3.421875 4.98046875 C3.66273952 6.98176954 3.83532741 8.9909944 4 11 C2 10 2 10 0.875 7.1875 C0 4 0 4 0 0 Z " fill="#B1C2D0" transform="translate(508,81)"/>
</svg>
