<?xml version="1.0" encoding="UTF-8"?>
<svg version="1.1" xmlns="http://www.w3.org/2000/svg" width="1060" height="264">
<path d="M0 0 C0.69122885 -0.00177501 1.38245771 -0.00355002 2.09463289 -0.00537882 C4.42664681 -0.01013541 6.75859931 -0.0077418 9.09061617 -0.00541991 C10.78032354 -0.00737222 12.47003046 -0.00976083 14.15973666 -0.01254788 C18.83270205 -0.01896609 23.50565029 -0.01910806 28.17861925 -0.01827047 C33.25130775 -0.01843961 38.32399004 -0.02434171 43.39667547 -0.02951133 C53.47111779 -0.03885158 63.54555573 -0.04276177 73.62000184 -0.0450303 C85.68165727 -0.04798865 97.74330685 -0.05668387 109.80495922 -0.06544458 C138.96111698 -0.08630456 168.11727546 -0.09676442 197.27343863 -0.10557419 C206.92808995 -0.10850773 216.58274105 -0.11187756 226.23739213 -0.1155414 C226.91840637 -0.11579969 227.5994206 -0.11605798 228.30107164 -0.1163241 C231.05616871 -0.11737031 233.81126578 -0.11841874 236.56636285 -0.11946992 C283.69353127 -0.13743506 330.82070004 -0.15281445 377.9478714 -0.16022895 C381.65005494 -0.16081292 385.35223848 -0.16141019 389.05442202 -0.16200657 C389.78882151 -0.16212469 390.523221 -0.16224281 391.27987502 -0.16236451 C398.72043782 -0.1635619 406.16100062 -0.16477066 413.60156342 -0.16599704 C415.093424 -0.16624227 416.58528458 -0.16648613 418.07714515 -0.16672861 C465.99148823 -0.17451854 513.90580681 -0.19690212 561.82013918 -0.22940504 C596.24514052 -0.25274953 630.670137 -0.27430188 665.09514612 -0.28141135 C665.80306307 -0.28155837 666.51098002 -0.28170539 667.240349 -0.28185687 C682.78072091 -0.28504165 698.32109278 -0.28709257 713.86146498 -0.28808442 C720.11426734 -0.28849916 726.36706969 -0.28905406 732.61987203 -0.28964633 C733.30420498 -0.289707 733.98853793 -0.28976766 734.69360824 -0.28983017 C756.74030313 -0.29184642 778.78696912 -0.30608678 800.83365392 -0.32659133 C823.65763719 -0.34774353 846.48159144 -0.35452983 869.30558533 -0.34471754 C882.46741252 -0.33949193 895.62912495 -0.34543008 908.79093568 -0.36725221 C917.57813532 -0.38072295 926.36525564 -0.37971635 935.15245601 -0.36685025 C940.16227638 -0.35992882 945.17187677 -0.35936857 950.18167783 -0.37641034 C954.7403797 -0.39179153 959.29868437 -0.38871718 963.85737437 -0.37100006 C965.49521779 -0.36785337 967.13309143 -0.3713927 968.77090028 -0.38249181 C982.05422558 -0.46663759 992.48996697 1.78535473 1003.16795439 10.12880117 C1004.0922122 10.84616445 1004.0922122 10.84616445 1005.03514189 11.57801992 C1011.35564775 17.15411065 1016.619408 26.77546601 1018.16795439 35.12880117 C1018.26781782 37.70311743 1018.31577742 40.25053352 1018.31512541 42.82486135 C1018.31880209 43.60455988 1018.32247878 44.3842584 1018.32626688 45.18758416 C1018.33728851 47.80284351 1018.34114502 50.4180631 1018.34495634 53.03334218 C1018.35122224 54.90768733 1018.35786916 56.78203124 1018.36486906 58.6563738 C1018.38590044 64.81514289 1018.39627202 70.9739122 1018.40623564 77.13270742 C1018.41028383 79.25478231 1018.41440077 81.37685708 1018.41858572 83.49893171 C1018.43763701 93.4712605 1018.451867 103.44358189 1018.46019769 113.41592538 C1018.46996392 124.91613531 1018.49626776 136.41615244 1018.53669858 147.91629446 C1018.56689497 156.81159183 1018.58166999 165.70683406 1018.5849787 174.60218167 C1018.58732556 179.91167961 1018.59623846 185.22097158 1018.62143987 190.5304144 C1018.64478657 195.52994733 1018.6489273 200.52913965 1018.63867849 205.52871305 C1018.63818459 207.3575852 1018.64446178 209.18647449 1018.65823454 211.01529485 C1018.7577297 225.01718874 1017.04568992 235.7670277 1008.16795439 247.12880117 C1007.4505911 248.05305898 1007.4505911 248.05305898 1006.71873564 248.99598867 C1001.12528338 255.33617384 991.53339933 260.54471207 983.16795439 262.12880117 C980.8920997 262.22178033 978.61366157 262.2562364 976.33590877 262.25760233 C975.64467992 262.25937734 974.95345106 262.26115235 974.24127588 262.26298115 C971.90926196 262.26773774 969.57730946 262.26534413 967.2452926 262.26302224 C965.55558523 262.26497456 963.86587831 262.26736317 962.17617211 262.27015021 C957.50320672 262.27656842 952.83025848 262.27671039 948.15728952 262.27587281 C943.08460102 262.27604195 938.01191873 262.28194404 932.9392333 262.28711367 C922.86479098 262.29645391 912.79035304 262.30036411 902.71590693 262.30263263 C890.6542515 262.30559099 878.59260192 262.3142862 866.53094955 262.32304691 C837.37479179 262.34390689 808.21863331 262.35436675 779.06247014 262.36317652 C769.40781882 262.36611006 759.75316772 262.36947989 750.09851664 262.37314373 C749.41750241 262.37340202 748.73648817 262.37366031 748.03483713 262.37392643 C745.27974006 262.37497265 742.52464299 262.37602107 739.76954592 262.37707225 C692.6423775 262.3950374 645.51520873 262.41041678 598.38803737 262.41783129 C594.68585383 262.41841526 590.98367029 262.41901253 587.28148675 262.4196089 C586.54708726 262.41972702 585.81268777 262.41984514 585.05603375 262.41996684 C577.61547095 262.42116424 570.17490815 262.422373 562.73434535 262.42359937 C561.24248477 262.42384461 559.7506242 262.42408846 558.25876362 262.42433094 C510.34442054 262.43212088 462.43010196 262.45450446 414.51576959 262.48700737 C380.09076825 262.51035186 345.66577177 262.53190421 311.24076265 262.53901368 C310.5328457 262.5391607 309.82492875 262.53930773 309.09555977 262.5394592 C293.55518786 262.54264398 278.01481599 262.5446949 262.4744438 262.54568675 C256.22164143 262.54610149 249.96883908 262.54665639 243.71603674 262.54724866 C243.03170379 262.54730933 242.34737084 262.54737 241.64230053 262.54743251 C219.59560564 262.54944876 197.54893965 262.56368912 175.50225485 262.58419366 C152.67827159 262.60534586 129.85431733 262.61213216 107.03032344 262.60231987 C93.86849625 262.59709426 80.70678382 262.60303241 67.54497309 262.62485455 C58.75777345 262.63832528 49.97065313 262.63731868 41.18345276 262.62445259 C36.17363239 262.61753115 31.164032 262.61697091 26.15423094 262.63401268 C21.59552907 262.64939386 17.0372244 262.64631952 12.4785344 262.6286024 C10.84069098 262.62545571 9.20281734 262.62899503 7.5650085 262.64009414 C-5.71831681 262.72423993 -16.1540582 260.47224761 -26.83204561 252.12880117 C-27.44821749 251.65055898 -28.06438936 251.17231679 -28.69923311 250.67958242 C-35.01973898 245.10349168 -40.28349923 235.48213632 -41.83204561 227.12880117 C-41.93190905 224.55448491 -41.97986865 222.00706882 -41.97921664 219.43274099 C-41.98473167 218.26319319 -41.98473167 218.26319319 -41.99035811 217.07001817 C-42.00137974 214.45475882 -42.00523625 211.83953923 -42.00904757 209.22426015 C-42.01531347 207.349915 -42.02196039 205.47557109 -42.02896029 203.60122854 C-42.04999167 197.44245944 -42.06036325 191.28369014 -42.07032686 185.12489492 C-42.07437506 183.00282002 -42.078492 180.88074526 -42.08267695 178.75867063 C-42.10172824 168.78634184 -42.11595823 158.81402044 -42.12428892 148.84167695 C-42.13405515 137.34146703 -42.16035899 125.84144989 -42.20078981 114.34130788 C-42.2309862 105.44601051 -42.24576122 96.55076828 -42.24906993 87.65542066 C-42.25141679 82.34592272 -42.26032969 77.03663075 -42.2855311 71.72718793 C-42.3088778 66.727655 -42.31301853 61.72846268 -42.30276972 56.72888929 C-42.30227582 54.90001714 -42.30855301 53.07112784 -42.32232577 51.24230748 C-42.42182093 37.24041359 -40.70978115 26.49057463 -31.83204561 15.12880117 C-31.35380343 14.51262929 -30.87556124 13.89645742 -30.38282686 13.26161367 C-22.88638579 4.76438827 -11.12394481 0.00667084 0 0 Z " fill="#BDD2DB" transform="translate(41.83204561471939,0.871198832988739)"/>
<path d="M0 0 C4.67604609 2.51270293 8.06443693 5.5966554 11 10 C11.23046875 12.84765625 11.23046875 12.84765625 11.1875 16.0625 C11.17783203 17.65771484 11.17783203 17.65771484 11.16796875 19.28515625 C11 22 11 22 10 24 C9.34 24 8.68 24 8 24 C7.62875 24.8971875 7.62875 24.8971875 7.25 25.8125 C5.81927475 28.31626919 4.4308418 29.48072388 2 31 C1.34 31 0.68 31 0 31 C0 42.55 0 54.1 0 66 C2.97 66.33 5.94 66.66 9 67 C12.328125 68.0859375 12.328125 68.0859375 15.25 69.375 C16.22453125 69.79523438 17.1990625 70.21546875 18.203125 70.6484375 C20.91189239 71.95742286 23.43214617 73.43674753 26 75 C25.98053689 70.67575602 25.92869569 66.35345018 25.84741211 62.0300293 C25.82428007 60.56074053 25.8098476 59.09128708 25.80444336 57.62182617 C25.79511721 55.50335655 25.75405873 53.38745935 25.70703125 51.26953125 C25.68346558 49.36071167 25.68346558 49.36071167 25.65942383 47.41333008 C24.83685595 43.1555287 23.27554486 41.74412607 20 39 C16.48281884 35.76799569 15.65113775 33.34331088 15.375 28.6875 C15.59552682 22.63526402 17.74576839 19.17241947 22 15 C25.95658573 11.38255019 30.19762341 11.49334945 35.34765625 11.65234375 C39.14513957 12.1500993 41.17639273 13.44530771 44 16 C44.94875 16.845625 45.8975 17.69125 46.875 18.5625 C49.71049657 22.17798753 49.64410352 25.85696857 49.4140625 30.3125 C48.7632561 34.53660193 47.68775534 36.62307663 45 40 C43.8140625 40.39832031 42.628125 40.79664063 41.40625 41.20703125 C39.42538882 42.14952772 39.42538882 42.14952772 38 44 C36.92675752 49.22844463 37.01954623 54.43903112 37.0625 59.75 C37.04938845 61.22529194 37.03314729 62.7005596 37.01367188 64.17578125 C36.97285327 67.78428085 36.97498348 71.39128822 37 75 C41.8321966 70.90142421 46.30613912 66.74967377 50.5 62 C54.22856457 57.82286184 58.06072039 53.99726273 62.44140625 50.5 C64.29176477 48.71920383 65.23468524 47.46349839 66 45 C65.16561919 42.52817349 65.16561919 42.52817349 64 40 C63.22001465 33.93243952 63.44057311 28.23384727 66.5234375 22.85546875 C70.02745666 18.45227007 74.65729048 14.78090317 80 13 C88.24968369 12.16230718 94.58326231 12.13514756 101.23046875 17.42578125 C101.81441406 17.94527344 102.39835938 18.46476562 103 19 C103.804375 19.639375 104.60875 20.27875 105.4375 20.9375 C109.82861913 26.73377725 109.47626714 34.04428449 109 41 C108.67 41.99 108.34 42.98 108 44 C107.34 44 106.68 44 106 44 C105.79375 44.721875 105.5875 45.44375 105.375 46.1875 C102.97895102 51.08850928 99.08719184 53.72939748 94.1875 55.8125 C89.85943138 57.27457309 85.52596162 57.65507339 81 57 C80.00226563 56.46439453 80.00226563 56.46439453 78.984375 55.91796875 C77.05380353 54.82089459 77.05380353 54.82089459 74.96875 55.203125 C64.2545119 59.53984042 54.18157111 74.62150037 47 83 C55.58 83 64.16 83 73 83 C73.66 81.35 74.32 79.7 75 78 C77.77692817 74.79585211 79.42032325 73.34487599 83.55859375 72.44140625 C89.03691637 72.06909306 92.34724481 72.69613352 96.5625 76.3125 C100.16157225 79.88164233 102.29462204 82.57365964 102.375 87.75 C102.24501362 92.70392519 101.45746684 96.33858146 98 100 C92.93741466 103.77453818 88.19815899 104.79976245 82 104 C78.24787724 101.98497111 76.36355905 100.54533858 74 97 C74 96.01 74 95.02 74 94 C64.43 94 54.86 94 45 94 C46.65 96.31 48.3 98.62 50 101 C50.92578125 103.37109375 50.92578125 103.37109375 51.3125 105.4375 C51.45300781 106.11683594 51.59351563 106.79617187 51.73828125 107.49609375 C52.10238201 110.97950553 52 114.49761124 52 118 C67.84 117.67 83.68 117.34 100 117 C100.66 115.35 101.32 113.7 102 112 C104.6894276 108.73886773 107.71646005 107.2359319 111.84765625 106.4765625 C118.37852722 106.12979059 122.4456278 107.09381563 127.4765625 111.296875 C130.88827278 115.11099214 131.50242889 118.56437273 131.37890625 123.5546875 C130.48393929 129.33045367 127.45288148 133.64617862 123.25 137.5625 C117.8230852 139.96286616 113.23750409 139.80212411 107.6875 137.8125 C104.17229166 135.4417781 101.89359619 132.78719238 100 129 C84.49 129 68.98 129 53 129 C51.68 135.27 50.36 141.54 49 148 C57.58 148 66.16 148 75 148 C75.33 147.01 75.66 146.02 76 145 C79.48819299 142.45617145 83.21896068 141.14200715 87.4375 140.375 C92.44070293 141.2527549 96.29849981 143.52466071 100 147 C102.73717607 152.31029427 103.15446107 158.3499674 101.34765625 164.0625 C99.38579035 167.96939175 96.83202117 170.42991094 92.99609375 172.34375 C88.18452658 173.9256351 83.72214256 173.69618529 79.0625 171.8125 C76.67912874 169.71802222 75.89631694 168.01488424 75 165 C74.34 165 73.68 165 73 165 C72.67 163.35 72.34 161.7 72 160 C63.09 160 54.18 160 45 160 C49.13333544 164.72381193 53.0529561 169.17049737 57.49609375 173.5234375 C58.47603289 174.49076241 59.45584733 175.45821368 60.43554688 176.42578125 C61.95024802 177.91544806 63.46655103 179.40342317 64.98510742 180.88916016 C66.47224382 182.34628443 67.95325005 183.80941757 69.43359375 185.2734375 C70.31072021 186.13372559 71.18784668 186.99401367 72.09155273 187.88037109 C74 190 74 190 74 192 C74.99966797 191.27683594 74.99966797 191.27683594 76.01953125 190.5390625 C81.65572537 187.62862936 88.81438438 187.86478311 95 189 C100.99711922 191.64317477 104.98472516 195.17771255 108 201 C110.08808501 207.09127757 110.34803519 214.87361219 107.80078125 220.78125 C105.30075628 224.66038195 103.31113528 227.17245352 99 229 C99 229.66 99 230.32 99 231 C92.10968593 234.06236181 84.45523258 233.86380814 77.25 232.0625 C71.76161307 228.57948521 67.56086892 223.92662922 64.5 218.1875 C63.64662446 212.7472309 62.8936947 206.1769302 64.73046875 200.90234375 C65.23282779 198.86325267 65.23282779 198.86325267 63.65625 196.94921875 C62.9446875 196.20285156 62.233125 195.45648438 61.5 194.6875 C60.68144531 193.82253906 59.86289063 192.95757812 59.01953125 192.06640625 C58.01553503 191.04180115 57.00876953 190.0199059 56 189 C55.39333496 188.38495605 54.78666992 187.76991211 54.16162109 187.13623047 C50.35938874 183.29237129 46.53350124 179.47314883 42.68823242 175.67236328 C40.78583919 173.78785227 38.89230917 171.89463166 37 170 C36.96988233 174.05787935 36.98541915 178.11279823 37.04272461 182.17041016 C37.05583951 183.54957973 37.05662081 184.92892525 37.04467773 186.30810547 C36.59436045 194.04256807 36.59436045 194.04256807 39.5546875 200.74633789 C41.64637629 201.99107839 41.64637629 201.99107839 45 203 C49.10354077 207.24032546 49.3611868 212.2581688 49.28515625 218.00390625 C48.80213138 221.38508034 47.18013293 223.45651159 45 226 C42.75 227.375 42.75 227.375 41 228 C41 228.66 41 229.32 41 230 C36.49916431 232.25041784 30.8584455 231.70647241 26 231 C21.12908914 228.14833307 17.82999464 223.27469044 16 218 C15.03632012 211.46839194 16.63211435 208.18049832 20.296875 202.78515625 C22 201 22 201 26 200 C26 190.76 26 181.52 26 172 C24.02 173.11375 22.04 174.2275 20 175.375 C13.19313571 179.09994281 7.86126481 181 0 181 C0 191.89 0 202.78 0 214 C1.65 214.66 3.3 215.32 5 216 C9.58333333 220.16666667 9.58333333 220.16666667 11 223 C11.06996014 224.70702735 11.08440154 226.41668003 11.0625 228.125 C11.05347656 229.03507813 11.04445312 229.94515625 11.03515625 230.8828125 C11.01775391 231.93082031 11.01775391 231.93082031 11 233 C10.34 233 9.68 233 9 233 C8.9175 233.556875 8.835 234.11375 8.75 234.6875 C7.30119908 239.15463617 4.85613032 241.48632181 0.875 243.875 C-3.73707219 245.60452707 -8.30247835 245.31019311 -13 244 C-15.875 241.75 -15.875 241.75 -18 239 C-18.763125 238.236875 -19.52625 237.47375 -20.3125 236.6875 C-22.5754318 233.08357158 -22.61679976 230.08441793 -22 226 C-20.96487685 221.61267035 -19.7149114 218.7149114 -16.5 215.5 C-14 214 -14 214 -11 214 C-11 202.78 -11 191.56 -11 180 C-16.28 179.67 -21.56 179.34 -27 179 C-31.08356561 177.07601236 -34.39507269 175.49748142 -38 173 C-38.06468206 177.3557076 -38.04022896 181.70659731 -38 186.0625 C-38.02900391 187.90618164 -38.02900391 187.90618164 -38.05859375 189.78710938 C-38.10121087 196.49726134 -38.10121087 196.49726134 -35.1875 202.29248047 C-33.06094102 204.13928657 -33.06094102 204.13928657 -30.8125 205.56811523 C-28.61071367 207.3075383 -28.35294698 208.26103922 -28 211 C-27.7331309 215.80364378 -27.79359635 219.67912618 -30 224 C-36.21453006 229.63520947 -40.64257241 231.42393344 -49.01171875 231.34375 C-53.60862504 230.81495555 -55.0230663 229.51125514 -58 226 C-61.21220278 221.5029161 -61.63185746 217.16348318 -61.484375 211.765625 C-60.69874788 207.27994756 -58.53251213 203.86585583 -55 201 C-53.35 200.67 -51.7 200.34 -50 200 C-50 190.43 -50 180.86 -50 171 C-56.38898492 176.5903618 -62.521202 182.24230363 -68.5625 188.1875 C-69.48869141 189.07630859 -70.41488281 189.96511719 -71.36914062 190.88085938 C-72.23861328 191.73873047 -73.10808594 192.59660156 -74.00390625 193.48046875 C-74.79611572 194.25285889 -75.5883252 195.02524902 -76.40454102 195.82104492 C-78.25859067 197.84412758 -78.25859067 197.84412758 -77.78393555 200.16064453 C-77.52523682 200.76763184 -77.26653809 201.37461914 -77 202 C-75.34023813 207.91586551 -75.36784947 213.70845431 -77 219.625 C-80.31827418 225.22458768 -84.28104141 229.74509604 -90.25 232.5 C-103.31677019 234.24223602 -103.31677019 234.24223602 -109.375 231.4375 C-115.77057941 225.49874769 -121.00198351 219.66998883 -121.375 210.5 C-121.09039372 203.2116044 -117.81879294 198.18020241 -113 193 C-106.49430901 188.66287268 -98.63226568 188.22422412 -91 189 C-88.16796875 190.015625 -88.16796875 190.015625 -86 191 C-85.58967529 190.52401367 -85.17935059 190.04802734 -84.7565918 189.55761719 C-80.22757888 184.33851122 -75.5605078 179.26995942 -70.8125 174.25 C-70.11447266 173.50878906 -69.41644531 172.76757812 -68.69726562 172.00390625 C-66.8038091 169.99695043 -64.91058795 167.99065705 -63 166 C-62.30608154 165.26104492 -61.61216309 164.52208984 -60.8972168 163.76074219 C-59 162 -59 162 -57 162 C-57 161.34 -57 160.68 -57 160 C-65.91 160 -74.82 160 -84 160 C-84.33 161.32 -84.66 162.64 -85 164 C-86.55859375 166.10546875 -86.55859375 166.10546875 -88.4375 168.1875 C-89.05496094 168.88230469 -89.67242187 169.57710937 -90.30859375 170.29296875 C-93.00987379 173.01920288 -95.01020167 173.22767461 -98.75 173.375 C-102.39617969 173.34343134 -104.59303704 173.08575548 -107.4375 170.75 C-112.92134852 164.86489427 -113.65852918 161.57740515 -113.48046875 153.4375 C-112.88856112 149.20271372 -111.80677491 147.01891686 -108.703125 144.1328125 C-106.08622135 142.39221145 -104.13317157 142.06266343 -101 142 C-99.081875 141.8453125 -99.081875 141.8453125 -97.125 141.6875 C-92.45161677 141.71456593 -88.94376445 143.65052331 -85 146 C-85 146.99 -85 147.98 -85 149 C-84.11699219 148.9278125 -83.23398438 148.855625 -82.32421875 148.78125 C-74.86283421 148.20421489 -67.48302669 147.86255665 -60 148 C-60.495 146.9275 -60.99 145.855 -61.5 144.75 C-63 140 -63 140 -63 128 C-78.84 128 -94.68 128 -111 128 C-111.66 129.65 -112.32 131.3 -113 133 C-115.69431106 136.50260437 -119.58554593 138.63855478 -123.95703125 139.29296875 C-128.67640653 139.48246565 -132.03225647 138.73333443 -136 136 C-140.05243292 131.46565614 -141.75243136 127.67374135 -142.3125 121.625 C-141.82641776 115.98644601 -139.10483091 113.23956639 -135.4375 109.125 C-131.83615494 106.31686259 -128.20187342 106.29970591 -123.76171875 106.51171875 C-119.5024086 107.26477924 -116.0489728 108.90517799 -113 112 C-112.34 113.65 -111.68 115.3 -111 117 C-95.49 117 -79.98 117 -64 117 C-64 114.69 -64 112.38 -64 110 C-62.9765625 106.578125 -62.9765625 106.578125 -61.625 103.25 C-60.96371094 101.58710938 -60.96371094 101.58710938 -60.2890625 99.890625 C-59 97 -59 97 -57 94 C-65.91 94 -74.82 94 -84 94 C-84.66 95.65 -85.32 97.3 -86 99 C-88.30343392 101.73921871 -89.95847388 103.64368843 -93.375 104.8125 C-94.674375 104.9053125 -94.674375 104.9053125 -96 105 C-97.134375 105.103125 -98.26875 105.20625 -99.4375 105.3125 C-104.88265566 104.83485477 -107.72257167 102.41552869 -111.3125 98.4375 C-114.42088371 93.94761241 -114.91697097 89.30471988 -114 84 C-111.62668552 79.52394435 -108.37586519 75.60807907 -104 73 C-101.203125 72.70703125 -101.203125 72.70703125 -98.25 72.8125 C-97.26515625 72.83957031 -96.2803125 72.86664063 -95.265625 72.89453125 C-94.51796875 72.92933594 -93.7703125 72.96414062 -93 73 C-93 73.66 -93 74.32 -93 75 C-92.443125 75.04125 -91.88625 75.0825 -91.3125 75.125 C-89 76 -89 76 -87.15625 79 C-85.25548755 81.35566679 -84.25784042 81.94505453 -81.25268555 82.58544922 C-77.88685979 82.81535045 -74.56108601 82.88255986 -71.1875 82.875 C-70.01767578 82.895625 -68.84785156 82.91625 -67.64257812 82.9375 C-64.76100691 82.98454606 -61.88187636 83.00444587 -59 83 C-63.1662555 78.14347732 -67.41934622 73.46666936 -72 69 C-82.0260285 59.08397495 -82.0260285 59.08397495 -85 55 C-85 54.34 -85 53.68 -85 53 C-87.475 53.495 -87.475 53.495 -90 54 C-90 54.66 -90 55.32 -90 56 C-104.59356905 57.20635703 -104.59356905 57.20635703 -109.9921875 54.5 C-112.33379786 52.48164225 -114.16607093 50.48523098 -116 48 C-116.46921875 47.37609375 -116.9384375 46.7521875 -117.421875 46.109375 C-120.85964016 40.50534686 -120.69535042 34.37257851 -120 28 C-118.2821273 21.45061034 -114.37946094 17.82034654 -109 14 C-103.97112471 11.48556235 -98.51989051 11.2078707 -93 12 C-85.71333139 14.55152077 -79.46689168 20.06621663 -76 27 C-75.90199932 29.24825087 -75.87025236 31.49961924 -75.875 33.75 C-75.87113281 35.56757812 -75.87113281 35.56757812 -75.8671875 37.421875 C-76 41 -76 41 -76.82373047 43.86547852 C-77.3384015 47.15695363 -77.3384015 47.15695363 -74.95800781 49.83666992 C-73.97416772 50.81940536 -72.97109323 51.78312987 -71.953125 52.73046875 C-71.16261749 53.50611931 -71.16261749 53.50611931 -70.35614014 54.29743958 C-68.66982796 55.94463402 -66.96087641 57.56587207 -65.25 59.1875 C-64.11299463 60.28937864 -62.97755808 61.39287857 -61.84375 62.49804688 C-59.75857227 64.52610092 -57.66498766 66.54448216 -55.55957031 68.55151367 C-53.68456486 70.34514489 -51.83476952 72.16523048 -50 74 C-50 63.77 -50 53.54 -50 43 C-51.65 42.67 -53.3 42.34 -55 42 C-60.46711842 36.2843762 -61.31773293 32.30472948 -61.20703125 24.65625 C-60.82592601 19.76659781 -58.60333762 17.30516434 -55.0625 14.1875 C-50.11059985 10.89322744 -44.7068487 10.91766663 -39 12 C-34.42633199 14.27222165 -30.61342427 17.59181448 -28 22 C-27.70703125 25.015625 -27.70703125 25.015625 -27.8125 28.25 C-27.85310547 29.86648437 -27.85310547 29.86648437 -27.89453125 31.515625 C-27.92933594 32.33546875 -27.96414062 33.1553125 -28 34 C-28.66 34 -29.32 34 -30 34 C-30.37125 35.1446875 -30.37125 35.1446875 -30.75 36.3125 C-32.12130672 39.26080945 -33.2351079 40.35834532 -36 42 C-36.66 42 -37.32 42 -38 42 C-38 52.89 -38 63.78 -38 75 C-31.07 71.535 -31.07 71.535 -24 68 C-18.06 67.01 -18.06 67.01 -12 66 C-12 54.12 -12 42.24 -12 30 C-13.65 29.67 -15.3 29.34 -17 29 C-20.56411226 26.14871019 -21.72413095 24.48544872 -22.55859375 19.9921875 C-22.8974003 14.03195795 -22.67243998 9.94044516 -18.6875 5.3125 C-12.9264759 -0.32774791 -7.91988411 -1.31344613 0 0 Z " fill="#102B39" transform="translate(146,11)"/>
<path d="M0 0 C16.22222222 0 16.22222222 0 20 2 C23.00448583 5.4459613 25.4782621 9.19333077 28 13 C29.38443378 14.96640872 30.77995189 16.92506963 32.1875 18.875 C32.79980469 19.73867188 33.41210938 20.60234375 34.04296875 21.4921875 C35.96417802 24.06597888 35.96417802 24.06597888 38.375 26.33984375 C41.55347825 29.56089091 44.15753229 33.03293164 46.8125 36.6875 C47.31458984 37.36361328 47.81667969 38.03972656 48.33398438 38.73632812 C52 43.74904337 52 43.74904337 52 46 C52.99 46.33 53.98 46.66 55 47 C56.28686523 48.45532227 56.28686523 48.45532227 57.55859375 50.31640625 C58.02716797 50.99896484 58.49574219 51.68152344 58.97851562 52.38476562 C59.45998047 53.10341797 59.94144531 53.82207031 60.4375 54.5625 C60.91509766 55.25408203 61.39269531 55.94566406 61.88476562 56.65820312 C64.2126752 60.08460501 66.27917339 63.46033895 68.03515625 67.21484375 C69.78585065 70.86842793 72.04536157 73.2054426 75 76 C76.5049394 78.0287434 77.96208193 80.09362682 79.375 82.1875 C80.15719423 83.34008669 80.93975036 84.49242785 81.72265625 85.64453125 C82.10566895 86.21123535 82.48868164 86.77793945 82.88330078 87.36181641 C84.49303793 89.7232804 86.1547819 92.04706468 87.8125 94.375 C89.80623493 97.20407294 91.64069734 100.03235769 93.3125 103.0625 C94.6806304 106.07064634 94.6806304 106.07064634 97 107 C97 71.69 97 36.38 97 0 C106.24 0 115.48 0 125 0 C125.02866416 9.08335291 125.05163381 18.16661955 125.0625 27.25 C125.06335602 27.96017399 125.06421204 28.67034798 125.06509399 29.40204239 C125.09741544 59.9991905 124.82147578 90.59227312 124.5 121.1875 C124.48804218 122.3259285 124.47608437 123.46435699 124.46376419 124.63728333 C124.31491279 138.75825332 124.160238 152.87915478 124 167 C122.41018012 167.01358014 120.82032642 167.02323415 119.23046875 167.03125 C118.34512451 167.03705078 117.45978027 167.04285156 116.54760742 167.04882812 C112.10270434 166.96363592 108.65888189 166.49112978 105.26171875 163.4375 C101.36162358 159.14826007 98.07934783 154.39872706 94.8046875 149.625 C90.04921215 142.70794495 85.0225776 136.00266254 79.875 129.375 C76.01112146 124.38689992 72.42600759 119.29624362 69 114 C67.38240061 111.53673872 65.75527822 109.07988504 64.125 106.625 C63.69622559 105.97869629 63.26745117 105.33239258 62.82568359 104.66650391 C59.57447603 99.79398498 56.1518791 95.0673943 52.671875 90.35546875 C51.26967498 88.37993928 50.03772016 86.43303472 48.875 84.3125 C46.24922412 79.67362928 43.03668726 75.59765277 39.75195312 71.40820312 C38.83637253 70.24041094 37.92250017 69.07127763 37.01025391 67.90087891 C36.09516824 66.72775005 35.17564155 65.55807034 34.25146484 64.39208984 C31 60.22408799 31 60.22408799 31 58 C30.34 58 29.68 58 29 58 C29 94.3 29 130.6 29 168 C19.43 168 9.86 168 0 168 C0 112.56 0 57.12 0 0 Z " fill="#082330" transform="translate(711,43)"/>
<path d="M0 0 C8.91 0 17.82 0 27 0 C27.33 55.77 27.66 111.54 28 169 C22.06 168.67 16.12 168.34 10 168 C9.34 166.68 8.68 165.36 8 164 C7.01 163.67 6.02 163.34 5 163 C5 162.01 5 161.02 5 160 C4.34 160 3.68 160 3 160 C1.7109375 158.3203125 1.7109375 158.3203125 0.375 156.125 C-0.07101562 155.40570313 -0.51703125 154.68640625 -0.9765625 153.9453125 C-2 152 -2 152 -2 150 C-2.99 149.67 -3.98 149.34 -5 149 C-5 147.68 -5 146.36 -5 145 C-5.99 144.67 -6.98 144.34 -8 144 C-8.64617411 142.36756015 -9.29057823 140.7343963 -9.92578125 139.09765625 C-12.11983469 134.81326826 -15.73402096 131.48880412 -19 128 C-24.55442983 121.86160811 -24.55442983 121.86160811 -25 118 C-25.66 118 -26.32 118 -27 118 C-27.33 116.68 -27.66 115.36 -28 114 C-28.66 114 -29.32 114 -30 114 C-30.33 112.68 -30.66 111.36 -31 110 C-31.66 110 -32.32 110 -33 110 C-33.4021875 108.5459375 -33.4021875 108.5459375 -33.8125 107.0625 C-34.204375 106.051875 -34.59625 105.04125 -35 104 C-35.99 103.67 -36.98 103.34 -38 103 C-41 97.77777778 -41 97.77777778 -41 95 C-41.66 95 -42.32 95 -43 95 C-44.2890625 93.3203125 -44.2890625 93.3203125 -45.625 91.125 C-46.07101562 90.40570313 -46.51703125 89.68640625 -46.9765625 88.9453125 C-48 87 -48 87 -48 85 C-48.66 85 -49.32 85 -50 85 C-51.33203125 83.0234375 -51.33203125 83.0234375 -52.8125 80.375 C-54.64819307 77.19072651 -56.45641414 74.27000432 -58.875 71.5 C-61 69 -61 69 -61 67 C-61.99 66.67 -62.98 66.34 -64 66 C-64 64.68 -64 63.36 -64 62 C-64.99 61.67 -65.98 61.34 -67 61 C-67 59.68 -67 58.36 -67 57 C-67.99 57 -68.98 57 -70 57 C-70 93.63 -70 130.26 -70 168 C-79.24 168 -88.48 168 -98 168 C-98 112.89 -98 57.78 -98 1 C-91.73 1.33 -85.46 1.66 -79 2 C-78.34 3.32 -77.68 4.64 -77 6 C-76.34 6.33 -75.68 6.66 -75 7 C-74.608125 7.680625 -74.21625 8.36125 -73.8125 9.0625 C-71.82984571 12.27576729 -69.54451097 14.87588687 -67.03515625 17.68359375 C-63.22929831 22.01540518 -59.62532222 26.51693057 -56 31 C-55.31292969 31.83144531 -54.62585938 32.66289063 -53.91796875 33.51953125 C-52 36 -52 36 -50.60839844 38.35058594 C-48.99736861 41.00433452 -47.24342165 43.41405167 -45.34765625 45.87109375 C-44.65349609 46.77537109 -43.95933594 47.67964844 -43.24414062 48.61132812 C-42.52419922 49.54396484 -41.80425781 50.47660156 -41.0625 51.4375 C-36.8786762 56.86404374 -32.73130523 62.2475711 -29 68 C-26.14389011 72.07939535 -26.14389011 72.07939535 -23.26757812 76.14453125 C-21.39841528 78.81294431 -19.79301789 81.41885742 -18.34765625 84.34375 C-17.27539925 87.11034107 -17.27539925 87.11034107 -15 88 C-15 88.66 -15 89.32 -15 90 C-14.34 90 -13.68 90 -13 90 C-11.56412562 92.01620694 -10.2702466 94.00792234 -9 96.125 C-8.64421875 96.69476563 -8.2884375 97.26453125 -7.921875 97.8515625 C-5.72508044 101.45824013 -4.18168894 104.95025352 -3 109 C-2.34 109 -1.68 109 -1 109 C-1.00092179 108.4443187 -1.00184359 107.88863741 -1.00279331 107.31611729 C-1.02484982 93.8132345 -1.04134841 80.31035485 -1.05181217 66.80745792 C-1.0570417 60.27763767 -1.06414061 53.74783037 -1.07543945 47.21801758 C-1.08626585 40.92218841 -1.09227631 34.62637174 -1.09487724 28.33053398 C-1.09673194 25.92265056 -1.1003534 23.51476786 -1.10573006 21.10688972 C-1.1129372 17.74710714 -1.11399108 14.3873769 -1.11352539 11.02758789 C-1.11712067 10.02130341 -1.12071594 9.01501892 -1.12442017 7.97824097 C-1.1230455 7.06813766 -1.12167084 6.15803436 -1.12025452 5.22035217 C-1.12117631 4.42484483 -1.1220981 3.62933748 -1.12304783 2.80972385 C-1 1 -1 1 0 0 Z " fill="#092230" transform="translate(955,42)"/>
<path d="M0 0 C1.75 0.125 1.75 0.125 4 1 C8.02691027 5.75907578 9.44450435 11.03726667 11 17 C11.66 17 12.32 17 13 17 C17.08844617 24.44255977 21.09104847 31.75014567 24.0625 39.72265625 C25.39451202 42.95833546 27.13818235 45.90604085 28.94921875 48.89453125 C30 51 30 51 30.45703125 53.57421875 C30.77733345 56.02973641 30.77733345 56.02973641 32.40356445 57.38842773 C34.21926741 59.22134641 35.03810797 60.85959778 36.0859375 63.2109375 C36.64269165 64.45145874 36.64269165 64.45145874 37.21069336 65.71704102 C37.59491455 66.59416748 37.97913574 67.47129395 38.375 68.375 C38.77275635 69.26952881 39.1705127 70.16405762 39.58032227 71.08569336 C42.26609684 77.17757569 44.75640766 83.30708779 47.02734375 89.56640625 C47.98073325 92.19457131 47.98073325 92.19457131 50 95 C50.28875 96.093125 50.5775 97.18625 50.875 98.3125 C52.05753833 102.18859787 53.74942479 104.65823681 56 108 C56.82895745 109.93835822 57.53085301 111.89964335 58.234375 113.88671875 C60.49512943 120.12686235 63.50129042 126.0272296 66.5 131.9375 C68.96326967 136.79260257 71.1543633 141.67736528 73.1015625 146.76171875 C74.25802011 149.64280662 75.64138504 152.37312593 77.06640625 155.12890625 C77.96094235 156.92172128 78.73392304 158.77364735 79.5 160.625 C80.92147133 164.08600358 80.92147133 164.08600358 83.1875 167.25 C85 170 85 170 85 173 C74.11 173 63.22 173 52 173 C51.01 170.525 51.01 170.525 50 168 C49.38125 166.989375 48.7625 165.97875 48.125 164.9375 C45.74593655 160.89045848 44.48772259 156.59485082 43.078125 152.13671875 C41.69020492 148.09867592 39.91917028 144.30777057 38.05078125 140.47265625 C37 138 37 138 36 133 C15.87 133 -4.26 133 -25 133 C-25.99 135.97 -26.98 138.94 -28 142 C-31.31908779 151.40029315 -35.42609145 160.16325476 -40 169 C-40.99 170.98 -40.99 170.98 -42 173 C-51.57 173 -61.14 173 -71 173 C-71 171.35 -71 169.7 -71 168 C-70.34 168 -69.68 168 -69 168 C-68.9175 167.34 -68.835 166.68 -68.75 166 C-67.96470503 162.85882012 -66.64178576 160.31668759 -65.15625 157.45703125 C-63.81561207 154.60817565 -62.78444212 151.72402109 -61.75 148.75 C-57.51031233 136.60669705 -52.97910457 124.48043674 -47.015625 113.0703125 C-44.75223897 108.45648713 -43.42725473 103.5135542 -42.03515625 98.58203125 C-41.69355469 97.39996094 -41.35195313 96.21789062 -41 95 C-40.5359375 93.329375 -40.5359375 93.329375 -40.0625 91.625 C-39.711875 90.75875 -39.36125 89.8925 -39 89 C-38.01 88.67 -37.02 88.34 -36 88 C-35.89042969 87.18015625 -35.78085937 86.3603125 -35.66796875 85.515625 C-35.50941406 84.43796875 -35.35085938 83.3603125 -35.1875 82.25 C-35.03667969 81.18265625 -34.88585937 80.1153125 -34.73046875 79.015625 C-33.96862408 75.87046948 -32.9680642 74.49423047 -31 72 C-30.1365379 69.46957634 -29.49838897 66.931123 -28.84375 64.33984375 C-27.92267064 61.78555424 -26.89841135 60.87413499 -25 59 C-23.9170974 56.62009675 -23.9170974 56.62009675 -23.0625 53.9375 C-19.64288598 44.06872798 -15.77110219 34.36242185 -11 25.0625 C-9.07917581 21.28838059 -7.54881615 17.40783273 -6.01171875 13.46484375 C-4.536536 9.87086571 -2.76120382 6.46167648 -1 3 C-0.67 2.01 -0.34 1.02 0 0 Z " fill="#0A2533" transform="translate(482,38)"/>
<path d="M0 0 C1.02480469 -0.020625 2.04960938 -0.04125 3.10546875 -0.0625 C13.28782093 -0.11425274 21.34266026 2.50179886 30.25 7.25 C35.45001792 9.98901934 40.58743941 12.26560989 46.125 14.25 C47.79405395 14.91066719 49.4619416 15.57438252 51.125 16.25 C50.5514514 19.57658187 49.76508597 21.13793122 47.125 23.25 C46.0525 23.78625 44.98 24.3225 43.875 24.875 C38.74486782 27.69111511 34.14803027 32.89354113 32.4296875 38.53125 C32.32914063 39.0984375 32.22859375 39.665625 32.125 40.25 C29.36223823 39.72731534 26.7989124 39.14130413 24.125 38.25 C24.125 37.59 24.125 36.93 24.125 36.25 C23.2896875 36.064375 23.2896875 36.064375 22.4375 35.875 C20.125 35.25 20.125 35.25 17.80078125 34.28125 C10.0094253 31.27845004 1.63522258 31.03543461 -6.625 30.9375 C-7.41664551 30.91993652 -8.20829102 30.90237305 -9.02392578 30.88427734 C-14.6415336 30.89014982 -18.70304149 32.0673893 -23.875 34.25 C-25.73125 34.745 -25.73125 34.745 -27.625 35.25 C-34.77624655 37.88018014 -42.86516965 45.83684184 -46.875 52.25 C-47.64814488 54.59255937 -47.64814488 54.59255937 -48.0625 57 C-48.30033203 58.19882813 -48.30033203 58.19882813 -48.54296875 59.421875 C-48.65253906 60.02515625 -48.76210938 60.6284375 -48.875 61.25 C-49.535 61.25 -50.195 61.25 -50.875 61.25 C-51.1910849 62.60333438 -51.50264351 63.95772601 -51.8125 65.3125 C-52.07353516 66.44365234 -52.07353516 66.44365234 -52.33984375 67.59765625 C-53.76136451 74.64300368 -54.02788235 81.40138189 -54 88.5625 C-54.00386719 89.54412109 -54.00773438 90.52574219 -54.01171875 91.53710938 C-54.00338495 97.83329235 -53.62917246 103.99930182 -52.875 110.25 C-52.215 110.25 -51.555 110.25 -50.875 110.25 C-50.75125 110.86746094 -50.6275 111.48492187 -50.5 112.12109375 C-48.68067284 119.59170592 -45.26220316 123.89467378 -39.875 129.25 C-39.029375 130.178125 -38.18375 131.10625 -37.3125 132.0625 C-26.5261049 141.74259816 -12.32911626 143.03262766 1.54296875 142.56640625 C10.53915295 142.05986026 16.97538257 139.07841849 24.58203125 134.359375 C27.65814673 133.01741372 28.98875451 133.14947234 32.125 134.25 C33.7578125 135.37890625 33.7578125 135.37890625 35.25 136.8125 C39.20233099 140.44058211 43.53838713 143.39749297 47.96484375 146.41796875 C48.67769531 147.02253906 49.39054688 147.62710938 50.125 148.25 C50.125 149.24 50.125 150.23 50.125 151.25 C49.196875 151.6521875 49.196875 151.6521875 48.25 152.0625 C45.8254767 153.20556848 45.8254767 153.20556848 44.125 156.25 C36.49240231 160.93230512 27.08446467 165.30689846 18.125 166.25 C18.125 166.91 18.125 167.57 18.125 168.25 C11.01226028 170.11709418 4.46220026 170.55516692 -2.875 170.5 C-3.90367187 170.50773438 -4.93234375 170.51546875 -5.9921875 170.5234375 C-15.15049955 170.50013391 -22.61469309 169.06583214 -31 165.3125 C-32.70542969 164.55646484 -32.70542969 164.55646484 -34.4453125 163.78515625 C-35.57710937 163.27855469 -36.70890625 162.77195313 -37.875 162.25 C-39.08027344 161.73695313 -40.28554688 161.22390625 -41.52734375 160.6953125 C-45.39815241 159.0241349 -49.11826908 157.16131924 -52.875 155.25 C-52.875 154.59 -52.875 153.93 -52.875 153.25 C-53.60847656 153.01667969 -54.34195313 152.78335938 -55.09765625 152.54296875 C-58.37019377 151.01946675 -59.96763701 149.2919038 -62.3125 146.5625 C-63.08851563 145.66402344 -63.86453125 144.76554688 -64.6640625 143.83984375 C-65.39367187 142.98519531 -66.12328125 142.13054687 -66.875 141.25 C-67.75285156 140.29287109 -67.75285156 140.29287109 -68.6484375 139.31640625 C-75.01719869 132.31723469 -77.81262546 124.08324924 -80.875 115.25 C-81.266875 114.198125 -81.65875 113.14625 -82.0625 112.0625 C-88.12487345 91.07736115 -85.12286912 63.7898525 -75.875 44.25 C-73.72152453 40.44684377 -71.36318485 36.84083753 -68.875 33.25 C-68.45347656 32.59257813 -68.03195312 31.93515625 -67.59765625 31.2578125 C-64.39382296 26.40351963 -60.35272187 22.91501144 -55.875 19.25 C-54.65876953 18.20392578 -54.65876953 18.20392578 -53.41796875 17.13671875 C-42.8416362 8.25 -42.8416362 8.25 -35.875 8.25 C-35.875 7.59 -35.875 6.93 -35.875 6.25 C-33.37761142 5.42865011 -30.87755195 4.61784252 -28.375 3.8125 C-27.67890625 3.58240234 -26.9828125 3.35230469 -26.265625 3.11523438 C-17.54854693 0.33061221 -9.09018004 0.04539416 0 0 Z " fill="#0A2634" transform="translate(644.875,41.75)"/>
<path d="M0 0 C9.82591648 6.83311712 16.13991893 15.35788566 18.8984375 27.015625 C20.43857597 40.84046506 18.81107637 53.81116471 9.8984375 65.015625 C9.38023437 65.69882813 8.86203125 66.38203125 8.328125 67.0859375 C1.97464102 74.92810392 -7.2822823 82.27035239 -17.53125 83.83984375 C-37.19049653 85.1843211 -37.19049653 85.1843211 -46.1015625 81.015625 C-46.7615625 80.355625 -47.4215625 79.695625 -48.1015625 79.015625 C-49.77665584 78.32030324 -51.45305274 77.62608033 -53.15234375 76.9921875 C-62.7562199 72.1806263 -69.14315163 61.54421301 -72.4453125 51.68359375 C-74.14039097 44.79229259 -74.14666148 38.35763916 -73.7890625 31.328125 C-73.75361328 30.39162109 -73.71816406 29.45511719 -73.68164062 28.49023438 C-73.63845703 27.58724609 -73.59527344 26.68425781 -73.55078125 25.75390625 C-73.51299561 24.93962158 -73.47520996 24.12533691 -73.4362793 23.28637695 C-73.07680046 20.84763684 -72.31660822 19.14569385 -71.1015625 17.015625 C-70.4415625 17.015625 -69.7815625 17.015625 -69.1015625 17.015625 C-68.9984375 16.27054688 -68.8953125 15.52546875 -68.7890625 14.7578125 C-66.89691022 7.21070513 -58.46834693 0.93657445 -52.1015625 -2.984375 C-34.98672589 -11.75213089 -16.08633336 -9.84202401 0 0 Z " fill="#F3F5F6" transform="translate(168.1015625,96.984375)"/>
<path d="M0 0 C6.59549218 3.45694763 10.98929683 10.63484365 14.265625 17.1875 C15.54179508 28.15610104 12.83495801 34.8029525 6.5546875 43.578125 C2.87272033 48.20973981 0.12526894 50.23082344 -5.734375 51.1875 C-5.734375 51.8475 -5.734375 52.5075 -5.734375 53.1875 C-13.89236783 55.01858233 -22.11886377 55.40783909 -29.703125 51.51953125 C-35.3877394 47.79173604 -41.30571948 41.89496804 -43.31445312 35.27612305 C-44.81932087 27.79115584 -45.40620548 18.26487968 -42.48828125 11.1484375 C-32.24944163 -2.61369797 -15.64797766 -6.58862217 0 0 Z " fill="#132E3C" transform="translate(155.734375,109.8125)"/>
<path d="M0 0 C5.41226438 3.1045811 10.05500874 7.11243339 14.046875 11.8984375 C14.48128906 12.41921875 14.91570312 12.94 15.36328125 13.4765625 C19.03806487 18.75186163 18.59965184 24.70008736 18.046875 30.8984375 C17.716875 31.8884375 17.386875 32.8784375 17.046875 33.8984375 C16.386875 33.8984375 15.726875 33.8984375 15.046875 33.8984375 C14.881875 34.5790625 14.716875 35.2596875 14.546875 35.9609375 C12.35695567 40.24952953 8.92686501 43.09352806 5.046875 45.8984375 C4.386875 45.8984375 3.726875 45.8984375 3.046875 45.8984375 C3.046875 46.5584375 3.046875 47.2184375 3.046875 47.8984375 C0.571875 48.3934375 0.571875 48.3934375 -1.953125 48.8984375 C-1.953125 49.5584375 -1.953125 50.2184375 -1.953125 50.8984375 C-11.89763513 51.69282145 -19.79351133 51.04228862 -27.953125 44.8984375 C-34.75106566 37.33865866 -36.28591252 31.35750135 -36.15234375 21.33984375 C-35.69058551 13.36319652 -31.82453316 9.3267891 -26.40234375 3.9140625 C-18.90710719 -2.25426615 -9.11976425 -3.40181682 0 0 Z " fill="#C7E0EA" transform="translate(1036.953125,32.1015625)"/>
<path d="M0 0 C3 1 3 1 3.93554688 2.59472656 C4.19400391 3.26987305 4.45246094 3.94501953 4.71875 4.640625 C5.15767578 5.75244141 5.15767578 5.75244141 5.60546875 6.88671875 C5.90066406 7.66660156 6.19585937 8.44648437 6.5 9.25 C8.68913222 15.06028849 8.68913222 15.06028849 11.5546875 20.546875 C13.51368873 23.87188249 14.52411838 27.31680345 15.625 31 C15.94984375 32.04800781 15.94984375 32.04800781 16.28125 33.1171875 C17.38905777 36.74149686 18.25497374 40.27486868 19 44 C7.45 44 -4.1 44 -16 44 C-13.78375 34.026875 -13.78375 34.026875 -11.625 29.8125 C-8.56237654 23.41461598 -6.78881944 16.8454822 -5 10 C-4.34 10 -3.68 10 -3 10 C-2.86722656 9.36191406 -2.73445313 8.72382812 -2.59765625 8.06640625 C-2.42105469 7.24011719 -2.24445313 6.41382812 -2.0625 5.5625 C-1.88847656 4.73878906 -1.71445312 3.91507812 -1.53515625 3.06640625 C-1 1 -1 1 0 0 Z " fill="#BAD6E0" transform="translate(485,100)"/>
<path d="M0 0 C4.90485341 3.43520064 7.97425624 6.91470497 9.06640625 12.9609375 C9.52101994 18.60008178 7.9628619 21.77329189 4.48828125 26.13671875 C0.56890162 29.89456213 -2.76327632 31.32011455 -8.1875 31.42578125 C-13.40463739 31.2846041 -16.35446019 30.41518476 -19.97265625 26.62890625 C-23.2755934 22.27634768 -24.60028235 18.64573893 -24.125 13.23828125 C-23.42381015 8.76438515 -22.58236499 5.13314624 -19.3125 1.86328125 C-13.23181761 -1.43042171 -6.51587594 -3.20290523 0 0 Z " fill="#EBEFF2" transform="translate(148.3125,120.13671875)"/>
<path d="M0 0 C5.41226438 3.1045811 10.05500874 7.11243339 14.046875 11.8984375 C14.48128906 12.41921875 14.91570312 12.94 15.36328125 13.4765625 C19.03806487 18.75186163 18.59965184 24.70008736 18.046875 30.8984375 C17.716875 31.8884375 17.386875 32.8784375 17.046875 33.8984375 C16.386875 33.8984375 15.726875 33.8984375 15.046875 33.8984375 C14.881875 34.5790625 14.716875 35.2596875 14.546875 35.9609375 C12.35695567 40.24952953 8.92686501 43.09352806 5.046875 45.8984375 C4.386875 45.8984375 3.726875 45.8984375 3.046875 45.8984375 C3.046875 46.5584375 3.046875 47.2184375 3.046875 47.8984375 C0.571875 48.3934375 0.571875 48.3934375 -1.953125 48.8984375 C-1.953125 49.5584375 -1.953125 50.2184375 -1.953125 50.8984375 C-11.89763513 51.69282145 -19.79351133 51.04228862 -27.953125 44.8984375 C-34.75106566 37.33865866 -36.28591252 31.35750135 -36.15234375 21.33984375 C-35.69058551 13.36319652 -31.82453316 9.3267891 -26.40234375 3.9140625 C-18.90710719 -2.25426615 -9.11976425 -3.40181682 0 0 Z M-28.421875 13.7421875 C-31.09593362 17.50769862 -31.0638956 20.5967719 -31.015625 25.0859375 C-31.00660156 26.17261719 -30.99757813 27.25929688 -30.98828125 28.37890625 C-30.97667969 29.21035156 -30.96507812 30.04179688 -30.953125 30.8984375 C-30.293125 30.8984375 -29.633125 30.8984375 -28.953125 30.8984375 C-28.89125 31.919375 -28.89125 31.919375 -28.828125 32.9609375 C-27.26177584 38.2193954 -23.64739035 41.67699038 -19.265625 44.8359375 C-12.86569106 46.8887465 -6.02222725 46.95688273 0.046875 43.8984375 C2.67187844 41.92242478 2.67187844 41.92242478 5.171875 39.5859375 C6.02007813 38.82667969 6.86828125 38.06742188 7.7421875 37.28515625 C11.56565784 33.32559629 13.48875837 30.1423434 13.609375 24.5859375 C13.43657316 18.47204382 11.27957624 15.15046614 7.046875 10.8984375 C6.54414062 10.393125 6.04140625 9.8878125 5.5234375 9.3671875 C0.66455456 4.94534694 -4.28020729 3.41506444 -10.81640625 3.6640625 C-18.94451705 4.55562858 -23.18178616 7.5039865 -28.421875 13.7421875 Z " fill="#032541" transform="translate(1036.953125,32.1015625)"/>
<path d="M0 0 C14.625 0 14.625 0 20 2 C19.67 2.66 19.34 3.32 19 4 C18.67 3.67 18.34 3.34 18 3 C12.72 2.67 7.44 2.34 2 2 C2 56.12 2 110.24 2 166 C10.58 166 19.16 166 28 166 C28 144.88 28 123.76 28 102 C28.33 102 28.66 102 29 102 C29 123.78 29 145.56 29 168 C19.43 168 9.86 168 0 168 C0 112.56 0 57.12 0 0 Z " fill="#4F6E7E" transform="translate(711,43)"/>
<path d="M0 0 C9.9 0 19.8 0 30 0 C30 55.77 30 111.54 30 169 C23.73 169 17.46 169 11 169 C9.02 166.525 9.02 166.525 7 164 C7.495 163.01 7.495 163.01 8 162 C8.66386719 162.63421875 9.32773437 163.2684375 10.01171875 163.921875 C13.55905138 166.38877821 16.62451654 166.86526659 20.8125 167.25 C21.50537109 167.32734375 22.19824219 167.4046875 22.91210938 167.484375 C24.60647581 167.67133957 26.3030858 167.83777927 28 168 C27.99777939 166.89597336 27.99555878 165.79194672 27.99327087 164.65446472 C27.96574351 150.49881836 27.94814407 136.34316895 27.9375 122.1875 C27.93664398 121.05712814 27.93578796 119.92675629 27.93490601 118.76213074 C27.91472472 88.58774197 27.9954146 58.4205704 28.5 28.25 C28.51195782 27.53442806 28.52391563 26.81885612 28.53623581 26.08160019 C28.6771385 17.72076592 28.83584002 9.36043324 29 1 C19.76 1 10.52 1 1 1 C1 36.31 1 71.62 1 108 C0.01 107.67 -0.98 107.34 -2 107 C-1.01 106.505 -1.01 106.505 0 106 C0 71.02 0 36.04 0 0 Z " fill="#819DA6" transform="translate(807,42)"/>
<path d="M0 0 C5.5952381 0.5952381 5.5952381 0.5952381 8 3 C8 4.32 8 5.64 8 7 C8.66 7 9.32 7 10 7 C10 8.65 10 10.3 10 12 C10.99 12 11.98 12 13 12 C13.37125 10.6696875 13.37125 10.6696875 13.75 9.3125 C15.0648869 5.82804971 16.37111879 3.62888121 19 1 C20.32 1 21.64 1 23 1 C23 3.31 23 5.62 23 8 C22.34 8 21.68 8 21 8 C21 14.27 21 20.54 21 27 C20.01 27 19.02 27 18 27 C18 22.05 18 17.1 18 12 C17.01 12.66 16.02 13.32 15 14 C14.41651248 16.6556728 14.41651248 16.6556728 14.3125 19.625 C14.24675781 20.62789062 14.18101563 21.63078125 14.11328125 22.6640625 C14.07589844 23.43492188 14.03851562 24.20578125 14 25 C11.0625 23.875 11.0625 23.875 8 22 C7.125 18.8125 7.125 18.8125 7 16 C6.34 16 5.68 16 5 16 C5.04125 17.216875 5.0825 18.43375 5.125 19.6875 C5.13754508 23.21894127 4.59998217 25.80003566 3 29 C2.01 29 1.02 29 0 29 C-0.16729064 25.03092526 -0.32788226 21.06164279 -0.48217773 17.09204102 C-0.53565802 15.74072921 -0.59099194 14.38948948 -0.64819336 13.03833008 C-0.72993571 11.09997011 -0.80453323 9.16131296 -0.87890625 7.22265625 C-0.9260376 6.05484619 -0.97316895 4.88703613 -1.02172852 3.68383789 C-1 1 -1 1 0 0 Z " fill="#08253F" transform="translate(1018,43)"/>
<path d="M0 0 C8.91 0 17.82 0 27 0 C27.33 55.77 27.66 111.54 28 169 C22.06 168.67 16.12 168.34 10 168 C10 167.67 10 167.34 10 167 C15.28 167 20.56 167 26 167 C26 112.22 26 57.44 26 1 C24.68 1.33 23.36 1.66 22 2 C14.74 2 7.48 2 0 2 C0 37.97 0 73.94 0 111 C-1.32 111 -2.64 111 -4 111 C-3.67 109.68 -3.34 108.36 -3 107 C-3 107.66 -3 108.32 -3 109 C-2.34 109 -1.68 109 -1 109 C-1.00092179 108.4443187 -1.00184359 107.88863741 -1.00279331 107.31611729 C-1.02484982 93.8132345 -1.04134841 80.31035485 -1.05181217 66.80745792 C-1.0570417 60.27763767 -1.06414061 53.74783037 -1.07543945 47.21801758 C-1.08626585 40.92218841 -1.09227631 34.62637174 -1.09487724 28.33053398 C-1.09673194 25.92265056 -1.1003534 23.51476786 -1.10573006 21.10688972 C-1.1129372 17.74710714 -1.11399108 14.3873769 -1.11352539 11.02758789 C-1.11712067 10.02130341 -1.12071594 9.01501892 -1.12442017 7.97824097 C-1.1230455 7.06813766 -1.12167084 6.15803436 -1.12025452 5.22035217 C-1.12117631 4.42484483 -1.1220981 3.62933748 -1.12304783 2.80972385 C-1 1 -1 1 0 0 Z " fill="#425F6E" transform="translate(955,42)"/>
<path d="M0 0 C6.27 0.33 12.54 0.66 19 1 C19.33 1.99 19.66 2.98 20 4 C17.56212615 3.8590651 15.12482147 3.71245458 12.6875 3.5625 C11.65206055 3.50352539 11.65206055 3.50352539 10.59570312 3.44335938 C7.52838465 3.25072585 4.93031848 2.97677283 2 2 C2 56.12 2 110.24 2 166 C10.25 166 18.5 166 27 166 C27 142.57 27 119.14 27 95 C27.33 95 27.66 95 28 95 C28 118.76 28 142.52 28 167 C18.76 167 9.52 167 0 167 C0 111.89 0 56.78 0 0 Z " fill="#26404F" transform="translate(857,43)"/>
<path d="M0 0 C2.875 2.4375 2.875 2.4375 5 5 C5.33 5.33 5.66 5.66 6 6 C6.51611006 12.09009877 6.04623402 15.1207178 2 20 C-1.53668783 21.76834391 -5.15952262 21.77838821 -9 21 C-13.04168334 18.2372266 -14.76959389 15.19392257 -15.6875 10.4375 C-14.7754608 5.87730399 -13.31281229 4.23577014 -10 1 C-6.36217368 -0.21260877 -3.82264001 -0.39544552 0 0 Z " fill="#ECEFF1" transform="translate(237,211)"/>
<path d="M0 0 C4.60499161 0.63205767 7.38224446 2.76164791 10.1875 6.4375 C10.88626329 10.42045073 10.60215465 12.52525977 8.9375 16.1875 C7.11562472 18.52991108 5.79805049 20.02034402 3.1875 21.4375 C-0.66081063 21.83836569 -3.65802874 21.80335344 -6.8125 19.4375 C-8.0625 16.8125 -8.0625 16.8125 -8.8125 14.4375 C-9.4725 14.4375 -10.1325 14.4375 -10.8125 14.4375 C-11.29945652 7.2548913 -11.29945652 7.2548913 -9.0625 3.5 C-5.93244041 0.63077871 -4.07100263 0.63326708 0 0 Z " fill="#EBEEF1" transform="translate(47.8125,34.5625)"/>
<path d="M0 0 C0 0.66 0 1.32 0 2 C0.61875 2.28875 1.2375 2.5775 1.875 2.875 C4 4 4 4 6 6 C6.71004745 12.03540332 5.29961852 15.14761983 2 20 C-1.32243558 21.66121779 -4.45379462 21.88495969 -8 21 C-11.93679635 18.02339788 -14.5439787 14.71884952 -15.8125 9.9375 C-13.44860618 1.39111464 -8.48199996 -1.18747999 0 0 Z " fill="#EBEEF0" transform="translate(237,35)"/>
<path d="M0 0 C2.96334691 2.01759789 4.58229742 3.49860751 5.55859375 7.0078125 C6.05879409 10.35483204 6.0743327 12.77700189 5 16 C2.79600354 18.41062113 1.06711174 19.80788184 -2.19140625 20.39453125 C-6.16041509 20.57107695 -8.29498517 20.51586451 -11.5625 18.125 C-13 16 -13 16 -13 14 C-13.66 14 -14.32 14 -15 14 C-15.62589928 5.86330935 -15.62589928 5.86330935 -13.1875 2.5 C-9.13312429 -0.28014334 -4.79543334 -0.8039128 0 0 Z " fill="#ECF0F2" transform="translate(52,212)"/>
<path d="M0 0 C3.70956442 2.35082862 6.05685012 5.36611261 8.015625 9.27734375 C8.98136817 14.37272002 8.73179973 18.64967391 6.640625 23.40234375 C-1.27016826 32.06654589 -1.27016826 32.06654589 -5.984375 35.27734375 C-8.296875 35.03125 -8.296875 35.03125 -9.984375 34.27734375 C-9.654375 33.61734375 -9.324375 32.95734375 -8.984375 32.27734375 C-7.664375 32.27734375 -6.344375 32.27734375 -4.984375 32.27734375 C-4.984375 31.61734375 -4.984375 30.95734375 -4.984375 30.27734375 C-5.644375 30.27734375 -6.304375 30.27734375 -6.984375 30.27734375 C-7.314375 24.66734375 -7.644375 19.05734375 -7.984375 13.27734375 C-7.324375 13.27734375 -6.664375 13.27734375 -5.984375 13.27734375 C-5.984375 18.22734375 -5.984375 23.17734375 -5.984375 28.27734375 C-4.994375 28.27734375 -4.004375 28.27734375 -2.984375 28.27734375 C-2.984375 22.00734375 -2.984375 15.73734375 -2.984375 9.27734375 C-2.324375 9.27734375 -1.664375 9.27734375 -0.984375 9.27734375 C-0.984375 6.96734375 -0.984375 4.65734375 -0.984375 2.27734375 C-2.964375 2.93734375 -4.944375 3.59734375 -6.984375 4.27734375 C-6.171875 2.33984375 -6.171875 2.33984375 -4.984375 0.27734375 C-1.984375 -0.72265625 -1.984375 -0.72265625 0 0 Z " fill="#BDD4DD" transform="translate(1041.984375,41.72265625)"/>
<path d="M0 0 C1.95486328 0.00580078 1.95486328 0.00580078 3.94921875 0.01171875 C7.3125 0.3125 7.3125 0.3125 10.3125 2.3125 C10.3125 2.9725 10.3125 3.6325 10.3125 4.3125 C11.3025 4.6425 12.2925 4.9725 13.3125 5.3125 C9.5625 6.4375 9.5625 6.4375 7.3125 5.3125 C4.93847499 5.24133618 2.56249323 5.22840915 0.1875 5.25 C-1.09382813 5.25902344 -2.37515625 5.26804687 -3.6953125 5.27734375 C-5.17644531 5.29474609 -5.17644531 5.29474609 -6.6875 5.3125 C-6.6875 5.9725 -6.6875 6.6325 -6.6875 7.3125 C-7.368125 7.4775 -8.04875 7.6425 -8.75 7.8125 C-14.03592102 10.51169371 -18.50284464 15.76285416 -20.6875 21.3125 C-21.04668088 24.16145742 -21.19004118 26.98489308 -21.34375 29.8515625 C-21.6875 32.3125 -21.6875 32.3125 -23.6875 34.3125 C-26.81482989 28.44875645 -26.39627448 22.00584301 -24.75 15.75 C-19.84986239 5.92639079 -10.81972736 -0.13995667 0 0 Z " fill="#1A303F" transform="translate(1026.6875,30.6875)"/>
<path d="M0 0 C7.15354333 3.64976701 13.50499922 8.68592803 17.3515625 15.90234375 C19.01954643 21.29817128 18.77294876 27.68115371 17 33 C16.34 33 15.68 33 15 33 C14.01 35.475 14.01 35.475 13 38 C12.67 37.34 12.34 36.68 12 36 C10.88625 36.680625 10.88625 36.680625 9.75 37.375 C7.52893801 38.68744572 5.31218128 39.86367159 3 41 C3.59748047 40.32904297 3.59748047 40.32904297 4.20703125 39.64453125 C5.8349847 37.78684228 7.42151093 35.89981 9 34 C9.61875 33.2575 10.2375 32.515 10.875 31.75 C12.74128821 27.18796215 12.83996233 22.83655731 12 18 C9.0779862 12.13649231 4.30167723 7.61057426 -1.5625 4.75 C-6.69659967 3.6298328 -11.7666509 3.84757236 -17 4 C-13.61200055 1.7413337 -12.45540692 1.77930467 -8.5 1.875 C-7.06140625 1.90207031 -7.06140625 1.90207031 -5.59375 1.9296875 C-4.30984375 1.96449219 -4.30984375 1.96449219 -3 2 C-2.01 2 -1.02 2 0 2 C0 1.34 0 0.68 0 0 Z " fill="#20435B" transform="translate(1037,33)"/>
<path d="M0 0 C0.66 0 1.32 0 2 0 C2 10.23 2 20.46 2 31 C-2 30 -2 30 -4.1875 27.125 C-7.66206041 21.13437861 -7.25011347 15.8350732 -6.8125 9.125 C-5.67067149 6.13867928 -3.70924169 5.55781397 -1 4 C-0.12177688 1.91466367 -0.12177688 1.91466367 0 0 Z " fill="#D7E8F2" transform="translate(1014,42)"/>
<path d="M0 0 C2.875 1.5625 2.875 1.5625 5 4 C5.52306944 7.66148608 5.40358168 10.01626965 4 13.4375 C1.28929176 15.55524081 -0.7485779 15.57361306 -4.125 15.375 C-6 15 -6 15 -8 13.5 C-9.50238217 9.74404458 -9.38567013 7.04953637 -9 3 C-6.889775 -0.75151112 -4.01035663 -0.56144993 0 0 Z " fill="#15354B" transform="translate(143,127)"/>
<path d="M0 0 C0 2.31 0 4.62 0 7 C-0.66 7 -1.32 7 -2 7 C-2 13.27 -2 19.54 -2 26 C-2.99 26 -3.98 26 -5 26 C-5 21.05 -5 16.1 -5 11 C-9.26826873 15.26826873 -9.56268919 16.31495945 -10 22 C-11.32 21.34 -12.64 20.68 -14 20 C-14 18.02 -14 16.04 -14 14 C-13.01 13.67 -12.02 13.34 -11 13 C-9.86186843 10.77449605 -9.86186843 10.77449605 -9 8.125 C-6.1574344 0 -6.1574344 0 0 0 Z " fill="#12293F" transform="translate(1041,44)"/>
<path d="M0 0 C6.93 0 13.86 0 21 0 C21 0.33 21 0.66 21 1 C14.4 1 7.8 1 1 1 C1 36.97 1 72.94 1 110 C0.01 110 -0.98 110 -2 110 C-5.22265625 104.7265625 -5.22265625 104.7265625 -6 103 C-5.505 102.01 -5.505 102.01 -5 101 C-4.54625 101.804375 -4.0925 102.60875 -3.625 103.4375 C-2.25274335 106.08856572 -2.25274335 106.08856572 0 107 C0 71.69 0 36.38 0 0 Z " fill="#25404B" transform="translate(808,43)"/>
<path d="M0 0 C1.9375 1.25 1.9375 1.25 3 3 C3.4375 5.4375 3.4375 5.4375 3 8 C1.375 10.3125 1.375 10.3125 -1 12 C-4.0625 12.5 -4.0625 12.5 -7 12 C-9.59814888 9.74827097 -9.95716454 8.34982295 -10.375 4.9375 C-10 2 -10 2 -8.9375 0.0625 C-5.78137095 -1.66828045 -3.38695279 -0.8467382 0 0 Z " fill="#E5E9EC" transform="translate(105,220)"/>
<path d="M0 0 C0.33 0 0.66 0 1 0 C1 33.33 1 66.66 1 101 C-4.94 101 -10.88 101 -17 101 C-18.32 99.35 -19.64 97.7 -21 96 C-20.505 95.01 -20.505 95.01 -20 94 C-18.35 95.32 -16.7 96.64 -15 98 C-10.05 98.66 -5.1 99.32 0 100 C0 67 0 34 0 0 Z " fill="#4C6973" transform="translate(835,110)"/>
<path d="M0 0 C2.4375 1.625 2.4375 1.625 4 4 C3.93521587 7.17442218 3.46700625 9.19571146 1.875 11.9375 C-1.22905831 13.69646638 -3.66320548 12.84936588 -7 12 C-9.31282587 8.53076119 -9.42478586 7.07794425 -9 3 C-6.79244709 -0.67925486 -4.01747809 -0.57392544 0 0 Z " fill="#DDE2E6" transform="translate(264,127)"/>
<path d="M0 0 C2.05078125 0.03255208 4.1015625 0.06510417 6.15234375 0.09765625 C7.73849156 3.56735459 8.6557963 6.27141685 8.15234375 10.09765625 C7.02734375 11.91015625 7.02734375 11.91015625 5.15234375 13.09765625 C2.15234375 13.53515625 2.15234375 13.53515625 -0.84765625 13.09765625 C-2.78515625 11.59765625 -2.78515625 11.59765625 -3.84765625 9.09765625 C-3.79582888 0.20062521 -3.79582888 0.20062521 0 0 Z " fill="#E7EBEF" transform="translate(176.84765625,218.90234375)"/>
<path d="M0 0 C2.80722691 4.21084037 1.94537893 6.11554218 1 11 C-1.77100394 12.38550197 -3.9334706 12.1877467 -7 12 C-7.99 11.34 -8.98 10.68 -10 10 C-10.77902622 2.98876404 -10.77902622 2.98876404 -8.375 -0.0625 C-5.16733041 -1.32868536 -3.2708979 -0.99549067 0 0 Z " fill="#D1D7DC" transform="translate(237,94)"/>
<path d="M0 0 C2.375 1.125 2.375 1.125 4 3 C4.5 6 4.5 6 4 9 C1.74827097 11.59814888 0.34982295 11.95716454 -3.0625 12.375 C-6 12 -6 12 -7.875 10.875 C-9.52854531 8.11909116 -9.39365568 6.14924548 -9 3 C-6.78557651 -0.69070582 -4.02540619 -0.49290688 0 0 Z " fill="#E6EAED" transform="translate(143,21)"/>
<path d="M0 0 C2.4375 1.625 2.4375 1.625 4 4 C3.9375 7.125 3.9375 7.125 3 10 C-0.46923881 12.31282587 -1.92205575 12.42478586 -6 12 C-7.875 10.875 -7.875 10.875 -9 9 C-9.39365568 5.85075452 -9.52854531 3.88090884 -7.875 1.125 C-5.07553259 -0.55468045 -3.20195936 -0.45742277 0 0 Z " fill="#DEE2E7" transform="translate(104,33)"/>
<path d="M0 0 C1.8125 1.125 1.8125 1.125 3 3 C3.4375 6 3.4375 6 3 9 C0.88310295 11.35210784 -0.44041515 11.91810953 -3.5625 12.375 C-6 12 -6 12 -7.8125 10.9375 C-9.60842137 8.00731249 -9.18977574 5.3527047 -9 2 C-5.88578592 0.1545398 -3.61678684 -0.46369062 0 0 Z " fill="#E3E8EC" transform="translate(182,34)"/>
<path d="M0 0 C3.5 0.25 3.5 0.25 5.5 2.25 C6.05416667 8.34583333 6.05416667 8.34583333 4.3125 11.1875 C1.76385815 12.68153143 0.40641128 12.81710464 -2.5 12.25 C-4.875 10.0625 -4.875 10.0625 -6.5 7.25 C-6.2715775 2.3389162 -5.07768195 0.36269157 0 0 Z " fill="#E1E6EA" transform="translate(20.5,127.75)"/>
<path d="M0 0 C2 3 2 3 1.8125 5.5 C0.91447755 8.26314599 0.42840184 9.4089781 -2 11 C-5.0625 11.3125 -5.0625 11.3125 -8 11 C-10 9 -10 9 -10.3125 5.5625 C-10 2 -10 2 -8.9375 0 C-5.77203476 -1.63378851 -3.34979714 -0.85267564 0 0 Z " fill="#E5E9ED" transform="translate(145,234)"/>
<path d="M0 0 C0.99 0.66 1.98 1.32 3 2 C3.43132515 6.05445642 3.30019361 7.54970958 1 11 C-4.94232331 11.64825345 -4.94232331 11.64825345 -7.9375 9.8125 C-9.38718434 7.33950907 -9.42317323 5.82115488 -9 3 C-6.72678821 -0.66239677 -4.03980218 -0.42081273 0 0 Z " fill="#E0E5E9" transform="translate(236,163)"/>
<path d="M0 0 C3.0625 0.3125 3.0625 0.3125 4.9375 1.4375 C6.59104531 4.19340884 6.45615568 6.16325452 6.0625 9.3125 C4.875 11.1875 4.875 11.1875 3.0625 12.3125 C0.5625 12.75 0.5625 12.75 -1.9375 12.3125 C-4.51159193 10.00469344 -4.90489779 8.63852209 -5.25 5.1875 C-4.8154991 1.19009168 -3.99133579 0.42461019 0 0 Z " fill="#DEE3E8" transform="translate(46.9375,93.6875)"/>
<path d="M0 0 C0.99 0.66 1.98 1.32 3 2 C3.64825345 7.94232331 3.64825345 7.94232331 1.8125 10.9375 C-0.66049093 12.38718434 -2.17884512 12.42317323 -5 12 C-6.8125 10.875 -6.8125 10.875 -8 9 C-8.39769128 5.81846974 -8.55198782 3.87155972 -6.8125 1.125 C-4.36830089 -0.3920891 -2.83079592 -0.35384949 0 0 Z " fill="#E4E8EB" transform="translate(50,162)"/>
<path d="M0 0 C6.27 0.33 12.54 0.66 19 1 C19.33 1.99 19.66 2.98 20 4 C17.56212615 3.8590651 15.12482147 3.71245458 12.6875 3.5625 C11.65206055 3.50352539 11.65206055 3.50352539 10.59570312 3.44335938 C7.52838465 3.25072585 4.93031848 2.97677283 2 2 C1.67 23.45 1.34 44.9 1 67 C0.67 67 0.34 67 0 67 C0 44.89 0 22.78 0 0 Z " fill="#57707B" transform="translate(857,43)"/>
<path d="M0 0 C0.33 1.32 0.66 2.64 1 4 C1.66 4 2.32 4 3 4 C3 5.65 3 7.3 3 9 C3.99 9 4.98 9 6 9 C5.67 9.99 5.34 10.98 5 12 C4.01 12 3.02 12 2 12 C2.34227572 14.97065509 2.34227572 14.97065509 3 18 C3.66 18.33 4.32 18.66 5 19 C5.33 17.02 5.66 15.04 6 13 C6.33 13 6.66 13 7 13 C7 15.97 7 18.94 7 22 C4.0625 20.875 4.0625 20.875 1 19 C0.125 15.8125 0.125 15.8125 0 13 C-0.66 13 -1.32 13 -2 13 C-2 15.64 -2 18.28 -2 21 C-2.33 21 -2.66 21 -3 21 C-3 15.06 -3 9.12 -3 3 C-2.01 3 -1.02 3 0 3 C0 2.01 0 1.02 0 0 Z " fill="#2D546F" transform="translate(1025,46)"/>
<path d="M0 0 C2.1875 0.34375 2.1875 0.34375 4 1 C3.67 1.33 3.34 1.66 3 2 C3.66 2.33 4.32 2.66 5 3 C5 3.66 5 4.32 5 5 C4.01 5.33 3.02 5.66 2 6 C2 15.24 2 24.48 2 34 C1.67 34 1.34 34 1 34 C0.67 24.1 0.34 14.2 0 4 C-0.66 4 -1.32 4 -2 4 C-2.061875 4.78375 -2.12375 5.5675 -2.1875 6.375 C-2.455625 7.24125 -2.72375 8.1075 -3 9 C-4.65 9.66 -6.3 10.32 -8 11 C-8.33 15.62 -8.66 20.24 -9 25 C-9.33 25 -9.66 25 -10 25 C-10.52497194 16.11922466 -10.23119324 11.18151472 -4.5390625 4.2109375 C-3 2.5 -3 2.5 0 0 Z " fill="#8AA7BA" transform="translate(1016,38)"/>
<path d="M0 0 C1 4 1 4 0 7 C14.85 6.505 14.85 6.505 30 6 C30.33 4.68 30.66 3.36 31 2 C31.66 4.31 32.32 6.62 33 9 C21.45 9 9.9 9 -2 9 C-1.34 6.03 -0.68 3.06 0 0 Z " fill="#92B2BB" transform="translate(471,135)"/>
<path d="M0 0 C0.33 0 0.66 0 1 0 C1.31331041 3.58094585 1.56818594 7.16373855 1.8125 10.75 C1.90208984 11.76578125 1.99167969 12.7815625 2.08398438 13.828125 C2.5545236 21.35675262 2.5545236 21.35675262 -0.34375 24.71875 C-3 26 -3 26 -5.3125 25.75 C-5.869375 25.5025 -6.42625 25.255 -7 25 C-6.67 24.34 -6.34 23.68 -6 23 C-4.68 23 -3.36 23 -2 23 C-2 22.34 -2 21.68 -2 21 C-2.66 21 -3.32 21 -4 21 C-4.33 15.39 -4.66 9.78 -5 4 C-4.34 4 -3.68 4 -3 4 C-3 8.95 -3 13.9 -3 19 C-2.01 19 -1.02 19 0 19 C0 12.73 0 6.46 0 0 Z " fill="#7295A5" transform="translate(1039,51)"/>
<path d="M0 0 C0.33 0 0.66 0 1 0 C1 3.63 1 7.26 1 11 C1.66 11 2.32 11 3 11 C3.433125 11.886875 3.86625 12.77375 4.3125 13.6875 C5.76784817 16.54429455 7.31627474 19.27396863 9 22 C7.0625 21.6875 7.0625 21.6875 5 21 C4.67 20.01 4.34 19.02 4 18 C2.35 18 0.7 18 -1 18 C-4.07692308 12.58461538 -4.07692308 12.58461538 -3.6875 9.625 C-3.460625 9.08875 -3.23375 8.5525 -3 8 C-2.01 9.485 -2.01 9.485 -1 11 C-0.67 7.37 -0.34 3.74 0 0 Z " fill="#274957" transform="translate(1005,52)"/>
<path d="M0 0 C9.24 0 18.48 0 28 0 C28 1.32 28 2.64 28 4 C27.34 4 26.68 4 26 4 C26 3.34 26 2.68 26 2 C17.09 2 8.18 2 -1 2 C-0.67 1.34 -0.34 0.68 0 0 Z " fill="#3D5461" transform="translate(63,169)"/>
<path d="M0 0 C9.57 0 19.14 0 29 0 C29 0.66 29 1.32 29 2 C19.43 2.33 9.86 2.66 0 3 C0 2.01 0 1.02 0 0 Z " fill="#37515D" transform="translate(189,169)"/>
<path d="M0 0 C1.28132813 0.00902344 2.56265625 0.01804687 3.8828125 0.02734375 C4.87023438 0.03894531 5.85765625 0.05054687 6.875 0.0625 C7.205 1.0525 7.535 2.0425 7.875 3.0625 C8.865 3.3925 9.855 3.7225 10.875 4.0625 C7.125 5.1875 7.125 5.1875 4.875 4.0625 C2.50376754 3.83220044 0.12758057 3.65130058 -2.25 3.5 C-3.53132813 3.41621094 -4.81265625 3.33242188 -6.1328125 3.24609375 C-7.61394531 3.15521484 -7.61394531 3.15521484 -9.125 3.0625 C-9.125 2.4025 -9.125 1.7425 -9.125 1.0625 C-6.12186252 -0.43906874 -3.33432478 -0.03031204 0 0 Z " fill="#04172C" transform="translate(1029.125,31.9375)"/>
<path d="M0 0 C3.375 4.5 3.375 4.5 3.29296875 8.546875 C3.28330078 9.39121094 3.27363281 10.23554687 3.26367188 11.10546875 C3.23853516 11.97816406 3.21339844 12.85085937 3.1875 13.75 C3.17396484 14.63816406 3.16042969 15.52632812 3.14648438 16.44140625 C3.11121309 18.62822578 3.06192752 20.81379966 3 23 C3.66 23.33 4.32 23.66 5 24 C4.67 25.32 4.34 26.64 4 28 C3.01 28 2.02 28 1 28 C0.67 18.76 0.34 9.52 0 0 Z " fill="#1C3B5A" transform="translate(1017,44)"/>
<path d="M0 0 C0.66 0.33 1.32 0.66 2 1 C1.71479575 6.45962415 -1.50218628 8.96540982 -5.25 12.5 C-5.82363281 13.05558594 -6.39726562 13.61117187 -6.98828125 14.18359375 C-8.11669414 15.27602081 -9.24876981 16.3646792 -10.38476562 17.44921875 C-12.62426739 19.59935708 -14.81301827 21.7965748 -17 24 C-17.66 23.67 -18.32 23.34 -19 23 C-14.42923202 17.38310554 -9.43686619 12.51935489 -3.91308594 7.8581543 C-2.17810322 6.38248663 -2.17810322 6.38248663 0 4 C0 2.68 0 1.36 0 0 Z " fill="#2A444E" transform="translate(212,54)"/>
<path d="M0 0 C0.33 0 0.66 0 1 0 C1 5.61 1 11.22 1 17 C-1.91821463 17.13510253 -4.83017652 17.2341305 -7.75 17.3125 C-8.575 17.35439453 -9.4 17.39628906 -10.25 17.43945312 C-12.601744 17.48686732 -14.69402157 17.47157594 -17 17 C-19.578125 14.48046875 -19.578125 14.48046875 -21 12 C-20.67 11.34 -20.34 10.68 -20 10 C-19.00419922 10.95132813 -19.00419922 10.95132813 -17.98828125 11.921875 C-14.43678951 14.39167056 -11.37351643 14.86409089 -7.1875 15.25 C-4.815625 15.4975 -2.44375 15.745 0 16 C0 10.72 0 5.44 0 0 Z " fill="#617D89" transform="translate(835,194)"/>
<path d="M0 0 C1.33332095 2.6666419 0.67102033 4.16680303 0 7 C-0.66 7 -1.32 7 -2 7 C-2.33 7.99 -2.66 8.98 -3 10 C-13.23 10 -23.46 10 -34 10 C-33.67 8.68 -33.34 7.36 -33 6 C-33 6.99 -33 7.98 -33 9 C-23.43 8.67 -13.86 8.34 -4 8 C-2.68 5.36 -1.36 2.72 0 0 Z " fill="#9FB6C1" transform="translate(444,202)"/>
<path d="M0 0 C6.875 3.75 6.875 3.75 8 6 C7.01 6.495 7.01 6.495 6 7 C5.67 7.66 5.34 8.32 5 9 C3.27473958 7.99088542 1.54947917 6.98177083 -0.17578125 5.97265625 C-3.93804078 3.96665492 -6.99849386 3.89245692 -11.1875 3.9375 C-12.27417969 3.94652344 -13.36085938 3.95554688 -14.48046875 3.96484375 C-15.31191406 3.97644531 -16.14335938 3.98804688 -17 4 C-13.61200055 1.7413337 -12.45540692 1.77930467 -8.5 1.875 C-7.06140625 1.90207031 -7.06140625 1.90207031 -5.59375 1.9296875 C-4.30984375 1.96449219 -4.30984375 1.96449219 -3 2 C-2.01 2 -1.02 2 0 2 C0 1.34 0 0.68 0 0 Z " fill="#2A495D" transform="translate(1037,33)"/>
<path d="M0 0 C0.33 0 0.66 0 1 0 C1.24878997 2.43694274 1.47463404 4.87238389 1.6875 7.3125 C1.79674805 8.34793945 1.79674805 8.34793945 1.90820312 9.40429688 C2.33135078 14.55674183 2.33135078 14.55674183 0.51953125 16.98046875 C0.01808594 17.31691406 -0.48335937 17.65335938 -1 18 C-1 17.34 -1 16.68 -1 16 C-2.11375 16.680625 -2.11375 16.680625 -3.25 17.375 C-5.47106199 18.68744572 -7.68781872 19.86367159 -10 21 C-9.60167969 20.55269531 -9.20335937 20.10539062 -8.79296875 19.64453125 C-3.09716272 13.14493751 -0.54955607 8.69814606 0 0 Z " fill="#2E5166" transform="translate(1050,53)"/>
<path d="M0 0 C0.66 0 1.32 0 2 0 C2 4.95 2 9.9 2 15 C0.35 14.67 -1.3 14.34 -3 14 C-3.33 13.01 -3.66 12.02 -4 11 C-3.34 11 -2.68 11 -2 11 C-1.93941406 10.28972656 -1.87882812 9.57945313 -1.81640625 8.84765625 C-1.69072266 7.46900391 -1.69072266 7.46900391 -1.5625 6.0625 C-1.48128906 5.14597656 -1.40007812 4.22945312 -1.31640625 3.28515625 C-1 1 -1 1 0 0 Z " fill="#9BC2D6" transform="translate(1033,56)"/>
<path d="M0 0 C0.99 0 1.98 0 3 0 C5.02929235 6.08787705 4.42351711 12.09267705 2 18 C1.67 18 1.34 18 1 18 C0.67 12.06 0.34 6.12 0 0 Z " fill="#092742" transform="translate(1050,49)"/>
<path d="M0 0 C0 0.66 0 1.32 0 2 C-5.09114126 6.33288618 -9.43064064 8.00193407 -16 9 C-16 8.01 -16 7.02 -16 6 C-15.15695312 5.65066406 -14.31390625 5.30132812 -13.4453125 4.94140625 C-12.34960938 4.48636719 -11.25390625 4.03132812 -10.125 3.5625 C-9.03445313 3.11003906 -7.94390625 2.65757812 -6.8203125 2.19140625 C-1.63278689 0 -1.63278689 0 0 0 Z " fill="#1C3740" transform="translate(671,177)"/>
<path d="M0 0 C-0.17625835 2.37948772 -0.69719773 3.70225849 -2.40234375 5.37890625 C-3.90649092 6.62115486 -5.45129851 7.81376056 -7 9 C-8.32 8.34 -9.64 7.68 -11 7 C-9.73742767 5.82439821 -8.46462916 4.65977135 -7.1875 3.5 C-6.12595703 2.52546875 -6.12595703 2.52546875 -5.04296875 1.53125 C-3 0 -3 0 0 0 Z " fill="#071E3C" transform="translate(1049,69)"/>
<path d="M0 0 C3.01684845 2.04080925 4.88182617 4.57122233 7.125 7.4375 C6.795 8.0975 6.465 8.7575 6.125 9.4375 C4.805 8.7775 3.485 8.1175 2.125 7.4375 C2.125 6.4475 2.125 5.4575 2.125 4.4375 C1.465 4.4375 0.805 4.4375 0.125 4.4375 C-0.205 5.4275 -0.535 6.4175 -0.875 7.4375 C-0.875 5.7875 -0.875 4.1375 -0.875 2.4375 C-2.855 3.0975 -4.835 3.7575 -6.875 4.4375 C-6.0625 2.5 -6.0625 2.5 -4.875 0.4375 C-1.875 -0.5625 -1.875 -0.5625 0 0 Z " fill="#7DA7B4" transform="translate(1041.875,41.5625)"/>
<path d="M0 0 C3.79151583 -0.08829061 7.58276165 -0.14081946 11.375 -0.1875 C12.96634766 -0.22520508 12.96634766 -0.22520508 14.58984375 -0.26367188 C21.39168686 -0.32626552 27.7334869 0.12431691 34 3 C34.495 3.99 34.495 3.99 35 5 C33.02006459 4.69240822 31.04106401 4.3787932 29.0625 4.0625 C27.96035156 3.88847656 26.85820313 3.71445312 25.72265625 3.53515625 C23 3 23 3 22 2 C20.36743242 1.84285346 18.72864662 1.74914586 17.08984375 1.68359375 C16.10048828 1.64169922 15.11113281 1.59980469 14.09179688 1.55664062 C13.05087891 1.51732422 12.00996094 1.47800781 10.9375 1.4375 C9.37032227 1.37272461 9.37032227 1.37272461 7.77148438 1.30664062 C5.18113116 1.20018775 2.59067814 1.0981724 0 1 C0 0.67 0 0.34 0 0 Z " fill="#436372" transform="translate(633,42)"/>
<path d="M0 0 C3.72433382 1.2125738 7.37802806 2.50859979 11 4 C10.43628586 7.26954202 9.50037734 8.82575883 7 11 C6.34 10.67 5.68 10.34 5 10 C5.33 8.35 5.66 6.7 6 5 C5.01 4.67 4.02 4.34 3 4 C3 3.34 3 2.68 3 2 C2.01 1.67 1.02 1.34 0 1 C0 0.67 0 0.34 0 0 Z " fill="#42617A" transform="translate(685,54)"/>
<path d="M0 0 C0.33 0.66 0.66 1.32 1 2 C-3.16704183 6.85743929 -7.41844996 11.53019508 -12 16 C-12.66 15.67 -13.32 15.34 -14 15 C-12.23000902 13.06172464 -10.45904239 11.12435656 -8.6875 9.1875 C-8.18798828 8.64029297 -7.68847656 8.09308594 -7.17382812 7.52929688 C-4.83056872 4.96878163 -2.48855146 2.42060466 0 0 Z " fill="#304A53" transform="translate(85,175)"/>
<path d="M0 0 C0.33 0 0.66 0 1 0 C1 7.59 1 15.18 1 23 C2.32 23 3.64 23 5 23 C5 23.66 5 24.32 5 25 C3.02 25.99 3.02 25.99 1 27 C0.01 26.01 -0.98 25.02 -2 24 C-1.34 24 -0.68 24 0 24 C0 16.08 0 8.16 0 0 Z " fill="#AED1E2" transform="translate(1016,49)"/>
<path d="M0 0 C6.93 0 13.86 0 21 0 C20.01 0.33 19.02 0.66 18 1 C18 1.66 18 2.32 18 3 C15.75059705 3.08119503 13.50035129 3.13927819 11.25 3.1875 C9.99703125 3.22230469 8.7440625 3.25710937 7.453125 3.29296875 C4 3 4 3 0 0 Z " fill="#3E6277" transform="translate(1017,80)"/>
<path d="M0 0 C0.66 0 1.32 0 2 0 C2.28875 0.94875 2.5775 1.8975 2.875 2.875 C3.76825109 6.05211578 3.76825109 6.05211578 6 8 C5.236875 8.45375 4.47375 8.9075 3.6875 9.375 C1.76367186 10.53824492 -0.12941224 11.7529415 -2 13 C-1.855625 12.34 -1.71125 11.68 -1.5625 11 C-0.87700084 7.34400449 -0.43824485 3.69377805 0 0 Z " fill="#A5C7D7" transform="translate(1023,59)"/>
<path d="M0 0 C0.99 0.33 1.98 0.66 3 1 C3.22142255 2.95689659 3.4267568 4.91561952 3.625 6.875 C3.74101563 7.96554688 3.85703125 9.05609375 3.9765625 10.1796875 C3.98429688 11.11039063 3.99203125 12.04109375 4 13 C3.34 13.66 2.68 14.32 2 15 C-0.59227518 10.13948404 -0.18689553 5.34728867 0 0 Z " fill="#062636" transform="translate(1001,50)"/>
<path d="M0 0 C2.475 0.495 2.475 0.495 5 1 C5.33 1.99 5.66 2.98 6 4 C6.99 4.33 7.98 4.66 9 5 C9.33 5.99 9.66 6.98 10 8 C6.46850054 7.67895459 4.44225392 7.34914783 1.625 5.125 C0 3 0 3 0 0 Z " fill="#0F2B39" transform="translate(1005,69)"/>
<path d="M0 0 C0.99 0.33 1.98 0.66 3 1 C-1.61534219 5.06478107 -6.25585812 9.08608295 -11 13 C-11.66 12.67 -12.32 12.34 -13 12 C-11.3989569 10.3719224 -9.79405264 8.74764115 -8.1875 7.125 C-7.29417969 6.22007813 -6.40085938 5.31515625 -5.48046875 4.3828125 C-3 2 -3 2 0 0 Z " fill="#99B0BB" transform="translate(220,65)"/>
<path d="M0 0 C5.94 0 11.88 0 18 0 C18.33 0.99 18.66 1.98 19 3 C16.56212615 2.8590651 14.12482147 2.71245458 11.6875 2.5625 C10.65206055 2.50352539 10.65206055 2.50352539 9.59570312 2.44335938 C6.52838465 2.25072585 3.93031848 1.97677283 1 1 C0.67 1.66 0.34 2.32 0 3 C0 2.01 0 1.02 0 0 Z " fill="#395464" transform="translate(858,44)"/>
<path d="M0 0 C0.969375 0.474375 1.93875 0.94875 2.9375 1.4375 C7.19836149 3.28852999 11.40015606 3.69751593 16 4 C16 4.33 16 4.66 16 5 C15.08476563 4.98839844 14.16953125 4.97679688 13.2265625 4.96484375 C12.03804687 4.95582031 10.84953125 4.94679688 9.625 4.9375 C7.84996094 4.92009766 7.84996094 4.92009766 6.0390625 4.90234375 C3.08078479 4.78533407 3.08078479 4.78533407 1 6 C-1.03144641 5.06553465 -3.03533587 4.06775224 -5 3 C-3 2 -3 2 0 2 C0 1.34 0 0.68 0 0 Z " fill="#2A4C63" transform="translate(1014,74)"/>
<path d="M0 0 C0.66 0 1.32 0 2 0 C1.34 3.63 0.68 7.26 0 11 C-1.32 10.34 -2.64 9.68 -4 9 C-4 7.02 -4 5.04 -4 3 C-3.01 2.67 -2.02 2.34 -1 2 C-0.67 1.34 -0.34 0.68 0 0 Z " fill="#071B3B" transform="translate(1031,55)"/>
<path d="M0 0 C1.08667969 0.01804688 2.17335938 0.03609375 3.29296875 0.0546875 C4.54013672 0.08949219 4.54013672 0.08949219 5.8125 0.125 C5.8125 0.455 5.8125 0.785 5.8125 1.125 C-4.0775 4.575 -4.0775 4.575 -7.5 3.1875 C-8.056875 2.836875 -8.61375 2.48625 -9.1875 2.125 C-5.66070901 -0.22619399 -4.15870515 -0.08943452 0 0 Z " fill="#D8EDF5" transform="translate(1026.1875,37.875)"/>
<path d="M0 0 C0.99 0 1.98 0 3 0 C3.33 1.32 3.66 2.64 4 4 C3.01 4.495 3.01 4.495 2 5 C1.09274566 7.11327425 1.09274566 7.11327425 0.375 9.5625 C0.11460937 10.38878906 -0.14578125 11.21507813 -0.4140625 12.06640625 C-0.60742188 12.70449219 -0.80078125 13.34257813 -1 14 C-2.13732426 10.59598052 -1.83989957 8.22543336 -1.0625 4.75 C-0.86785156 3.85796875 -0.67320312 2.9659375 -0.47265625 2.046875 C-0.31667969 1.37140625 -0.16070312 0.6959375 0 0 Z " fill="#516C76" transform="translate(483,96)"/>
<path d="M0 0 C0.97110486 3.02121511 1.13617383 5.00463263 0 8 C-0.99 8.495 -0.99 8.495 -2 9 C-2.33 9.99 -2.66 10.98 -3 12 C-4 15 -4 15 -6 16 C-5.25886305 10.25618868 -2.56405843 5.12811685 0 0 Z " fill="#4B646D" transform="translate(572,81)"/>
<path d="M0 0 C1.98 0.99 1.98 0.99 4 2 C4.25 4.25 4.25 4.25 4 7 C2 9.3125 2 9.3125 0 11 C0 7.37 0 3.74 0 0 Z " fill="#CCDDE8" transform="translate(887,102)"/>
<path d="M0 0 C0.33 0 0.66 0 1 0 C1 3.96 1 7.92 1 12 C0.01 12 -0.98 12 -2 12 C-5.22265625 6.7265625 -5.22265625 6.7265625 -6 5 C-5.67 4.34 -5.34 3.68 -5 3 C-4.54625 3.804375 -4.0925 4.60875 -3.625 5.4375 C-2.25274335 8.08856572 -2.25274335 8.08856572 0 9 C0 6.03 0 3.06 0 0 Z " fill="#3E5861" transform="translate(808,141)"/>
<path d="M0 0 C0.66 0.33 1.32 0.66 2 1 C0.92492371 2.29854721 -0.16043736 3.58858361 -1.25 4.875 C-1.85328125 5.59429687 -2.4565625 6.31359375 -3.078125 7.0546875 C-4.97087634 8.97052118 -6.53657727 9.96449045 -9 11 C-7.59155282 7.78475695 -5.89655214 5.67816132 -3.375 3.25 C-2.74335937 2.63640625 -2.11171875 2.0228125 -1.4609375 1.390625 C-0.73777344 0.70226562 -0.73777344 0.70226562 0 0 Z " fill="#C4CBD0" transform="translate(110,98)"/>
<path d="M0 0 C1 2 1 2 0.29296875 4.78515625 C-0.07183594 5.86667969 -0.43664062 6.94820313 -0.8125 8.0625 C-1.16957031 9.14660156 -1.52664063 10.23070313 -1.89453125 11.34765625 C-3 14 -3 14 -5 15 C-4.0267366 9.64705129 -3.04378993 4.5656849 0 0 Z " fill="#607984" transform="translate(478,115)"/>
<path d="M0 0 C-2.79738782 1.5067748 -5.40322432 2.48224115 -8.5 3.1875 C-9.2528125 3.36667969 -10.005625 3.54585937 -10.78125 3.73046875 C-13.14833379 4.01801942 -14.74544015 3.72248395 -17 3 C-11.10261508 0.70657253 -6.33393082 -0.34548714 0 0 Z " fill="#41606C" transform="translate(633,43)"/>
<path d="M0 0 C0.433125 0.474375 0.86625 0.94875 1.3125 1.4375 C3.02309613 3.23686957 3.02309613 3.23686957 6 4 C5.67 4.99 5.34 5.98 5 7 C4.01 7 3.02 7 2 7 C1.67 7.66 1.34 8.32 1 9 C-0.4783226 6.04335481 -0.06032783 3.25770263 0 0 Z " fill="#163755" transform="translate(1025,51)"/>
<path d="M0 0 C0.66 0.33 1.32 0.66 2 1 C2 2.66666667 2 4.33333333 2 6 C-0.31 6 -2.62 6 -5 6 C-5.33 5.01 -5.66 4.02 -6 3 C-5.195625 2.690625 -4.39125 2.38125 -3.5625 2.0625 C-1.10919595 1.23664655 -1.10919595 1.23664655 0 0 Z " fill="#173953" transform="translate(1038,74)"/>
<path d="M0 0 C2.5 1.3125 2.5 1.3125 5 3 C5 3.99 5 4.98 5 6 C3.35 6.66 1.7 7.32 0 8 C0 5.33333333 0 2.66666667 0 0 Z " fill="#142E3A" transform="translate(690,187)"/>
<path d="M0 0 C0 0.66 0 1.32 0 2 C-1.96147874 3.38938077 -3.96166576 4.7260411 -6 6 C-7.32 5.34 -8.64 4.68 -10 4 C-8.71086513 3.32845067 -7.41859796 2.66291141 -6.125 2 C-5.40570312 1.62875 -4.68640625 1.2575 -3.9453125 0.875 C-2 0 -2 0 0 0 Z " fill="#3A535B" transform="translate(671,177)"/>
<path d="M0 0 C0.66 0.33 1.32 0.66 2 1 C1.07038578 2.15224028 0.1309875 3.29659176 -0.8125 4.4375 C-1.59560547 5.39462891 -1.59560547 5.39462891 -2.39453125 6.37109375 C-4 8 -4 8 -7 9 C-5.64978174 4.58110387 -3.73884332 2.65654657 0 0 Z " fill="#273F48" transform="translate(93,24)"/>
<path d="M0 0 C2.67901932 2.31881505 3.66204403 4.31814468 4.6875 7.6875 C4.93886719 8.49574219 5.19023438 9.30398437 5.44921875 10.13671875 C5.63097656 10.75160156 5.81273437 11.36648437 6 12 C2.46804227 9.64536151 1.62378295 7.86614989 0 4 C0 2.68 0 1.36 0 0 Z " fill="#627787" transform="translate(528,195)"/>
<path d="M0 0 C-1.26941497 3.91402949 -2.51167694 5.79072873 -6 8 C-5.62403791 5.21788056 -5.32681541 3.4120716 -3.5625 1.1875 C-2 0 -2 0 0 0 Z " fill="#A7D0DD" transform="translate(1049,62)"/>
<path d="M0 0 C0.99 0.33 1.98 0.66 3 1 C2.34 1 1.68 1 1 1 C1.061875 2.11375 1.061875 2.11375 1.125 3.25 C0.99384899 6.13532225 0.61138093 7.62533337 -1 10 C-1.99 10.33 -2.98 10.66 -4 11 C-2.95902388 7.13351728 -1.96301592 3.50538557 0 0 Z " fill="#45535F" transform="translate(482,38)"/>
<path d="M0 0 C0.66 0 1.32 0 2 0 C2.33 1.65 2.66 3.3 3 5 C1.35 6.32 -0.3 7.64 -2 9 C-1.34 6.03 -0.68 3.06 0 0 Z " fill="#061220" transform="translate(483,39)"/>
<path d="M0 0 C1.33332095 2.6666419 0.67102033 4.16680303 0 7 C-0.66 7 -1.32 7 -2 7 C-2.33 7.99 -2.66 8.98 -3 10 C-4.65 10 -6.3 10 -8 10 C-7.38640625 9.75507813 -6.7728125 9.51015625 -6.140625 9.2578125 C-3.57364433 7.74947715 -2.96142096 6.55743212 -1.75 3.875 C-1.41484375 3.15054688 -1.0796875 2.42609375 -0.734375 1.6796875 C-0.49203125 1.12539062 -0.2496875 0.57109375 0 0 Z " fill="#7A929E" transform="translate(444,202)"/>
<path d="M0 0 C0.66 0 1.32 0 2 0 C3.0257259 4.41062136 3.03684712 6.92630576 1 11 C0.67 11 0.34 11 0 11 C0 7.37 0 3.74 0 0 Z " fill="#D0DDE8" transform="translate(741,104)"/>
<path d="M0 0 C0 4.38968456 -2.12805101 5.76905739 -5 9 C-5.99 8.67 -6.98 8.34 -8 8 C-5.33333333 5.33333333 -2.66666667 2.66666667 0 0 Z " fill="#294351" transform="translate(66,195)"/>
<path d="M0 0 C2.96404505 2.80804268 5.44499019 5.18315774 7 9 C4.625 8.4375 4.625 8.4375 2 7 C0.6875 3.375 0.6875 3.375 0 0 Z " fill="#3B4F61" transform="translate(893,67)"/>
<path d="M0 0 C0.33 0.66 0.66 1.32 1 2 C-1.47812494 5.45167403 -2.79606135 7.23163306 -7 8 C-6.02133662 6.85373678 -5.04205413 5.70800212 -4.0625 4.5625 C-3.51722656 3.92441406 -2.97195312 3.28632813 -2.41015625 2.62890625 C-1.63204305 1.73008851 -0.84063472 0.84063472 0 0 Z " fill="#A8BFC9" transform="translate(82,194)"/>
<path d="M0 0 C0.33 0.99 0.66 1.98 1 3 C-1.97 5.475 -1.97 5.475 -5 8 C-5 5 -5 5 -2.5 2.3125 C-1.675 1.549375 -0.85 0.78625 0 0 Z " fill="#3F5861" transform="translate(584,66)"/>
<path d="M0 0 C0.99 0 1.98 0 3 0 C2.75 1.875 2.75 1.875 2 4 C-0.0625 5.25 -0.0625 5.25 -2 6 C-1.125 1.125 -1.125 1.125 0 0 Z " fill="#B4CFD8" transform="translate(1011,43)"/>
<path d="M0 0 C3.14737182 0.69941596 6.02588876 1.76078698 9 3 C9 3.66 9 4.32 9 5 C4.68607774 4.5206753 2.83430453 3.2542015 0 0 Z " fill="#C4E1F0" transform="translate(680,49)"/>
<path d="M0 0 C2.9375 0.8125 2.9375 0.8125 6 2 C6.33 2.99 6.66 3.98 7 5 C5.68 5.33 4.36 5.66 3 6 C3 4.68 3 3.36 3 2 C2.01 1.67 1.02 1.34 0 1 C0 0.67 0 0.34 0 0 Z " fill="#9EC5D4" transform="translate(1033,37)"/>
<path d="M0 0 C2.375 0.1875 2.375 0.1875 5 1 C6.3125 3.5625 6.3125 3.5625 7 6 C4.525 5.01 4.525 5.01 2 4 C2 3.01 2 2.02 2 1 C1.34 0.67 0.68 0.34 0 0 Z " fill="#8EB6C0" transform="translate(1042,45)"/>
</svg>
